#N canvas 376 91 1189 818 12;
#X obj 631 310 textfile;
#X msg 660 261 bang;
#X obj 582 98 int;
#X obj 616 100 + 1;
#X obj 587 200 mod;
#X obj 514 377 s dyn_mod;
#X obj 622 199 r dyn_mod;
#X obj 585 19 tgl 15 0 empty empty empty 17 7 0 10 -262144 -1 -1 0
1;
#X obj 611 351 route float;
#X obj 586 226 sel 0;
#X msg 510 261 rewind \, bang \, bang;
#X obj 620 15 hsl 128 15 50 200 0 1 empty empty empty -2 -8 0 10 -262144
-1 -1 5900 1;
#X obj 585 39 metro;
#X floatatom 632 38 5 0 0 0 - - -;
#X obj 24 23 tgl 15 0 empty empty empty 17 7 0 10 -262144 -1 -1 0 1
;
#X msg 24 48 \; pd dsp \$1;
#N canvas 52 386 661 298 delayLine 0;
#X obj 36 147 delwrite~ del_line 2000;
#X obj 323 121 delread4~ del_line;
#X floatatom 323 92 5 0 0 0 - - -;
#X obj 308 151 +~;
#X obj 172 36 inlet~;
#X obj 352 262 outlet~;
#X obj 323 61 receive delayTime;
#X obj 170 195 receive delayFeedback;
#X obj 155 256 *~;
#X floatatom 170 219 5 0 0 0 - - -;
#X connect 1 0 3 1;
#X connect 2 0 1 0;
#X connect 3 0 5 0;
#X connect 3 0 8 0;
#X connect 4 0 0 0;
#X connect 4 0 3 0;
#X connect 6 0 2 0;
#X connect 7 0 9 0;
#X connect 8 0 0 0;
#X connect 9 0 8 1;
#X restore 154 474 pd delayLine;
#N canvas 584 29 616 410 filterbank 0;
#X obj 34 250 *~;
#X floatatom 49 222 5 0 0 0 - - -;
#X obj 34 111 lop~ 4000;
#X floatatom 223 91 5 0 0 0 - - -;
#X floatatom 262 92 5 0 0 0 - - -;
#X floatatom 84 81 5 0 0 0 - - -;
#X obj 381 114 hip~ 200;
#X floatatom 425 87 5 0 0 0 - - -;
#X obj 199 260 *~;
#X floatatom 216 236 5 0 0 0 - - -;
#X obj 379 249 *~;
#X floatatom 396 225 5 0 0 0 - - -;
#X obj 199 10 inlet~;
#X obj 175 354 outlet~;
#X obj 86 52 receive lopFreq;
#X obj 50 193 receive lopGain;
#X obj 224 54 receive bpFreq;
#X obj 215 207 receive bpGain;
#X obj 425 61 receive hpFreq;
#X obj 397 197 receive hpGain;
#X obj 196 125 bp~ 200 5;
#X connect 0 0 13 0;
#X connect 1 0 0 1;
#X connect 2 0 0 0;
#X connect 3 0 20 1;
#X connect 4 0 20 2;
#X connect 5 0 2 1;
#X connect 6 0 10 0;
#X connect 7 0 6 1;
#X connect 8 0 13 0;
#X connect 9 0 8 1;
#X connect 10 0 13 0;
#X connect 11 0 10 1;
#X connect 12 0 2 0;
#X connect 12 0 6 0;
#X connect 12 0 20 0;
#X connect 14 0 5 0;
#X connect 15 0 1 0;
#X connect 16 0 3 0;
#X connect 17 0 9 0;
#X connect 18 0 7 0;
#X connect 19 0 11 0;
#X connect 20 0 8 0;
#X restore 158 536 pd filterbank;
#N canvas 0 23 740 505 reverb 0;
#X obj 162 49 inlet~;
#X obj 144 364 outlet~;
#X floatatom 444 156 0 0 120 0 - - -;
#X text 485 156 level \, dB;
#X floatatom 472 173 0 0 100 0 - - -;
#X text 513 173 liveness \, 0-100;
#X floatatom 507 197 4 0 5000 0 - - -;
#X floatatom 542 220 0 0 100 0 - - -;
#X text 555 195 crossover frequency \, Hz.;
#X text 578 222 HF damping \, percent;
#X obj 235 233 rev3~ 100 90 3000 20;
#X obj 247 331 *~;
#X floatatom 317 299 5 0 0 0 - - -;
#X obj 26 288 *~;
#X floatatom 66 261 5 0 0 0 - - -;
#X text 355 299 wet reverb signal;
#X text 103 264 "dry" signal;
#X obj 409 32 receive reverbWetDry;
#X floatatom 410 59 5 0 0 0 - - -;
#X obj 250 87 expr 1 - $f1;
#X connect 0 0 13 0;
#X connect 0 0 10 0;
#X connect 2 0 10 2;
#X connect 4 0 10 3;
#X connect 6 0 10 4;
#X connect 7 0 10 5;
#X connect 10 0 11 0;
#X connect 10 1 11 0;
#X connect 10 2 11 0;
#X connect 10 3 11 0;
#X connect 11 0 1 0;
#X connect 12 0 11 1;
#X connect 13 0 1 0;
#X connect 14 0 13 1;
#X connect 17 0 18 0;
#X connect 18 0 12 0;
#X connect 18 0 19 0;
#X connect 19 0 14 0;
#X restore 160 583 pd reverb;
#X obj 156 666 dac~;
#X obj 178 122 hsl 128 15 0 1 0 0 delayFeedback delayFeedback Delay_Feedback
-2 -8 0 10 -262144 -1 -1 0 1;
#X obj 28 401 hsl 128 15 0 1 0 0 reverbWetDry reverbWetDry Reverb_Wet/Dry
-2 -8 0 10 -262144 -1 -1 0 1;
#X obj 176 245 hsl 128 15 0 1 0 0 lopGain lopGain LowPass_Gain -2 -8
0 10 -262144 -1 -1 0 1;
#X obj 32 176 hsl 128 15 0.5 100 0 0 distortionAmnt distortionAmnt
Distortion_Amount -2 -8 0 10 -262144 -1 -1 0 1;
#X obj 32 246 hsl 128 15 50 4000 0 0 lopFreq lopFreq LowPass_Frequency
-2 -8 0 10 -262144 -1 -1 0 1;
#X obj 176 288 hsl 128 15 0 1 0 0 bpGain bpGain BandPass_Gain -2 -8
0 10 -262144 -1 -1 0 1;
#X obj 32 287 hsl 128 15 1000 4000 0 0 bpFreq bpFreq BandPass_Frequency
-2 -8 0 10 -262144 -1 -1 0 1;
#X obj 176 332 hsl 128 15 0 1 0 0 hpGain hpGain HighPass_Gain -2 -8
0 10 -262144 -1 -1 0 1;
#X obj 30 332 hsl 128 15 1000 4000 0 0 hpFreq hpFreq HighPass_Frequency
-2 -8 0 10 -262144 -1 -1 0 1;
#X obj 32 120 hsl 128 15 0 100 0 0 delayTime delayTime Delay_Time -2
-8 0 10 -262144 -1 -1 0 1;
#X obj 606 394 route F + - [ ];
#X obj 554 504 readsf~;
#X obj 364 528 readsf~;
#X obj 991 511 readsf~;
#X obj 659 508 readsf~;
#X obj 827 510 readsf~;
#X obj 154 445 r~ samp_seq;
#X obj 670 639 s~ samp_seq;
#X obj 364 554 *~;
#X obj 555 530 *~;
#X obj 659 534 *~;
#X obj 827 536 *~;
#X obj 991 537 *~;
#X floatatom 400 554 5 0 1 0 - - -;
#X floatatom 584 532 5 0 1 0 - - -;
#X floatatom 689 534 5 0 1 0 - - -;
#X floatatom 860 536 5 0 1 0 - - -;
#X floatatom 1023 539 5 0 1 0 - - -;
#X msg 596 68 0;
#X obj 161 623 *~;
#X obj 196 610 hsl 128 15 0 5 0 0 empty empty empty -2 -8 0 10 -262144
-1 -1 0 1;
#X obj 393 88 s delayTime;
#X msg 421 36 20;
#X msg 304 41 30;
#X msg 370 31 40;
#X obj 34 723 writesf~ 2;
#X msg 54 628 start;
#X msg 74 657 stop;
#X msg 12 600 open L-beattmp.wav;
#X obj 802 287 loadbang;
#X msg 774 137 clear \, read L-Text/L0.txt \, rewind;
#X msg 775 164 clear \, read L-Text/L1.txt \, rewind;
#X msg 781 197 clear \, read L-Text/L2.txt \, rewind;
#X msg 780 228 clear \, read L-Text/L3.txt \, rewind;
#X msg 784 261 clear \, read L-Text/L4.txt \, rewind;
#X msg 793 333 clear \, read L-Text/L5.txt \, rewind;
#X msg 330 475 open Samples/0.wav \, 1;
#X msg 497 479 open Samples/1.wav \, 1;
#X msg 659 481 open Samples/2.wav \, 1;
#X msg 824 483 open Samples/3.wav \, 1;
#X msg 988 484 open Samples/Block.wav \, 1;
#N canvas 0 23 740 505 distortion 0;
#X obj 162 49 inlet~;
#X obj 144 364 outlet~;
#X floatatom 444 156 0 0 120 0 - - -;
#X text 485 156 level \, dB;
#X floatatom 472 173 0 0 100 0 - - -;
#X text 513 173 liveness \, 0-100;
#X floatatom 507 197 4 0 5000 0 - - -;
#X floatatom 542 220 0 0 100 0 - - -;
#X text 555 195 crossover frequency \, Hz.;
#X text 578 222 HF damping \, percent;
#X obj 235 233 rev3~ 100 90 3000 20;
#X obj 247 331 *~;
#X floatatom 317 299 5 0 0 0 - - -;
#X obj 26 288 *~;
#X floatatom 66 261 5 0 0 0 - - -;
#X text 355 299 wet reverb signal;
#X text 103 264 "dry" signal;
#X obj 409 32 receive reverbWetDry;
#X floatatom 410 59 5 0 0 0 - - -;
#X obj 250 87 expr 1 - $f1;
#X connect 0 0 13 0;
#X connect 0 0 10 0;
#X connect 2 0 10 2;
#X connect 4 0 10 3;
#X connect 6 0 10 4;
#X connect 7 0 10 5;
#X connect 10 0 11 0;
#X connect 10 1 11 0;
#X connect 10 2 11 0;
#X connect 10 3 11 0;
#X connect 11 0 1 0;
#X connect 12 0 11 1;
#X connect 13 0 1 0;
#X connect 14 0 13 1;
#X connect 17 0 18 0;
#X connect 18 0 12 0;
#X connect 18 0 19 0;
#X connect 19 0 14 0;
#X restore 159 506 pd distortion;
#X connect 0 0 8 0;
#X connect 1 0 0 0;
#X connect 2 0 3 0;
#X connect 2 0 4 0;
#X connect 3 0 2 1;
#X connect 4 0 9 0;
#X connect 6 0 4 1;
#X connect 7 0 12 0;
#X connect 8 0 5 0;
#X connect 8 1 30 0;
#X connect 9 0 10 0;
#X connect 9 1 1 0;
#X connect 10 0 0 0;
#X connect 11 0 12 1;
#X connect 11 0 13 0;
#X connect 12 0 2 0;
#X connect 14 0 15 0;
#X connect 16 0 71 0;
#X connect 17 0 18 0;
#X connect 18 0 49 0;
#X connect 30 0 66 0;
#X connect 30 1 67 0;
#X connect 30 2 68 0;
#X connect 30 3 69 0;
#X connect 30 4 70 0;
#X connect 31 0 39 0;
#X connect 32 0 38 0;
#X connect 33 0 42 0;
#X connect 34 0 40 0;
#X connect 35 0 41 0;
#X connect 36 0 16 0;
#X connect 38 0 37 0;
#X connect 39 0 37 0;
#X connect 40 0 37 0;
#X connect 41 0 37 0;
#X connect 42 0 37 0;
#X connect 43 0 38 1;
#X connect 44 0 39 1;
#X connect 45 0 40 1;
#X connect 46 0 41 1;
#X connect 47 0 42 1;
#X connect 48 0 2 1;
#X connect 49 0 19 0;
#X connect 49 0 19 1;
#X connect 49 0 55 0;
#X connect 49 0 55 1;
#X connect 50 0 49 1;
#X connect 52 0 51 0;
#X connect 53 0 51 0;
#X connect 54 0 51 0;
#X connect 56 0 55 0;
#X connect 57 0 55 0;
#X connect 58 0 55 0;
#X connect 59 0 65 0;
#X connect 60 0 0 0;
#X connect 61 0 0 0;
#X connect 62 0 0 0;
#X connect 63 0 0 0;
#X connect 64 0 0 0;
#X connect 65 0 0 0;
#X connect 66 0 32 0;
#X connect 67 0 31 0;
#X connect 68 0 34 0;
#X connect 69 0 35 0;
#X connect 70 0 33 0;
#X connect 71 0 17 0;
