#N canvas 555 232 1024 582 10;
#X text 177 277 creation arguments are OSC address;
#X text 179 237 set message to change OSC address;
#X text 164 48 1 Set IP Address : network address;
#X text 164 68 2 Set Ports (sending and listening);
#X text 164 87 3 Set OSC Addresses (routing osc data;
#X text 155 26 Key Settings;
#X floatatom 43 194 5 0 0 0 - - -;
#N canvas 401 59 1021 592 oscReceive 0;
#X obj 55 184 netreceive -u -b;
#X msg 78 143 listen 0;
#X text 152 143 stop listening;
#X text 64 58 packets from network;
#X text 173 177 UDP packets \, binary output, f 13;
#X obj 45 272 oscparse;
#X text 150 114 listen on port 8000;
#X obj 177 269 oscparse;
#X obj 177 293 list trim;
#X text 241 267 Parse the OSC message;
#X obj 177 319 route unity;
#X msg 66 115 listen 8000;
#X obj 66 84 loadbang;
#X obj 36 423 bng 15 250 50 0 empty empty empty 17 7 0 10 -262144 -1
-1;
#X floatatom 340 428 5 0 0 0 - - -;
#X obj 340 450 s updatescore;
#X obj 241 475 bng 15 250 50 0 empty empty empty 17 7 0 10 -262144
-1 -1;
#X obj 89 423 bng 15 250 50 0 empty empty empty 17 7 0 10 -262144 -1
-1;
#X obj 437 427 bng 15 250 50 0 empty empty empty 17 7 0 10 -262144
-1 -1;
#X obj 436 451 s initTrig;
#X obj 602 460 s audioTrig;
#X floatatom 608 435 5 0 0 0 - - -;
#X obj 45 295 print;
#X obj 511 456 s beatToggle;
#X floatatom 529 429 5 0 0 0 - - -;
#X obj 14 449 s replaymsc;
#X obj 91 448 s jumpTrig;
#X floatatom 166 422 5 0 0 0 - - -;
#X obj 163 447 s damageAmt;
#X obj 130 374 route replaysong jump damage death score init statechange
toggleaudio spawn, f 75;
#X obj 691 432 bng 15 250 50 0 empty empty empty 17 7 0 10 -262144
-1 -1;
#X obj 691 452 s spawnTrig;
#X obj 239 496 s deathTrig;
#X connect 0 0 5 0;
#X connect 0 0 7 0;
#X connect 1 0 0 0;
#X connect 5 0 22 0;
#X connect 7 0 8 0;
#X connect 8 0 10 0;
#X connect 10 0 29 0;
#X connect 11 0 0 0;
#X connect 12 0 11 0;
#X connect 13 0 25 0;
#X connect 14 0 15 0;
#X connect 16 0 32 0;
#X connect 17 0 26 0;
#X connect 18 0 19 0;
#X connect 21 0 20 0;
#X connect 24 0 23 0;
#X connect 27 0 28 0;
#X connect 29 0 13 0;
#X connect 29 1 17 0;
#X connect 29 2 27 0;
#X connect 29 3 16 0;
#X connect 29 4 14 0;
#X connect 29 5 18 0;
#X connect 29 6 24 0;
#X connect 29 7 21 0;
#X connect 29 8 30 0;
#X connect 30 0 31 0;
#X restore 47 142 pd oscReceive;
#X obj 47 36 tgl 15 0 empty empty empty 17 7 0 10 -262144 -1 -1 1 1
;
#X msg 47 61 \; pd dsp \$1;
#X obj 44 278 oscformat PD message;
#X msg 76 239 set PD message;
#N canvas 400 1 450 300 oscSend 0;
#X msg 158 207 disconnect;
#X obj 61 253 netsend -u -b;
#X obj 59 55 list prepend send;
#X obj 59 80 list trim;
#X obj 59 29 r oscOut;
#X obj 147 108 loadbang;
#X msg 147 148 connect localhost 8001;
#X msg 150 175 connect 127.0.0.1 8001;
#X text 301 163 send to port 8001;
#X connect 0 0 1 0;
#X connect 2 0 3 0;
#X connect 3 0 1 0;
#X connect 4 0 2 0;
#X connect 5 0 6 0;
#X connect 6 0 1 0;
#X connect 7 0 1 0;
#X restore 47 118 pd oscSend;
#X obj 44 313 s oscOut;
#X obj 468 39 cnv 15 500 355 empty empty Sound_Work 20 20 0 20 -203904
-66577 0;
#X obj 39 10 loadbang;
#X obj 654 85 cnv 15 300 300 empty empty MUSIC_(readonly) 20 12 0 18
-262130 -66577 0;
#X msg 679 219 start;
#X msg 721 219 stop;
#X msg 758 220 restart;
#N canvas 126 162 1151 778 MainController 0;
#X obj 205 9 cnv 15 500 60 empty empty Main_Controller 135 25 0 30
-232576 -66577 0;
#X obj 16 88 cnv 15 1000 600 empty empty empty 10 10 0 14 -261234 -66577
0;
#X obj 48 100 cnv 15 350 200 empty empty empty 20 12 0 14 -204786 -66577
0;
#X obj 45 319 cnv 15 600 285 empty empty empty 20 12 0 14 -204800 -66577
0;
#X obj 796 146 cnv 15 100 30 empty empty empty 20 12 0 14 -261682 -66577
0;
#X obj 654 319 cnv 15 150 285 empty empty Beat_gain_line 25 25 0 14
-262130 -66577 0;
#X obj 113 268 tgl 15 0 empty empty empty 17 7 0 10 -262144 -1 -1 1
1;
#X msg 112 211 0;
#X msg 154 241 1;
#X obj 153 196 int;
#X obj 150 218 sel 0;
#X obj 111 116 inlet;
#X obj 111 140 route stop start restart;
#X msg 225 223 0;
#X text 256 229 jump to index 0;
#X obj 701 518 line;
#X obj 697 424 route 0 1;
#N canvas 177 144 815 666 phasorseq 0;
#X obj 163 304 phasor~;
#X obj 159 278 nbx 5 14 -1e+037 1e+037 0 1 empty empty empty 0 -8 0
10 -262144 -1 -1 99 256;
#X obj 168 6 inlet;
#X obj 227 380 *~;
#X obj 207 346 *~;
#X msg 135 213 214 2000;
#X obj 141 115 int;
#X obj 176 115 + 1;
#X obj 139 87 sel 0;
#X obj 141 138 mod 3;
#X obj 141 161 sel 0 1 2;
#X obj 139 64 mod 64;
#X msg 201 217 142 2000;
#X obj 160 253 line;
#X msg 69 216 107 2000;
#X obj 331 193 moses 1000;
#X obj 306 257 vline~;
#X msg 300 226 1 10000;
#X msg 370 223 0 10000;
#N canvas 0 23 740 505 reverb 0;
#X obj 162 49 inlet~;
#X obj 144 364 outlet~;
#X floatatom 444 156 0 0 120 0 - - -;
#X text 485 156 level \, dB;
#X floatatom 472 173 0 0 100 0 - - -;
#X text 513 173 liveness \, 0-100;
#X floatatom 507 197 4 0 5000 0 - - -;
#X floatatom 542 220 0 0 100 0 - - -;
#X text 555 195 crossover frequency \, Hz.;
#X text 578 222 HF damping \, percent;
#X obj 235 233 rev3~ 100 90 3000 20;
#X obj 247 331 *~;
#X floatatom 317 299 5 0 0 0 - - -;
#X obj 26 288 *~;
#X floatatom 66 261 5 0 0 0 - - -;
#X text 355 299 wet reverb signal;
#X text 103 264 "dry" signal;
#X floatatom 410 59 5 0 0 0 - - -;
#X obj 250 87 expr 1 - $f1;
#X obj 438 31 inlet;
#X connect 0 0 13 0;
#X connect 0 0 10 0;
#X connect 2 0 10 2;
#X connect 4 0 10 3;
#X connect 6 0 10 4;
#X connect 7 0 10 5;
#X connect 10 0 11 0;
#X connect 10 1 11 0;
#X connect 10 2 11 0;
#X connect 10 3 11 0;
#X connect 11 0 1 0;
#X connect 12 0 11 1;
#X connect 13 0 1 0;
#X connect 14 0 13 1;
#X connect 17 0 12 0;
#X connect 17 0 18 0;
#X connect 18 0 14 0;
#X connect 19 0 17 0;
#X restore 227 511 pd reverb;
#X obj 281 488 hsl 128 15 0 1 0 1 empty empty Reverb_Wet/Dry -2 -8
0 10 -262144 -1 -1 8000 1;
#X obj 227 534 outlet~;
#X obj 169 32 moses 750;
#X obj 227 403 *~;
#X text 429 186 Only play sound from index 750 to 1000;
#X obj 293 349 r phaseVol;
#X obj 284 387 r OnOffLine;
#X obj 228 433 *~;
#N canvas 0 50 450 300 VolScale 0;
#X obj 28 22 r globalVol;
#X obj 28 68 line;
#X obj 28 91 outlet~;
#X msg 28 45 \$1 500;
#X connect 0 0 3 0;
#X connect 1 0 2 0;
#X connect 3 0 1 0;
#X restore 264 431 pd VolScale;
#X connect 0 0 4 0;
#X connect 1 0 0 0;
#X connect 2 0 22 0;
#X connect 3 0 23 0;
#X connect 4 0 3 0;
#X connect 5 0 13 0;
#X connect 6 0 7 0;
#X connect 6 0 9 0;
#X connect 7 0 6 1;
#X connect 8 0 6 0;
#X connect 9 0 10 0;
#X connect 10 0 14 0;
#X connect 10 1 5 0;
#X connect 10 2 12 0;
#X connect 11 0 8 0;
#X connect 12 0 13 0;
#X connect 13 0 1 0;
#X connect 14 0 13 0;
#X connect 15 0 17 0;
#X connect 15 1 18 0;
#X connect 16 0 4 1;
#X connect 17 0 16 0;
#X connect 18 0 16 0;
#X connect 19 0 21 0;
#X connect 20 0 19 1;
#X connect 22 1 15 0;
#X connect 22 1 11 0;
#X connect 23 0 27 0;
#X connect 25 0 3 1;
#X connect 26 0 23 1;
#X connect 27 0 19 0;
#X connect 28 0 27 1;
#X restore 804 234 pd phasorseq;
#N canvas 497 296 926 602 processLSystem 0;
#X obj 240 113 s dyn_mod;
#X obj 264 78 route float;
#X obj 332 130 route F + - [ ];
#X obj 165 284 readsf~;
#X obj 34 283 readsf~;
#X obj 595 295 readsf~;
#X obj 307 289 readsf~;
#X obj 459 298 readsf~;
#X obj 34 309 *~;
#X obj 166 310 *~;
#X obj 307 315 *~;
#X obj 459 324 *~;
#X obj 595 321 *~;
#X obj 269 51 inlet;
#X obj 366 307 r hihatVol;
#X obj 217 298 r snareVol;
#X obj 92 296 r kickVol;
#X msg 69 223 kick;
#X obj 69 246 s noteMsg;
#X obj 204 250 s noteMsg;
#X msg 205 227 snare;
#X obj 351 253 s noteMsg;
#X msg 352 230 hihat;
#X obj 496 256 s noteMsg;
#X msg 497 233 block;
#X obj 673 256 s noteMsg;
#X msg 674 233 block;
#X obj 405 445 *~;
#X obj 438 443 r beatVol;
#X obj 405 518 outlet~;
#X obj 405 468 *~;
#N canvas 0 50 450 300 VolScale 0;
#X obj 28 22 r globalVol;
#X obj 28 68 line;
#X obj 28 91 outlet~;
#X msg 28 45 \$1 500;
#X connect 0 0 3 0;
#X connect 1 0 2 0;
#X connect 3 0 1 0;
#X restore 441 466 pd VolScale;
#X obj 406 492 *~;
#X obj 439 491 r OnOffLine;
#X obj 480 115 int;
#X obj 510 112 + 1;
#X obj 480 138 mod 4;
#X obj 464 98 bng 15 250 50 0 empty empty empty 17 7 0 10 -262144 -1
-1;
#X obj 524 139 sel 0 2 3;
#X obj 500 325 r snapVol;
#X obj 649 317 r blockVol;
#X msg 20 172 open beat/808Kick.wav \, 1;
#X msg 119 201 open beat/EmuRim.wav \, 1;
#X msg 289 196 open beat/808CHH.wav \, 1;
#X msg 482 195 open beat/Rhythm77Snap.wav \, 1;
#X msg 692 193 open beat/808Block.wav \, 1;
#X connect 1 0 0 0;
#X connect 1 1 2 0;
#X connect 2 0 41 0;
#X connect 2 1 42 0;
#X connect 2 1 37 0;
#X connect 2 2 43 0;
#X connect 2 3 44 0;
#X connect 2 4 45 0;
#X connect 3 0 9 0;
#X connect 4 0 8 0;
#X connect 5 0 12 0;
#X connect 6 0 10 0;
#X connect 7 0 11 0;
#X connect 8 0 27 0;
#X connect 9 0 27 0;
#X connect 10 0 27 0;
#X connect 11 0 27 0;
#X connect 12 0 27 0;
#X connect 13 0 1 0;
#X connect 14 0 10 1;
#X connect 15 0 9 1;
#X connect 16 0 8 1;
#X connect 17 0 18 0;
#X connect 20 0 19 0;
#X connect 22 0 21 0;
#X connect 24 0 23 0;
#X connect 26 0 25 0;
#X connect 27 0 30 0;
#X connect 28 0 27 1;
#X connect 30 0 32 0;
#X connect 31 0 30 1;
#X connect 32 0 29 0;
#X connect 33 0 32 1;
#X connect 34 0 35 0;
#X connect 34 0 36 0;
#X connect 35 0 34 1;
#X connect 36 0 38 0;
#X connect 37 0 34 0;
#X connect 38 0 44 0;
#X connect 38 1 45 0;
#X connect 38 2 45 0;
#X connect 39 0 11 1;
#X connect 40 0 12 1;
#X connect 41 0 4 0;
#X connect 41 0 17 0;
#X connect 42 0 3 0;
#X connect 42 0 20 0;
#X connect 43 0 6 0;
#X connect 43 0 22 0;
#X connect 44 0 7 0;
#X connect 44 0 24 0;
#X connect 45 0 5 0;
#X connect 45 0 26 0;
#X restore 82 478 pd processLSystem;
#N canvas 509 70 1281 640 beatfile_reader 0;
#X obj 254 573 textfile;
#X msg 279 479 bang;
#X obj 196 274 int;
#X obj 231 286 + 1;
#X obj 197 353 mod;
#X obj 212 329 r dyn_mod;
#X msg 144 468 rewind \, bang \, bang;
#X obj 113 185 metro;
#X msg 527 311 clear \, read L-Text/L0.txt \, rewind;
#X msg 528 342 clear \, read L-Text/L1.txt \, rewind;
#X msg 531 370 clear \, read L-Text/L2.txt \, rewind;
#X msg 533 399 clear \, read L-Text/L3.txt \, rewind;
#X msg 536 427 clear \, read L-Text/L4.txt \, rewind;
#X msg 533 457 clear \, read L-Text/L5.txt \, rewind;
#X msg 309 332 1;
#X msg 540 489 clear \, read L-Text/L6.txt \, rewind;
#X msg 544 519 clear \, read L-Text/L8.txt \, rewind;
#X obj 173 -48 r globalTempo;
#X obj 52 140 inlet;
#X obj 325 174 inlet;
#X text 299 355 rewind/replay;
#X msg 325 197 \$1;
#X text 367 190 (Note: Doesn't affect position in L-Text file);
#X text 369 176 Jump to index for use by other instruments;
#X text 548 284 Text files encoded by LGEN.py;
#X obj 177 619 outlet;
#X obj 206 379 outlet;
#X msg 535 547 clear \, read L-Text/L9.txt \, rewind;
#X obj 447 236 sel 0;
#X text 495 236 queue rewind;
#X obj 278 286 sel 0 10 250 620 1000 1500 3000;
#X obj 421 638 s changemod;
#X msg 408 599 3;
#X obj 170 47 tgl 15 0 empty empty empty 17 7 0 10 -262144 -1 -1 1
1;
#X msg 171 1 1;
#X msg 189 24 0;
#X obj 208 0 t b b b;
#X obj 171 -22 sel 1 0;
#X msg 230 28 200;
#X obj 184 95 float;
#X obj 170 67 metro 400;
#X floatatom 249 123 5 0 0 0 - - -;
#X msg 297 58 1;
#X obj 177 142 moses 125;
#X obj 250 182 moses 200;
#X obj 250 91 +;
#X text 297 5 Discretely oscillate between metro 125 and 200 while
game on;
#X msg 261 57 -0.2;
#X connect 0 0 25 0;
#X connect 1 0 0 0;
#X connect 2 0 3 0;
#X connect 2 0 4 0;
#X connect 3 0 2 1;
#X connect 4 0 26 0;
#X connect 4 0 30 0;
#X connect 5 0 4 1;
#X connect 6 0 0 0;
#X connect 7 0 2 0;
#X connect 8 0 0 0;
#X connect 9 0 0 0;
#X connect 10 0 0 0;
#X connect 11 0 0 0;
#X connect 12 0 0 0;
#X connect 13 0 0 0;
#X connect 14 0 2 1;
#X connect 15 0 0 0;
#X connect 16 0 0 0;
#X connect 17 0 37 0;
#X connect 18 0 7 0;
#X connect 19 0 21 0;
#X connect 21 0 2 1;
#X connect 21 0 28 0;
#X connect 27 0 0 0;
#X connect 28 0 27 0;
#X connect 30 0 6 0;
#X connect 30 0 14 0;
#X connect 30 1 11 0;
#X connect 30 2 32 0;
#X connect 30 2 12 0;
#X connect 30 3 16 0;
#X connect 30 4 15 0;
#X connect 30 5 13 0;
#X connect 30 6 12 0;
#X connect 30 7 1 0;
#X connect 32 0 31 0;
#X connect 33 0 40 0;
#X connect 34 0 33 0;
#X connect 35 0 33 0;
#X connect 36 0 39 0;
#X connect 36 1 38 0;
#X connect 36 2 35 0;
#X connect 37 0 34 0;
#X connect 37 1 36 0;
#X connect 38 0 39 1;
#X connect 39 0 7 1;
#X connect 39 0 41 0;
#X connect 39 0 43 0;
#X connect 39 0 44 0;
#X connect 39 0 45 0;
#X connect 40 0 39 0;
#X connect 41 0 43 0;
#X connect 41 0 44 0;
#X connect 42 0 45 1;
#X connect 43 0 42 0;
#X connect 44 1 47 0;
#X connect 45 0 39 1;
#X connect 47 0 45 1;
#X restore 141 402 pd beatfile_reader;
#X floatatom 283 408 5 0 0 3 index - globalIndex;
#N canvas 555 13 899 583 keyboard 0;
#X obj 92 11 inlet;
#X obj 123 84 sel 0;
#X obj 157 26 inlet;
#X obj 124 60 mod;
#X obj 123 107 int;
#X obj 151 107 + 1;
#X obj 128 147 mod 160;
#X text 183 80 Synced counter;
#X text 182 96 Scaled by second inlet;
#N canvas 921 69 857 593 voice_1 0;
#X obj 44 35 inlet;
#X obj 66 73 mod 40;
#X obj 53 152 sel 12 28;
#X obj 226 151 sel 20 36;
#X obj 560 146 sel 10 18 26 34;
#N canvas 0 50 477 450 play_sound 0;
#X obj 40 49 inlet;
#X obj 39 101 readsf~;
#X obj 45 165 *~;
#X obj 68 131 inlet;
#X obj 40 244 outlet~;
#X connect 0 0 1 0;
#X connect 1 0 2 0;
#X connect 2 0 4 0;
#X connect 3 0 2 1;
#X restore 96 286 pd play_sound;
#N canvas 0 50 450 300 play_sound 0;
#X obj 40 49 inlet;
#X obj 39 101 readsf~;
#X obj 45 165 *~;
#X obj 68 131 inlet;
#X obj 45 191 outlet~;
#X connect 0 0 1 0;
#X connect 1 0 2 0;
#X connect 2 0 4 0;
#X connect 3 0 2 1;
#X restore 243 289 pd play_sound;
#N canvas 0 50 450 300 play_sound 0;
#X obj 40 49 inlet;
#X obj 39 101 readsf~;
#X obj 45 165 *~;
#X obj 68 131 inlet;
#X obj 45 191 outlet~;
#X connect 0 0 1 0;
#X connect 1 0 2 0;
#X connect 2 0 4 0;
#X connect 3 0 2 1;
#X restore 391 290 pd play_sound;
#N canvas 0 50 450 300 play_sound 0;
#X obj 40 49 inlet;
#X obj 39 101 readsf~;
#X obj 45 165 *~;
#X obj 68 131 inlet;
#X obj 45 191 outlet~;
#X connect 0 0 1 0;
#X connect 1 0 2 0;
#X connect 2 0 4 0;
#X connect 3 0 2 1;
#X restore 553 291 pd play_sound;
#X obj 372 421 outlet~;
#X obj 355 234 inlet;
#X text 410 236 Volume;
#X obj 691 264 outlet;
#X obj 672 220 route 1;
#X obj 369 149 sel 11 19 27 35;
#X msg 70 182 open V1/Eb.wav \, 1;
#X msg 239 181 open V1/F.wav \, 1;
#X msg 407 186 open V1/Bb.wav \, 1;
#X msg 578 183 open V1/C.wav \, 1;
#X connect 0 0 1 0;
#X connect 1 0 2 0;
#X connect 1 0 3 0;
#X connect 1 0 4 0;
#X connect 1 0 14 0;
#X connect 2 0 15 0;
#X connect 2 1 15 0;
#X connect 3 0 16 0;
#X connect 3 1 16 0;
#X connect 4 0 18 0;
#X connect 4 1 18 0;
#X connect 4 2 18 0;
#X connect 4 3 18 0;
#X connect 5 0 9 0;
#X connect 6 0 9 0;
#X connect 7 0 9 0;
#X connect 8 0 9 0;
#X connect 10 0 5 1;
#X connect 10 0 6 1;
#X connect 10 0 8 1;
#X connect 10 0 7 1;
#X connect 13 0 12 0;
#X connect 14 0 17 0;
#X connect 14 1 17 0;
#X connect 14 2 17 0;
#X connect 14 3 17 0;
#X connect 15 0 5 0;
#X connect 15 0 13 0;
#X connect 16 0 6 0;
#X connect 16 0 13 0;
#X connect 17 0 7 0;
#X connect 17 0 13 0;
#X connect 18 0 8 0;
#X connect 18 0 13 0;
#X restore 152 277 pd voice_1;
#N canvas 708 452 1080 844 bass 0;
#X obj 264 35 inlet;
#X obj 422 470 outlet~;
#N canvas 0 50 450 300 play_sound 0;
#X obj 40 49 inlet;
#X obj 39 101 readsf~;
#X obj 45 165 *~;
#X obj 68 131 inlet;
#X obj 45 213 outlet~;
#X connect 0 0 1 0;
#X connect 1 0 2 0;
#X connect 2 0 4 0;
#X connect 3 0 2 1;
#X restore 31 390 pd play_sound;
#N canvas 0 50 450 300 play_sound 0;
#X obj 40 49 inlet;
#X obj 39 101 readsf~;
#X obj 45 165 *~;
#X obj 68 131 inlet;
#X obj 45 191 outlet~;
#X connect 0 0 1 0;
#X connect 1 0 2 0;
#X connect 2 0 4 0;
#X connect 3 0 2 1;
#X restore 21 417 pd play_sound;
#X obj 446 249 inlet;
#X obj 944 376 outlet;
#X obj 33 126 mod 5;
#X obj 291 132 mod 7;
#X obj 266 64 moses 80;
#X obj 107 80 moses 40;
#X obj 942 348 route 1;
#N canvas 0 50 450 300 play_sound 0;
#X obj 40 49 inlet;
#X obj 39 101 readsf~;
#X obj 45 165 *~;
#X obj 68 131 inlet;
#X obj 45 191 outlet~;
#X connect 0 0 1 0;
#X connect 1 0 2 0;
#X connect 2 0 4 0;
#X connect 3 0 2 1;
#X restore 365 363 pd play_sound;
#N canvas 0 50 450 300 play_sound 0;
#X obj 40 49 inlet;
#X obj 39 101 readsf~;
#X obj 45 165 *~;
#X obj 68 131 inlet;
#X obj 45 191 outlet~;
#X connect 0 0 1 0;
#X connect 1 0 2 0;
#X connect 2 0 4 0;
#X connect 3 0 2 1;
#X restore 355 390 pd play_sound;
#N canvas 0 50 450 300 play_sound 0;
#X obj 40 49 inlet;
#X obj 39 101 readsf~;
#X obj 45 165 *~;
#X obj 68 131 inlet;
#X obj 45 191 outlet~;
#X connect 0 0 1 0;
#X connect 1 0 2 0;
#X connect 2 0 4 0;
#X connect 3 0 2 1;
#X restore 673 386 pd play_sound;
#N canvas 0 50 450 300 play_sound 0;
#X obj 40 49 inlet;
#X obj 39 101 readsf~;
#X obj 45 165 *~;
#X obj 68 131 inlet;
#X obj 45 191 outlet~;
#X connect 0 0 1 0;
#X connect 1 0 2 0;
#X connect 2 0 4 0;
#X connect 3 0 2 1;
#X restore 523 386 pd play_sound;
#N canvas 0 50 450 300 play_sound 0;
#X obj 40 49 inlet;
#X obj 39 101 readsf~;
#X obj 45 165 *~;
#X obj 68 131 inlet;
#X obj 45 191 outlet~;
#X connect 0 0 1 0;
#X connect 1 0 2 0;
#X connect 2 0 4 0;
#X connect 3 0 2 1;
#X restore 841 394 pd play_sound;
#X obj 450 125 mod 4;
#N canvas 0 50 450 300 play_sound 0;
#X obj 40 49 inlet;
#X obj 39 101 readsf~;
#X obj 45 165 *~;
#X obj 68 131 inlet;
#X obj 45 213 outlet~;
#X connect 0 0 1 0;
#X connect 1 0 2 0;
#X connect 2 0 4 0;
#X connect 3 0 2 1;
#X restore 70 330 pd play_sound;
#X obj 33 149 sel 0 2 4;
#X obj 65 248 int;
#X obj 92 249 + 1;
#X obj 65 271 mod 4;
#X obj 44 339 bng 15 250 50 0 empty empty empty 17 7 0 10 -262144 -1
-1;
#X obj 25 249 bng 15 250 50 0 empty empty empty 17 7 0 10 -262144 -1
-1;
#X obj 286 153 sel 0 1 5;
#X obj 104 270 moses 2;
#X obj 451 152 sel 0 3;
#X msg 37 191 open bass/Bb.wav \, 1;
#X msg 19 221 open bass/Bb.wav \, 1;
#X msg 441 195 open bass/Bb.wav \, 1;
#X msg 604 197 open bass/Bb.wav \, 1;
#X msg 769 194 open bass/Bb.wav \, 1;
#X msg 315 193 open bass/G.wav \, 1;
#X msg 196 211 open bass/D.wav \, 1;
#X msg 181 298 open bass/G.wav \, 1;
#X msg 42 300 open bass/Ab.wav \, 1;
#X connect 0 0 8 0;
#X connect 2 0 1 0;
#X connect 3 0 1 0;
#X connect 4 0 3 1;
#X connect 4 0 11 1;
#X connect 4 0 12 1;
#X connect 4 0 14 1;
#X connect 4 0 13 1;
#X connect 4 0 15 1;
#X connect 4 0 2 1;
#X connect 4 0 17 1;
#X connect 6 0 18 0;
#X connect 7 0 24 0;
#X connect 8 0 9 0;
#X connect 8 1 7 0;
#X connect 8 1 16 0;
#X connect 9 0 6 0;
#X connect 9 1 7 0;
#X connect 9 1 6 0;
#X connect 10 0 5 0;
#X connect 11 0 1 0;
#X connect 12 0 1 0;
#X connect 13 0 1 0;
#X connect 14 0 1 0;
#X connect 15 0 1 0;
#X connect 16 0 26 0;
#X connect 17 0 1 0;
#X connect 18 0 28 0;
#X connect 18 2 27 0;
#X connect 19 0 20 0;
#X connect 19 0 21 0;
#X connect 20 0 19 1;
#X connect 21 0 25 0;
#X connect 24 0 33 0;
#X connect 24 2 32 0;
#X connect 25 0 35 0;
#X connect 25 1 34 0;
#X connect 26 0 29 0;
#X connect 26 1 30 0;
#X connect 27 0 10 0;
#X connect 27 0 2 0;
#X connect 28 0 3 0;
#X connect 28 0 10 0;
#X connect 28 0 23 0;
#X connect 29 0 14 0;
#X connect 29 0 10 0;
#X connect 30 0 13 0;
#X connect 30 0 10 0;
#X connect 31 0 15 0;
#X connect 31 0 10 0;
#X connect 32 0 11 0;
#X connect 32 0 10 0;
#X connect 33 0 12 0;
#X connect 33 0 10 0;
#X connect 34 0 17 0;
#X connect 35 0 22 0;
#X connect 35 0 17 0;
#X restore 18 277 pd bass;
#N canvas 490 364 1219 593 voice_2 0;
#X obj 44 35 inlet;
#X obj 74 120 mod 40;
#X obj 230 227 mod 2;
#X obj 44 61 moses 87;
#X obj 80 91 - 82;
#X obj 216 195 sel 18 34;
#X obj 175 227 sel 0;
#X obj 352 178 sel 7 15 19 23 31 35 39;
#X obj 571 178 sel 9 18 25 34;
#X obj 752 172 sel 17 33;
#N canvas 0 50 450 300 play_sound 0;
#X obj 40 49 inlet;
#X obj 39 101 readsf~;
#X obj 45 165 *~;
#X obj 68 131 inlet;
#X obj 45 191 outlet~;
#X connect 0 0 1 0;
#X connect 1 0 2 0;
#X connect 2 0 4 0;
#X connect 3 0 2 1;
#X restore 26 363 pd play_sound;
#N canvas 0 50 450 300 play_sound 0;
#X obj 40 49 inlet;
#X obj 39 101 readsf~;
#X obj 45 165 *~;
#X obj 68 131 inlet;
#X obj 45 191 outlet~;
#X connect 0 0 1 0;
#X connect 1 0 2 0;
#X connect 2 0 4 0;
#X connect 3 0 2 1;
#X restore 178 375 pd play_sound;
#N canvas 0 50 450 300 play_sound 0;
#X obj 40 49 inlet;
#X obj 39 101 readsf~;
#X obj 45 165 *~;
#X obj 68 131 inlet;
#X obj 45 191 outlet~;
#X connect 0 0 1 0;
#X connect 1 0 2 0;
#X connect 2 0 4 0;
#X connect 3 0 2 1;
#X restore 378 392 pd play_sound;
#N canvas 0 50 450 300 play_sound 0;
#X obj 40 49 inlet;
#X obj 39 101 readsf~;
#X obj 45 165 *~;
#X obj 68 131 inlet;
#X obj 45 191 outlet~;
#X connect 0 0 1 0;
#X connect 1 0 2 0;
#X connect 2 0 4 0;
#X connect 3 0 2 1;
#X restore 578 391 pd play_sound;
#X obj 391 528 outlet~;
#N canvas 0 50 450 300 play_sound 0;
#X obj 40 49 inlet;
#X obj 39 101 readsf~;
#X obj 45 165 *~;
#X obj 68 131 inlet;
#X obj 45 191 outlet~;
#X connect 0 0 1 0;
#X connect 1 0 2 0;
#X connect 2 0 4 0;
#X connect 3 0 2 1;
#X restore 751 392 pd play_sound;
#X text 125 77 Make nice offset;
#X text 152 251 x : x>5 \, x%2==0 \, [18 \, 34];
#X obj 444 342 inlet;
#X text 492 342 Volume;
#X obj 890 373 outlet;
#X obj 871 329 route 1;
#X obj 154 196 moses 8;
#X obj 12 176 sel 11 27;
#X msg 28 288 open V2/C.wav \, 1;
#X msg 174 290 open V2/D.wav \, 1;
#X msg 377 282 open V2/Eb.wav \, 1;
#X msg 598 289 open V2/G.wav \, 1;
#X msg 768 288 open V2/Bb.wav \, 1;
#X connect 0 0 3 0;
#X connect 1 0 7 0;
#X connect 1 0 8 0;
#X connect 1 0 9 0;
#X connect 1 0 22 0;
#X connect 1 0 23 0;
#X connect 2 0 6 0;
#X connect 3 1 4 0;
#X connect 4 0 1 0;
#X connect 5 2 2 0;
#X connect 6 0 25 0;
#X connect 7 0 26 0;
#X connect 7 1 26 0;
#X connect 7 2 26 0;
#X connect 7 3 26 0;
#X connect 7 4 26 0;
#X connect 7 5 26 0;
#X connect 7 6 26 0;
#X connect 8 0 27 0;
#X connect 8 1 27 0;
#X connect 8 2 27 0;
#X connect 8 3 27 0;
#X connect 9 0 28 0;
#X connect 9 1 28 0;
#X connect 10 0 14 0;
#X connect 11 0 14 0;
#X connect 12 0 14 0;
#X connect 13 0 14 0;
#X connect 15 0 14 0;
#X connect 18 0 10 1;
#X connect 18 0 11 1;
#X connect 18 0 13 1;
#X connect 18 0 12 1;
#X connect 18 0 15 1;
#X connect 21 0 20 0;
#X connect 22 1 5 0;
#X connect 23 0 24 0;
#X connect 23 1 24 0;
#X connect 24 0 10 0;
#X connect 24 0 21 0;
#X connect 25 0 11 0;
#X connect 25 0 21 0;
#X connect 26 0 12 0;
#X connect 26 0 21 0;
#X connect 27 0 13 0;
#X connect 27 0 21 0;
#X connect 28 0 15 0;
#X connect 28 0 21 0;
#X restore 328 278 pd voice_2;
#N canvas 566 46 597 479 FX 0;
#X obj 30 303 outlet~;
#X obj 31 25 inlet~;
#N canvas 0 23 740 505 reverb 0;
#X obj 162 49 inlet~;
#X obj 144 364 outlet~;
#X floatatom 444 156 0 0 120 0 - - -;
#X text 485 156 level \, dB;
#X floatatom 472 173 0 0 100 0 - - -;
#X text 513 173 liveness \, 0-100;
#X floatatom 507 197 4 0 5000 0 - - -;
#X floatatom 542 220 0 0 100 0 - - -;
#X text 555 195 crossover frequency \, Hz.;
#X text 578 222 HF damping \, percent;
#X obj 235 233 rev3~ 100 90 3000 20;
#X obj 247 331 *~;
#X floatatom 317 299 5 0 0 0 - - -;
#X obj 26 288 *~;
#X floatatom 66 261 5 0 0 0 - - -;
#X text 355 299 wet reverb signal;
#X text 103 264 "dry" signal;
#X floatatom 410 59 5 0 0 0 - - -;
#X obj 250 87 expr 1 - $f1;
#X obj 438 31 inlet;
#X connect 0 0 13 0;
#X connect 0 0 10 0;
#X connect 2 0 10 2;
#X connect 4 0 10 3;
#X connect 6 0 10 4;
#X connect 7 0 10 5;
#X connect 10 0 11 0;
#X connect 10 1 11 0;
#X connect 10 2 11 0;
#X connect 10 3 11 0;
#X connect 11 0 1 0;
#X connect 12 0 11 1;
#X connect 13 0 1 0;
#X connect 14 0 13 1;
#X connect 17 0 12 0;
#X connect 17 0 18 0;
#X connect 18 0 14 0;
#X connect 19 0 17 0;
#X restore 32 215 pd reverb;
#N canvas 52 386 661 298 delayLine 0;
#X floatatom 323 92 5 0 0 0 - - -;
#X obj 308 151 +~;
#X obj 107 28 inlet~;
#X obj 352 262 outlet~;
#X obj 155 256 *~;
#X floatatom 170 219 5 0 0 0 - - -;
#X obj 350 45 inlet;
#X obj 195 184 inlet;
#X obj 36 147 delwrite~ bassdel_line 2000;
#X obj 323 121 delread4~ bassdel_line;
#X connect 0 0 9 0;
#X connect 1 0 3 0;
#X connect 1 0 4 0;
#X connect 2 0 1 0;
#X connect 2 0 8 0;
#X connect 4 0 8 0;
#X connect 5 0 4 1;
#X connect 6 0 0 0;
#X connect 7 0 5 0;
#X connect 9 0 1 1;
#X restore 31 102 pd delayLine;
#X obj 71 51 receive bassDelayFB;
#X obj 112 77 receive bassDelayTime;
#X obj 92 185 receive bassReverb;
#X text 283 34 Must set new name for delwrite;
#X text 277 57 For each instance of delayLine;
#X connect 1 0 3 0;
#X connect 2 0 0 0;
#X connect 3 0 2 0;
#X connect 4 0 3 1;
#X connect 5 0 3 2;
#X connect 6 0 2 1;
#X restore 62 453 pd FX;
#X obj 60 255 r bassVol;
#X obj 237 279 bng 15 250 50 0 empty empty empty 17 7 0 10 -262144
-1 -1;
#X obj 413 281 bng 15 250 50 0 empty empty empty 17 7 0 10 -262144
-1 -1;
#X obj 86 279 bng 15 250 50 0 empty empty empty 17 7 0 10 -262144 -1
-1;
#N canvas 0 50 569 416 FX 0;
#X obj 30 303 outlet~;
#X obj 31 25 inlet~;
#N canvas 0 23 740 505 reverb 0;
#X obj 162 49 inlet~;
#X obj 144 364 outlet~;
#X floatatom 444 156 0 0 120 0 - - -;
#X text 485 156 level \, dB;
#X floatatom 472 173 0 0 100 0 - - -;
#X text 513 173 liveness \, 0-100;
#X floatatom 507 197 4 0 5000 0 - - -;
#X floatatom 542 220 0 0 100 0 - - -;
#X text 555 195 crossover frequency \, Hz.;
#X text 578 222 HF damping \, percent;
#X obj 235 233 rev3~ 100 90 3000 20;
#X obj 247 331 *~;
#X floatatom 317 299 5 0 0 0 - - -;
#X obj 26 288 *~;
#X floatatom 66 261 5 0 0 0 - - -;
#X text 355 299 wet reverb signal;
#X text 103 264 "dry" signal;
#X floatatom 410 59 5 0 0 0 - - -;
#X obj 250 87 expr 1 - $f1;
#X obj 438 31 inlet;
#X connect 0 0 13 0;
#X connect 0 0 10 0;
#X connect 2 0 10 2;
#X connect 4 0 10 3;
#X connect 6 0 10 4;
#X connect 7 0 10 5;
#X connect 10 0 11 0;
#X connect 10 1 11 0;
#X connect 10 2 11 0;
#X connect 10 3 11 0;
#X connect 11 0 1 0;
#X connect 12 0 11 1;
#X connect 13 0 1 0;
#X connect 14 0 13 1;
#X connect 17 0 12 0;
#X connect 17 0 18 0;
#X connect 18 0 14 0;
#X connect 19 0 17 0;
#X restore 32 215 pd reverb;
#N canvas 52 386 661 298 delayLine 0;
#X floatatom 323 92 5 0 0 0 - - -;
#X obj 308 151 +~;
#X obj 107 28 inlet~;
#X obj 352 262 outlet~;
#X obj 155 256 *~;
#X floatatom 170 219 5 0 0 0 - - -;
#X obj 350 45 inlet;
#X obj 36 147 delwrite~ V1del_line 2000;
#X obj 323 121 delread4~ V1del_line;
#X obj 195 184 inlet;
#X connect 0 0 8 0;
#X connect 1 0 3 0;
#X connect 1 0 4 0;
#X connect 2 0 1 0;
#X connect 2 0 7 0;
#X connect 4 0 7 0;
#X connect 5 0 4 1;
#X connect 6 0 0 0;
#X connect 8 0 1 1;
#X connect 9 0 5 0;
#X restore 31 102 pd delayLine;
#X obj 71 51 receive V1DelayFB;
#X obj 112 77 receive V1DelayTime;
#X obj 92 185 receive V1Reverb;
#X connect 1 0 3 0;
#X connect 2 0 0 0;
#X connect 3 0 2 0;
#X connect 4 0 3 1;
#X connect 5 0 3 2;
#X connect 6 0 2 1;
#X restore 184 448 pd FX;
#N canvas 279 233 550 550 FX 0;
#X obj 30 303 outlet~;
#X obj 31 25 inlet~;
#N canvas 0 23 740 505 reverb 0;
#X obj 162 49 inlet~;
#X obj 144 364 outlet~;
#X floatatom 444 156 0 0 120 0 - - -;
#X text 485 156 level \, dB;
#X floatatom 472 173 0 0 100 0 - - -;
#X text 513 173 liveness \, 0-100;
#X floatatom 507 197 4 0 5000 0 - - -;
#X floatatom 542 220 0 0 100 0 - - -;
#X text 555 195 crossover frequency \, Hz.;
#X text 578 222 HF damping \, percent;
#X obj 235 233 rev3~ 100 90 3000 20;
#X obj 247 331 *~;
#X floatatom 317 299 5 0 0 0 - - -;
#X obj 26 288 *~;
#X floatatom 66 261 5 0 0 0 - - -;
#X text 355 299 wet reverb signal;
#X text 103 264 "dry" signal;
#X floatatom 410 59 5 0 0 0 - - -;
#X obj 250 87 expr 1 - $f1;
#X obj 438 31 inlet;
#X connect 0 0 13 0;
#X connect 0 0 10 0;
#X connect 2 0 10 2;
#X connect 4 0 10 3;
#X connect 6 0 10 4;
#X connect 7 0 10 5;
#X connect 10 0 11 0;
#X connect 10 1 11 0;
#X connect 10 2 11 0;
#X connect 10 3 11 0;
#X connect 11 0 1 0;
#X connect 12 0 11 1;
#X connect 13 0 1 0;
#X connect 14 0 13 1;
#X connect 17 0 12 0;
#X connect 17 0 18 0;
#X connect 18 0 14 0;
#X connect 19 0 17 0;
#X restore 32 215 pd reverb;
#X obj 92 185 receive V2Reverb;
#N canvas 52 386 661 298 delayLine 0;
#X floatatom 323 92 5 0 0 0 - - -;
#X obj 308 151 +~;
#X obj 107 28 inlet~;
#X obj 352 262 outlet~;
#X obj 155 256 *~;
#X floatatom 170 219 5 0 0 0 - - -;
#X obj 350 45 inlet;
#X obj 195 184 inlet;
#X obj 36 147 delwrite~ V2del_line 2000;
#X obj 323 121 delread4~ V2del_line;
#X connect 0 0 9 0;
#X connect 1 0 3 0;
#X connect 1 0 4 0;
#X connect 2 0 1 0;
#X connect 2 0 8 0;
#X connect 4 0 8 0;
#X connect 5 0 4 1;
#X connect 6 0 0 0;
#X connect 7 0 5 0;
#X connect 9 0 1 1;
#X restore 31 102 pd delayLine;
#X obj 112 77 receive V2DelayTime;
#X obj 71 51 receive V2DelayFB;
#X text 283 34 Must set new name for delwrite;
#X text 277 57 For each instance of delayLine;
#X connect 1 0 4 0;
#X connect 2 0 0 0;
#X connect 3 0 2 1;
#X connect 4 0 2 0;
#X connect 5 0 4 2;
#X connect 6 0 4 1;
#X restore 283 449 pd FX;
#X obj 206 255 r V1Vol;
#X obj 406 233 r V2Vol;
#X obj 155 507 outlet~;
#X obj 135 353 *~;
#X obj 251 370 r keyVol;
#X obj 135 383 *~;
#N canvas 0 50 450 300 VolScale 0;
#X obj 28 22 r globalVol;
#X obj 28 68 line;
#X obj 28 91 outlet~;
#X msg 28 45 \$1 500;
#X connect 0 0 3 0;
#X connect 1 0 2 0;
#X connect 3 0 1 0;
#X restore 164 384 pd VolScale;
#X obj 382 435 hsl 128 15 0.5 100 0 1 V1Distortion V1Distortion Distortion_Amount
-2 -8 0 10 -262144 -1 -1 0 1;
#X text 394 390 Disabled from FX;
#X obj 74 48 sel 0;
#X msg 65 80 0;
#X obj 127 172 + 0;
#N canvas 180 383 1461 879 jumpvoice 0;
#N canvas 0 50 450 300 play_sound 0;
#X obj 40 49 inlet;
#X obj 39 101 readsf~;
#X obj 45 165 *~;
#X obj 68 131 inlet;
#X obj 45 191 outlet~;
#X connect 0 0 1 0;
#X connect 1 0 2 0;
#X connect 2 0 4 0;
#X connect 3 0 2 1;
#X restore 167 470 pd play_sound;
#N canvas 0 50 450 300 play_sound 0;
#X obj 40 49 inlet;
#X obj 39 101 readsf~;
#X obj 45 165 *~;
#X obj 68 131 inlet;
#X obj 45 191 outlet~;
#X connect 0 0 1 0;
#X connect 1 0 2 0;
#X connect 2 0 4 0;
#X connect 3 0 2 1;
#X restore 397 528 pd play_sound;
#N canvas 0 50 450 300 play_sound 0;
#X obj 40 49 inlet;
#X obj 39 101 readsf~;
#X obj 45 165 *~;
#X obj 68 131 inlet;
#X obj 45 191 outlet~;
#X connect 0 0 1 0;
#X connect 1 0 2 0;
#X connect 2 0 4 0;
#X connect 3 0 2 1;
#X restore 654 532 pd play_sound;
#N canvas 0 50 450 300 play_sound 0;
#X obj 40 49 inlet;
#X obj 39 101 readsf~;
#X obj 45 165 *~;
#X obj 68 131 inlet;
#X obj 45 191 outlet~;
#X connect 0 0 1 0;
#X connect 1 0 2 0;
#X connect 2 0 4 0;
#X connect 3 0 2 1;
#X restore 809 529 pd play_sound;
#N canvas 0 50 450 300 play_sound 0;
#X obj 40 49 inlet;
#X obj 39 101 readsf~;
#X obj 45 165 *~;
#X obj 68 131 inlet;
#X obj 45 191 outlet~;
#X connect 0 0 1 0;
#X connect 1 0 2 0;
#X connect 2 0 4 0;
#X connect 3 0 2 1;
#X restore 989 484 pd play_sound;
#X obj 598 354 inlet;
#X msg 224 374 open V2/C.wav \, 1;
#X msg 414 389 open V2/D.wav \, 1;
#X msg 645 394 open V2/Eb.wav \, 1;
#X msg 800 375 open V2/G.wav \, 1;
#X msg 970 374 open V2/Bb.wav \, 1;
#N canvas 0 50 477 450 play_sound 0;
#X obj 40 49 inlet;
#X obj 39 101 readsf~;
#X obj 45 165 *~;
#X obj 68 131 inlet;
#X obj 40 244 outlet~;
#X connect 0 0 1 0;
#X connect 1 0 2 0;
#X connect 2 0 4 0;
#X connect 3 0 2 1;
#X restore 732 485 pd play_sound;
#N canvas 0 50 450 300 play_sound 0;
#X obj 40 49 inlet;
#X obj 39 101 readsf~;
#X obj 45 165 *~;
#X obj 68 131 inlet;
#X obj 45 191 outlet~;
#X connect 0 0 1 0;
#X connect 1 0 2 0;
#X connect 2 0 4 0;
#X connect 3 0 2 1;
#X restore 900 471 pd play_sound;
#N canvas 0 50 450 300 play_sound 0;
#X obj 40 49 inlet;
#X obj 39 101 readsf~;
#X obj 45 165 *~;
#X obj 68 131 inlet;
#X obj 45 191 outlet~;
#X connect 0 0 1 0;
#X connect 1 0 2 0;
#X connect 2 0 4 0;
#X connect 3 0 2 1;
#X restore 1097 492 pd play_sound;
#N canvas 0 50 450 300 play_sound 0;
#X obj 40 49 inlet;
#X obj 39 101 readsf~;
#X obj 45 165 *~;
#X obj 68 131 inlet;
#X obj 45 191 outlet~;
#X connect 0 0 1 0;
#X connect 1 0 2 0;
#X connect 2 0 4 0;
#X connect 3 0 2 1;
#X restore 1249 475 pd play_sound;
#X msg 723 328 open V1/Eb.wav \, 1;
#X msg 892 327 open V1/F.wav \, 1;
#X msg 1060 332 open V1/Bb.wav \, 1;
#X msg 1231 329 open V1/C.wav \, 1;
#X obj 615 792 outlet~;
#N canvas 0 50 450 300 play_sound 0;
#X obj 40 49 inlet;
#X obj 39 101 readsf~;
#X obj 45 165 *~;
#X obj 68 131 inlet;
#X obj 45 191 outlet~;
#X connect 0 0 1 0;
#X connect 1 0 2 0;
#X connect 2 0 4 0;
#X connect 3 0 2 1;
#X restore 433 483 pd play_sound;
#N canvas 0 50 450 300 play_sound 0;
#X obj 40 49 inlet;
#X obj 39 101 readsf~;
#X obj 45 165 *~;
#X obj 68 131 inlet;
#X obj 45 191 outlet~;
#X connect 0 0 1 0;
#X connect 1 0 2 0;
#X connect 2 0 4 0;
#X connect 3 0 2 1;
#X restore 287 508 pd play_sound;
#N canvas 0 50 450 300 play_sound 0;
#X obj 40 49 inlet;
#X obj 39 101 readsf~;
#X obj 45 165 *~;
#X obj 68 131 inlet;
#X obj 45 191 outlet~;
#X connect 0 0 1 0;
#X connect 1 0 2 0;
#X connect 2 0 4 0;
#X connect 3 0 2 1;
#X restore 539 502 pd play_sound;
#N canvas 0 50 450 300 play_sound 0;
#X obj 40 49 inlet;
#X obj 39 101 readsf~;
#X obj 45 165 *~;
#X obj 68 131 inlet;
#X obj 45 213 outlet~;
#X connect 0 0 1 0;
#X connect 1 0 2 0;
#X connect 2 0 4 0;
#X connect 3 0 2 1;
#X restore 40 433 pd play_sound;
#X msg 566 323 open bass/Bb.wav \, 1;
#X msg 427 321 open bass/G.wav \, 1;
#X msg 302 315 open bass/D.wav \, 1;
#X msg 168 316 open bass/G.wav \, 1;
#X msg 26 312 open bass/Ab.wav \, 1;
#X obj 569 138 random 14;
#X obj 569 161 sel 0 1 2 3 4 5 6 7 8 9 10 11 12 13;
#X obj 569 37 r jumpTrig;
#X obj 569 59 int;
#X obj 596 60 + 1;
#X obj 569 105 sel 0;
#X obj 569 82 mod 3;
#X connect 0 0 19 0;
#X connect 1 0 19 0;
#X connect 2 0 19 0;
#X connect 3 0 19 0;
#X connect 4 0 19 0;
#X connect 5 0 0 1;
#X connect 5 0 1 1;
#X connect 5 0 3 1;
#X connect 5 0 2 1;
#X connect 5 0 4 1;
#X connect 5 0 11 1;
#X connect 5 0 12 1;
#X connect 5 0 13 1;
#X connect 5 0 14 1;
#X connect 5 0 23 1;
#X connect 5 0 21 1;
#X connect 5 0 20 1;
#X connect 5 0 22 1;
#X connect 6 0 0 0;
#X connect 7 0 1 0;
#X connect 8 0 2 0;
#X connect 9 0 3 0;
#X connect 10 0 4 0;
#X connect 11 0 19 0;
#X connect 12 0 19 0;
#X connect 13 0 19 0;
#X connect 14 0 19 0;
#X connect 15 0 11 0;
#X connect 16 0 12 0;
#X connect 17 0 13 0;
#X connect 18 0 14 0;
#X connect 20 0 19 0;
#X connect 21 0 19 0;
#X connect 22 0 19 0;
#X connect 23 0 19 0;
#X connect 24 0 22 0;
#X connect 25 0 20 0;
#X connect 26 0 21 0;
#X connect 27 0 23 0;
#X connect 28 0 23 0;
#X connect 29 0 30 0;
#X connect 30 0 28 0;
#X connect 30 1 27 0;
#X connect 30 2 6 0;
#X connect 30 3 26 0;
#X connect 30 4 25 0;
#X connect 30 5 7 0;
#X connect 30 6 24 0;
#X connect 30 7 8 0;
#X connect 30 8 15 0;
#X connect 30 9 9 0;
#X connect 30 10 16 0;
#X connect 30 11 10 0;
#X connect 30 12 17 0;
#X connect 30 13 18 0;
#X connect 31 0 32 0;
#X connect 32 0 33 0;
#X connect 32 0 35 0;
#X connect 33 0 32 1;
#X connect 34 0 29 0;
#X connect 35 0 34 0;
#X restore 514 301 pd jumpvoice;
#X connect 0 0 3 0;
#X connect 0 0 28 0;
#X connect 1 0 4 0;
#X connect 2 0 3 1;
#X connect 3 0 1 0;
#X connect 4 0 5 0;
#X connect 4 0 6 0;
#X connect 5 0 4 1;
#X connect 6 0 30 0;
#X connect 9 0 22 0;
#X connect 9 1 14 0;
#X connect 10 0 22 0;
#X connect 10 1 16 0;
#X connect 11 0 22 0;
#X connect 11 1 15 0;
#X connect 12 0 21 0;
#X connect 13 0 10 1;
#X connect 17 0 21 0;
#X connect 18 0 21 0;
#X connect 19 0 9 1;
#X connect 20 0 11 1;
#X connect 22 0 24 0;
#X connect 23 0 22 1;
#X connect 24 0 12 0;
#X connect 24 0 17 0;
#X connect 24 0 18 0;
#X connect 25 0 24 1;
#X connect 28 0 29 0;
#X connect 29 0 4 1;
#X connect 30 0 10 0;
#X connect 30 0 9 0;
#X connect 30 0 11 0;
#X restore 213 482 pd keyboard;
#X obj 392 446 inlet;
#X text 252 352 Change index of counter;
#N canvas 55 403 755 448 noteMessages 0;
#X obj 234 201 oscformat PD message;
#X msg 266 162 set PD message;
#X obj 234 236 s oscOut;
#X text 233 93 ascii code (p);
#X msg 237 128 112;
#X connect 0 0 2 0;
#X connect 1 0 0 0;
#X connect 4 0 0 0;
#X restore 800 151 pd noteMessages;
#X obj 248 195 loadbang;
#X text 306 193 init restart;
#X obj 206 104 cnv 15 20 20 empty empty Start/Stop_instructions 20
12 0 14 -204786 -66577 0;
#X obj 453 366 cnv 15 20 20 empty empty Instruments 20 12 0 20 -204800
-66577 0;
#X text 440 458 Modulus for;
#X text 373 475 spacing keyboard notes;
#X obj 343 419 loadbang;
#X obj 701 545 s OnOffLine;
#X obj 201 568 outlet~;
#X obj 695 390 r beatToggle;
#X msg 265 374 0, f 2;
#X msg 296 375 240;
#X text 798 207 Abandoned (too annoying);
#X msg 736 487 1 10000;
#X msg 672 483 0 1000;
#X text 813 120 For future;
#X obj 415 102 cnv 15 350 200 empty empty Tempo_Control 225 20 0 14
-232576 -66577 0;
#X text 567 153 Tempo Choice Fast to Slow;
#X obj 522 252 s globalTempo;
#X obj 476 147 r beatToggle;
#X obj 476 170 sel 0 1;
#X obj 551 184 loadbang;
#X msg 343 441 4;
#X msg 463 213 1;
#X msg 506 213 0;
#X connect 6 0 9 1;
#X connect 6 0 19 0;
#X connect 7 0 6 0;
#X connect 8 0 6 0;
#X connect 9 0 10 0;
#X connect 10 0 8 0;
#X connect 11 0 12 0;
#X connect 12 0 7 0;
#X connect 12 1 9 0;
#X connect 12 2 13 0;
#X connect 13 0 19 1;
#X connect 15 0 32 0;
#X connect 16 0 39 0;
#X connect 16 1 38 0;
#X connect 18 0 33 0;
#X connect 19 0 18 0;
#X connect 19 1 21 0;
#X connect 19 1 20 0;
#X connect 21 0 33 0;
#X connect 22 0 21 1;
#X connect 25 0 13 0;
#X connect 31 0 47 0;
#X connect 34 0 16 0;
#X connect 35 0 19 1;
#X connect 36 0 19 1;
#X connect 38 0 15 0;
#X connect 39 0 15 0;
#X connect 44 0 45 0;
#X connect 45 0 49 0;
#X connect 45 1 48 0;
#X connect 46 0 49 0;
#X connect 47 0 21 1;
#X connect 48 0 43 0;
#X connect 49 0 43 0;
#X restore 700 301 pd MainController;
#N canvas 0 50 450 300 write_file 0;
#X obj 104 142 writesf~ 2;
#X msg 139 63 stop, f 5;
#X obj 53 63 inlet~;
#X msg 213 63 open L-beattmp.wav \, start;
#X obj 184 3 inlet;
#X obj 185 31 route stop record;
#X connect 1 0 0 0;
#X connect 2 0 0 0;
#X connect 2 0 0 1;
#X connect 3 0 0 0;
#X connect 4 0 5 0;
#X connect 5 0 1 0;
#X connect 5 1 3 0;
#X restore 757 360 pd write_file;
#X msg 862 336 stop;
#X msg 807 334 record;
#X msg 811 260 2;
#X msg 843 257 3;
#X obj 702 367 dac~;
#X obj 846 284 r changemod;
#X obj 829 148 r initTrig;
#X obj 718 192 t b b;
#X obj 683 163 sel 0;
#X obj 683 135 r audioTrig;
#X obj 829 171 t b b b;
#X msg 865 203 0;
#X obj 865 226 s beatToggle;
#X obj 749 165 r replaymsc;
#X obj 482 82 cnv 15 150 300 empty empty USER_CONTROLS 20 12 0 14 -204786
-66577 0;
#X obj 507 130 hsl 100 15 0 1 0 1 globalVol globalVol Music_Volume
-2 -8 0 10 -262144 -1 -1 7400 1;
#X obj 516 233 tgl 15 0 beatToggle beatToggle Beat_toggle 20 10 0 10
-262144 -1 -1 1 1;
#N canvas 136 495 887 512 soundeffects 0;
#N canvas 692 140 450 300 damage 0;
#X obj 83 34 inlet;
#X obj 71 208 phasor~;
#X obj 65 358 dac~;
#X obj 81 264 *~;
#X obj 131 94 f;
#N canvas 463 296 450 300 vol_env 0;
#X obj 37 37 inlet;
#X obj 36 152 vline~;
#X obj 34 194 *~;
#X msg 40 101 0.5 \, 1 5 \, 0.5 60 5 \, 0 \$1 65;
#X obj 34 220 outlet~;
#X connect 0 0 3 0;
#X connect 1 0 2 0;
#X connect 1 0 2 1;
#X connect 2 0 4 0;
#X connect 3 0 1 0;
#X restore 193 143 pd vol_env;
#N canvas 597 245 450 388 pitch_env 0;
#X obj 37 37 inlet;
#X obj 43 107 vline~;
#X obj 39 139 *~;
#X obj 34 260 outlet~;
#X msg 40 74 1 \, 0.5 5 \, 0 \$1 5;
#X obj 39 168 *~ 80;
#X obj 39 227 mtof~;
#X obj 40 200 +~ 2;
#X connect 0 0 4 0;
#X connect 1 0 2 0;
#X connect 1 0 2 1;
#X connect 2 0 5 0;
#X connect 4 0 1 0;
#X connect 5 0 7 0;
#X connect 6 0 3 0;
#X connect 7 0 6 0;
#X restore 36 135 pd pitch_env;
#X obj 71 177 *~ 1;
#X msg 143 144 9;
#X obj 180 43 loadbang;
#X obj 148 265 inlet;
#X obj 76 298 *~;
#X obj 45 73 outlet;
#X msg 199 92 3000;
#X connect 0 0 4 0;
#X connect 0 0 12 0;
#X connect 1 0 3 0;
#X connect 3 0 11 0;
#X connect 4 0 5 0;
#X connect 4 0 6 0;
#X connect 5 0 3 1;
#X connect 6 0 7 0;
#X connect 7 0 1 0;
#X connect 8 0 7 1;
#X connect 9 0 13 0;
#X connect 9 0 8 0;
#X connect 10 0 11 1;
#X connect 11 0 2 0;
#X connect 11 0 2 1;
#X connect 13 0 4 1;
#X restore 378 247 pd damage;
#N canvas 0 50 833 622 death 0;
#X obj 258 327 mtof;
#X obj 509 367 vsl 15 70 0 0.1 0 0 empty empty empty 0 -9 0 10 -262144
-1 -1 0 1;
#X obj 257 438 *~;
#X obj 244 477 dac~;
#X obj 220 223 select 0 1 2 3 4 5 6 7;
#X obj 220 152 f;
#X obj 250 152 + 1;
#X obj 258 365 sig~;
#X obj 248 404 phasor~;
#X msg 172 266 80;
#X msg 306 266 20, f 2;
#X msg 342 266 30;
#X msg 394 266 36;
#X obj 510 86 + 1;
#X obj 367 70 tgl 15 0 empty empty empty 17 7 0 10 -262144 -1 -1 0
1;
#X obj 462 86 f 0;
#X obj 220 186 % 8;
#X obj 398 102 % 8;
#X obj 388 150 select 7 0;
#X obj 461 306 f 0;
#X msg 127 267 85;
#X msg 215 266 54;
#X msg 260 268 42;
#X obj 274 87 metro 200;
#X obj 213 21 inlet;
#X obj 493 285 * 0.07;
#X obj 492 259 f;
#X obj 523 225 inlet;
#X text 552 259 Volume control;
#X obj 192 63 outlet;
#X connect 0 0 7 0;
#X connect 1 0 2 1;
#X connect 2 0 3 0;
#X connect 2 0 3 1;
#X connect 4 0 20 0;
#X connect 4 1 9 0;
#X connect 4 2 21 0;
#X connect 4 3 22 0;
#X connect 4 4 10 0;
#X connect 4 5 11 0;
#X connect 4 6 11 0;
#X connect 4 7 12 0;
#X connect 5 0 6 0;
#X connect 5 0 16 0;
#X connect 6 0 5 1;
#X connect 7 0 8 0;
#X connect 8 0 2 0;
#X connect 9 0 0 0;
#X connect 10 0 0 0;
#X connect 11 0 0 0;
#X connect 12 0 0 0;
#X connect 13 0 15 1;
#X connect 14 0 23 0;
#X connect 15 0 13 0;
#X connect 15 0 17 0;
#X connect 15 0 18 0;
#X connect 16 0 4 0;
#X connect 17 0 18 0;
#X connect 18 0 14 0;
#X connect 18 0 19 0;
#X connect 18 1 26 0;
#X connect 19 0 1 0;
#X connect 20 0 0 0;
#X connect 21 0 0 0;
#X connect 22 0 0 0;
#X connect 23 0 5 0;
#X connect 23 0 15 0;
#X connect 24 0 23 0;
#X connect 24 0 29 0;
#X connect 25 0 1 0;
#X connect 26 0 25 0;
#X connect 27 0 26 1;
#X restore 266 249 pd death;
#X obj 271 188 bng 15 250 50 0 empty empty empty 17 7 0 10 -262144
-1 -1;
#X obj 376 189 bng 15 250 50 0 empty empty empty 17 7 0 10 -262144
-1 -1;
#X obj 427 150 vsl 15 50 0 1 0 1 empty empty Volume -10 -9 0 10 -262144
-1 -1 1200 1;
#X obj 315 152 vsl 15 50 0 0.5 0 1 empty empty Volume -10 -9 0 10 -262144
-1 -1 2000 1;
#N canvas 0 50 682 437 jump 0;
#X obj 347 270 dac~;
#X obj 369 77 bng 15 250 50 0 empty empty empty 17 7 0 10 -262144 -1
-1;
#X obj 341 167 osc~;
#X obj 343 196 *~ 0.05;
#X obj 366 7 inlet;
#X obj 345 229 *~;
#X obj 425 206 inlet;
#X obj 425 53 outlet;
#X obj 339 140 vline~;
#X msg 342 108 1000 75 \, 0 75 125;
#X connect 1 0 9 0;
#X connect 2 0 3 0;
#X connect 3 0 5 0;
#X connect 4 0 1 0;
#X connect 4 0 7 0;
#X connect 5 0 0 0;
#X connect 5 0 0 1;
#X connect 6 0 5 1;
#X connect 8 0 2 0;
#X connect 9 0 8 0;
#X restore 515 247 pd jump;
#X obj 562 150 vsl 15 50 0 1 0 1 empty empty Volume -10 -9 0 10 -262144
-1 -1 2800 1;
#X obj 531 187 bng 15 250 50 0 empty empty empty 17 7 0 10 -262144
-1 -1;
#N canvas 0 50 716 453 spawn 0;
#X obj 96 213 phasor~;
#X obj 90 363 dac~;
#X obj 106 269 *~;
#X obj 215 101 f;
#N canvas 463 296 450 300 vol_env 0;
#X obj 37 37 inlet;
#X obj 36 152 vline~;
#X obj 34 194 *~;
#X obj 34 220 outlet~;
#X msg 41 102 0 \, 1 200 \, 0 \$1 65;
#X connect 0 0 4 0;
#X connect 1 0 2 0;
#X connect 1 0 2 1;
#X connect 2 0 3 0;
#X connect 4 0 1 0;
#X restore 224 147 pd vol_env;
#N canvas 609 200 450 388 pitch_env 0;
#X obj 37 37 inlet;
#X obj 43 107 vline~;
#X obj 39 139 *~;
#X obj 34 260 outlet~;
#X obj 39 227 mtof~;
#X obj 40 200 +~ 2;
#X obj 39 168 *~ 70;
#X msg 40 74 0.2 \, 0.4 300 \, 0.75 200;
#X connect 0 0 7 0;
#X connect 1 0 2 0;
#X connect 1 0 2 1;
#X connect 2 0 6 0;
#X connect 4 0 3 0;
#X connect 5 0 4 0;
#X connect 6 0 5 0;
#X connect 7 0 1 0;
#X restore 60 140 pd pitch_env;
#X obj 96 182 *~ 1;
#X obj 230 45 loadbang;
#X obj 163 271 inlet;
#X obj 101 302 *~;
#X obj 94 46 inlet;
#X obj 94 69 outlet;
#X msg 267 93 400;
#X msg 171 146 7;
#X connect 0 0 2 0;
#X connect 2 0 9 0;
#X connect 3 0 4 0;
#X connect 3 0 5 0;
#X connect 4 0 2 1;
#X connect 5 0 6 0;
#X connect 6 0 0 0;
#X connect 7 0 12 0;
#X connect 7 0 13 0;
#X connect 8 0 9 1;
#X connect 9 0 1 0;
#X connect 9 0 1 1;
#X connect 10 0 3 0;
#X connect 10 0 11 0;
#X connect 12 0 3 1;
#X connect 13 0 6 1;
#X restore 638 245 pd spawn;
#X obj 677 148 vsl 15 50 0 1 0 1 empty empty Volume -10 -9 0 10 -262144
-1 -1 1900 1;
#X obj 638 185 bng 15 250 50 0 empty empty empty 17 7 0 10 -262144
-1 -1;
#X obj 481 293 outlet;
#X obj 526 81 r jumpTrig;
#X obj 635 77 r spawnTrig;
#X obj 371 81 r deathTrig;
#X obj 272 80 r damageTrig;
#X connect 0 0 12 0;
#X connect 1 0 12 0;
#X connect 2 0 1 0;
#X connect 3 0 0 0;
#X connect 4 0 0 1;
#X connect 5 0 1 1;
#X connect 6 0 12 0;
#X connect 7 0 6 1;
#X connect 8 0 6 0;
#X connect 9 0 12 0;
#X connect 10 0 9 1;
#X connect 11 0 9 0;
#X connect 13 0 8 0;
#X connect 14 0 11 0;
#X connect 15 0 3 0;
#X connect 16 0 2 0;
#X restore 516 321 pd soundeffects;
#X obj 513 346 bng 15 250 50 0 empty empty empty 17 7 0 10 -262144
-1 -1;
#X obj 586 160 bng 15 250 50 0 empty empty START_MUSIC -77 7 0 10 -262144
-1 -1;
#X obj 586 181 bng 15 250 50 0 empty empty STOP_MUSIC -73 7 0 10 -262144
-1 -1;
#X obj 586 203 bng 15 250 50 0 empty empty RESTART_MUSIC -90 7 0 10
-262144 -1 -1;
#N canvas 593 334 1017 549 Mixer 0;
#X obj 6 -26 cnv 15 300 200 empty empty Beat_Control 10 20 0 20 -204786
-66577 0;
#X obj 77 35 hsl 150 15 0 1 0 1 beatVol beatVol beat_volume -2 -8 0
10 -262144 -1 -1 7000 1;
#X obj 70 93 vsl 15 50 0 1 0 1 kickVol kickVol kick -2 -9 0 10 -262144
-1 -1 2300 1;
#X obj 140 94 vsl 15 50 0 1 0 1 hihatVol hihatVol hihat -4 -9 0 10
-262144 -1 -1 2200 1;
#X obj 103 94 vsl 15 50 0 1 0 1 snareVol snareVol snare -5 -9 0 10
-262144 -1 -1 2300 1;
#X obj 177 92 vsl 15 50 0 1 0 1 snapVol snapVol snap -6 -9 0 10 -262144
-1 -1 2000 1;
#X obj 219 92 vsl 15 50 0 1 0 1 blockVol blockVol block -7 -9 0 10
-262144 -1 -1 2900 1;
#X obj 4 181 cnv 15 300 100 empty empty Phasor_Control 10 20 0 20 -262130
-66577 0;
#X obj 71 242 hsl 150 15 0 1 0 1 phaseVol phaseVol Phasor_Volume -2
-8 0 10 -262144 -1 -1 0 1;
#X obj 317 -29 cnv 15 650 420 empty empty Keyboard_Control 10 20 0
20 -232576 -66577 0;
#X obj 487 223 cnv 15 300 150 empty empty Bass_Line 110 20 0 14 -233017
-66577 0;
#X obj 498 274 hsl 128 15 0 1 0 1 bassVol bassVol gain -2 -8 0 10 -262144
-1 -1 5900 1;
#X obj 329 55 cnv 15 300 150 empty empty Voice_1 110 20 0 14 -204786
-66577 0;
#X obj 341 109 hsl 128 15 0 1 0 1 V1Vol V1Vol gain -2 -8 0 10 -262144
-1 -1 5700 1;
#X obj 642 55 cnv 15 300 150 empty empty Voice_2 110 20 0 14 -262130
-66577 0;
#X obj 654 103 hsl 128 15 0 1 0 1 V2Vol V2Vol gain -2 -8 0 10 -262144
-1 -1 4800 1;
#X obj 802 103 hsl 128 15 0 1 0 1 V2Reverb V2Reverb Reverb_Wet/Dry
-2 -8 0 10 -262144 -1 -1 6100 1;
#X obj 804 144 hsl 128 15 0 1 0 1 V2DelayFB V2DelayFB Delay_Feedback
-2 -8 0 10 -262144 -1 -1 8600 1;
#X obj 654 144 hsl 128 15 0 500 0 1 V2DelayTime V2DelayTime Delay_Time
-2 -8 0 10 -262144 -1 -1 8100 1;
#X obj 491 108 hsl 128 15 0 1 0 1 V1Reverb V1Reverb Reverb_Wet/Dry
-2 -8 0 10 -262144 -1 -1 3500 1;
#X obj 491 142 hsl 128 15 0 1 0 1 V1DelayFB V1DelayFB Delay_Feedback
-2 -8 0 10 -262144 -1 -1 0 1;
#X obj 342 141 hsl 128 15 0 100 0 1 V1DelayTime V1DelayTime Delay_Time
-2 -8 0 10 -262144 -1 -1 0 1;
#X obj 647 274 hsl 128 15 0 1 0 1 bassReverb bassReverb Reverb_Wet/Dry
-2 -8 0 10 -262144 -1 -1 4600 1;
#X obj 647 308 hsl 128 15 0 1 0 1 bassDelayFB bassDelayFB Delay_Feedback
-2 -8 0 10 -262144 -1 -1 0 1;
#X obj 498 307 hsl 128 15 0 100 0 1 bassDelayTime bassDelayTime Delay_Time
-2 -8 0 10 -262144 -1 -1 0 1;
#X obj 557 20 hsl 150 15 0 2 0 1 keyVol keyVol key_volume -2 -8 0 10
-262144 -1 -1 0 1;
#X coords 0 549 1 548 85 50 0;
#X restore 532 279 pd Mixer;
#N canvas 298 42 707 560 analysis 0;
#X obj 54 272 rfft~;
#X obj 54 300 *~;
#X obj 88 301 *~;
#X obj 53 333 +~;
#X text 122 295 |a+bi|;
#X obj 53 357 sqrt~;
#X obj 55 239 *~;
#X obj 92 199 tabreceive~ hannwin;
#N canvas 0 131 708 466 hann 0;
#X restore 386 234 pd hann;
#N canvas 0 22 450 278 (subpatch) 0;
#X array magnitude 32 float 1;
#A 0 3.62138 1.86005 0.376298 0.173159 0.117287 0.155022 0.159861 0.111287
0.0332962 0.0590237 0.108604 0.11141 0.069276 0.00627976 0.0623039
0.0971442 0.0909177 0.0492149 0.0223579 0.0689996 0.0916096 0.0775361
0.0367324 0.0357039 0.0747801 0.0875945 0.0667359 0.028932 0.0468813
0.0795681 0.0837208 0.0568951;
#X coords 0 2 31 0 200 140 1 0 0;
#X restore 354 321 graph;
#X obj 50 480 tabwrite~ magnitude;
#X obj 80 429 tgl 15 0 empty empty empty 17 7 0 10 -262144 -1 -1 1
1;
#X obj 43 31 block~ 64 4;
#X text 137 32 size and number of overlaps;
#X obj 546 98 bng 15 250 50 0 empty empty empty 17 7 0 10 -262144 -1
-1;
#X obj 555 129 samplerate~;
#X obj 555 177 osc~;
#X obj 547 250 tabwrite~ hannwin;
#X msg 653 128 0;
#X obj 544 72 loadbang;
#X text 691 129 phase;
#X text 554 43 create hanning window;
#N canvas 0 22 450 278 (subpatch) 0;
#X array hannwin 64 float 1;
#A 0 1 0.997592 0.990393 0.97847 0.96194 0.940961 0.915735 0.886506
0.853554 0.817197 0.777786 0.735699 0.691342 0.645143 0.597546 0.549009
0.5 0.450991 0.402455 0.354857 0.308658 0.264301 0.222214 0.182803
0.146446 0.113494 0.0842644 0.0590387 0.0380596 0.0215293 0.00960699
0.00240743 0 0.00240788 0.00960785 0.0215306 0.0380613 0.0590407 0.0842669
0.113497 0.146449 0.182806 0.222218 0.264305 0.308662 0.354861 0.402459
0.450996 0.500004 0.549013 0.0285714 0.645147 0.691346 0.735703 0.777789
0.817201 0.853557 0.886509 0.915738 0.940963 0.961942 0.978472 0.990394
0.997593;
#X coords 0 0 64 1 200 140 1 0 0;
#X restore 314 75 graph;
#X obj 13 185 inlet~;
#X obj 80 449 metro 250;
#X obj 555 153 / 16;
#X obj 555 201 *~ 0.5;
#X obj 555 225 +~ 0.5;
#X obj 160 403 print~;
#X obj 212 271 tabread4~ magnitude;
#X obj 213 312 snapshot~;
#X floatatom 213 335 5 0 0 0 - - -;
#X obj 297 291 bng 15 250 50 0 empty empty empty 17 7 0 10 -262144
-1 -1;
#X obj 242 189 sig~;
#X floatatom 242 163 6 0 10 0 - - -;
#X connect 0 0 1 0;
#X connect 0 0 1 1;
#X connect 0 1 2 0;
#X connect 0 1 2 1;
#X connect 1 0 3 0;
#X connect 2 0 3 1;
#X connect 3 0 5 0;
#X connect 5 0 10 0;
#X connect 5 0 28 0;
#X connect 6 0 0 0;
#X connect 7 0 6 1;
#X connect 11 0 24 0;
#X connect 14 0 15 0;
#X connect 14 0 17 0;
#X connect 14 0 18 0;
#X connect 15 0 25 0;
#X connect 16 0 26 0;
#X connect 18 0 16 1;
#X connect 19 0 14 0;
#X connect 23 0 6 0;
#X connect 24 0 10 0;
#X connect 25 0 16 0;
#X connect 26 0 27 0;
#X connect 27 0 17 0;
#X connect 29 0 30 0;
#X connect 30 0 31 0;
#X connect 32 0 30 0;
#X connect 32 0 28 0;
#X connect 33 0 29 0;
#X connect 34 0 33 0;
#X restore 548 436 pd analysis;
#X connect 6 0 10 0;
#X connect 8 0 9 0;
#X connect 10 0 13 0;
#X connect 11 0 10 0;
#X connect 15 0 8 0;
#X connect 17 0 20 0;
#X connect 18 0 20 0;
#X connect 19 0 20 0;
#X connect 20 0 26 0;
#X connect 20 0 26 1;
#X connect 20 0 21 0;
#X connect 20 0 45 0;
#X connect 22 0 21 1;
#X connect 23 0 21 1;
#X connect 24 0 20 1;
#X connect 25 0 20 1;
#X connect 27 0 20 1;
#X connect 28 0 32 0;
#X connect 29 0 18 0;
#X connect 29 1 19 0;
#X connect 30 0 17 0;
#X connect 30 1 29 0;
#X connect 31 0 30 0;
#X connect 32 0 17 0;
#X connect 32 1 19 0;
#X connect 32 2 33 0;
#X connect 33 0 34 0;
#X connect 35 0 19 0;
#X connect 39 0 40 0;
#X connect 41 0 17 0;
#X connect 42 0 18 0;
#X connect 43 0 19 0;
