#N canvas 156 44 1024 582 10;
#X text 177 277 creation arguments are OSC address;
#X text 179 238 set message to change OSC address;
#X text 164 48 1 Set IP Address : network address;
#X text 164 68 2 Set Ports (sending and listening);
#X text 164 87 3 Set OSC Addresses (routing osc data;
#X text 155 26 Key Settings;
#X floatatom 43 194 5 0 0 0 - - -;
#N canvas 261 30 1021 592 oscReceive 0;
#X obj 55 184 netreceive -u -b;
#X msg 78 143 listen 0;
#X text 152 143 stop listening;
#X text 64 58 packets from network;
#X text 173 177 UDP packets \, binary output, f 13;
#X obj 45 272 oscparse;
#X text 150 114 listen on port 8000;
#X obj 177 269 oscparse;
#X obj 177 293 list trim;
#X text 241 267 Parse the OSC message;
#X obj 177 319 route unity;
#X msg 66 115 listen 8000;
#X obj 66 84 loadbang;
#X floatatom 329 417 5 0 0 0 - - -;
#X obj 253 444 s jumptrig;
#X obj 254 419 bng 15 250 50 0 empty empty empty 17 7 0 10 -262144
-1 -1;
#X obj 416 440 s deathtrig;
#X obj 36 423 bng 15 250 50 0 empty empty empty 17 7 0 10 -262144 -1
-1;
#X floatatom 506 417 5 0 0 0 - - -;
#X obj 506 439 s updatescore;
#X obj 418 419 bng 15 250 50 0 empty empty empty 17 7 0 10 -262144
-1 -1;
#X obj 140 424 bng 15 250 50 0 empty empty empty 17 7 0 10 -262144
-1 -1;
#X obj 191 424 bng 15 250 50 0 empty empty empty 17 7 0 10 -262144
-1 -1;
#X obj 89 423 bng 15 250 50 0 empty empty empty 17 7 0 10 -262144 -1
-1;
#X obj 89 443 s Btrig;
#X obj 191 444 s Ytrig;
#X obj 140 446 s Xtrig;
#X obj 36 443 s Atrig;
#X obj 603 416 bng 15 250 50 0 empty empty empty 17 7 0 10 -262144
-1 -1;
#X obj 602 440 s initTrig;
#X obj 329 439 s damageAmt;
#X obj 227 355 route A B X Y jump damage death score init statechange
toggleaudio, f 109;
#X obj 768 449 s audioTrig;
#X floatatom 774 424 5 0 0 0 - - -;
#X obj 45 295 print;
#X obj 677 445 s beatToggle;
#X floatatom 695 418 5 0 0 0 - - -;
#X connect 0 0 5 0;
#X connect 0 0 7 0;
#X connect 1 0 0 0;
#X connect 5 0 34 0;
#X connect 7 0 8 0;
#X connect 8 0 10 0;
#X connect 10 0 31 0;
#X connect 11 0 0 0;
#X connect 12 0 11 0;
#X connect 13 0 30 0;
#X connect 15 0 14 0;
#X connect 17 0 27 0;
#X connect 18 0 19 0;
#X connect 20 0 16 0;
#X connect 21 0 26 0;
#X connect 22 0 25 0;
#X connect 23 0 24 0;
#X connect 28 0 29 0;
#X connect 31 0 17 0;
#X connect 31 1 23 0;
#X connect 31 2 21 0;
#X connect 31 3 22 0;
#X connect 31 4 15 0;
#X connect 31 5 13 0;
#X connect 31 6 20 0;
#X connect 31 7 18 0;
#X connect 31 8 28 0;
#X connect 31 9 36 0;
#X connect 31 10 33 0;
#X connect 33 0 32 0;
#X connect 36 0 35 0;
#X restore 47 142 pd oscReceive;
#X obj 47 36 tgl 15 0 empty empty empty 17 7 0 10 -262144 -1 -1 1 1
;
#X msg 47 61 \; pd dsp \$1;
#X obj 44 278 oscformat PD message;
#X msg 76 239 set PD message;
#N canvas 400 1 450 300 oscSend 0;
#X msg 158 207 disconnect;
#X obj 61 253 netsend -u -b;
#X obj 59 55 list prepend send;
#X obj 59 80 list trim;
#X obj 59 29 r oscOut;
#X obj 147 108 loadbang;
#X msg 147 148 connect localhost 8001;
#X msg 150 175 connect 127.0.0.1 8001;
#X text 301 163 send to port 8001;
#X connect 0 0 1 0;
#X connect 2 0 3 0;
#X connect 3 0 1 0;
#X connect 4 0 2 0;
#X connect 5 0 6 0;
#X connect 6 0 1 0;
#X connect 7 0 1 0;
#X restore 47 118 pd oscSend;
#X obj 44 313 s oscOut;
#X obj 468 39 cnv 15 500 500 empty empty Pablo_Work 20 20 0 20 -203904
-66577 0;
#X msg 515 253 start;
#X msg 557 253 stop;
#X msg 594 254 restart;
#X obj 39 10 loadbang;
#N canvas 593 334 1017 549 Mixer 1;
#X obj 6 -26 cnv 15 300 200 empty empty Beat_Control 10 20 0 20 -204786
-66577 0;
#X obj 77 35 hsl 150 15 0 1 0 1 beatVol beatVol beat_volume -2 -8 0
10 -262144 -1 -1 7100 1;
#X obj 70 93 vsl 15 50 0 1 0 1 kickVol kickVol kick -2 -9 0 10 -262144
-1 -1 2300 1;
#X obj 140 94 vsl 15 50 0 1 0 1 hihatVol hihatVol hihat -4 -9 0 10
-262144 -1 -1 2200 1;
#X obj 103 94 vsl 15 50 0 1 0 1 snareVol snareVol snare -5 -9 0 10
-262144 -1 -1 2300 1;
#X obj 177 92 vsl 15 50 0 1 0 1 snapVol snapVol snap -6 -9 0 10 -262144
-1 -1 2000 1;
#X obj 219 92 vsl 15 50 0 1 0 1 blockVol blockVol block -7 -9 0 10
-262144 -1 -1 2900 1;
#X obj 4 181 cnv 15 300 100 empty empty Phasor_Control 10 20 0 20 -262130
-66577 0;
#X obj 71 242 hsl 150 15 0 1 0 1 phaseVol phaseVol Phasor_Volume -2
-8 0 10 -262144 -1 -1 0 1;
#X obj 317 -29 cnv 15 650 420 empty empty Keyboard_Control 10 20 0
20 -232576 -66577 0;
#X obj 487 223 cnv 15 300 150 empty empty Bass_Line 110 20 0 14 -233017
-66577 0;
#X obj 498 274 hsl 128 15 0 1 0 1 bassVol bassVol gain -2 -8 0 10 -262144
-1 -1 5800 1;
#X obj 329 55 cnv 15 300 150 empty empty Voice_1 110 20 0 14 -204786
-66577 0;
#X obj 341 109 hsl 128 15 0 1 0 1 V1Vol V1Vol gain -2 -8 0 10 -262144
-1 -1 5300 1;
#X obj 642 55 cnv 15 300 150 empty empty Voice_2 110 20 0 14 -262130
-66577 0;
#X obj 654 103 hsl 128 15 0 1 0 1 V2Vol V2Vol gain -2 -8 0 10 -262144
-1 -1 5100 1;
#X obj 802 103 hsl 128 15 0 1 0 1 V2Reverb V2Reverb Reverb_Wet/Dry
-2 -8 0 10 -262144 -1 -1 6600 1;
#X obj 804 144 hsl 128 15 0 1 0 1 V2DelayFB V2DelayFB Delay_Feedback
-2 -8 0 10 -262144 -1 -1 8600 1;
#X obj 654 144 hsl 128 15 0 500 0 1 V2DelayTime V2DelayTime Delay_Time
-2 -8 0 10 -262144 -1 -1 8100 1;
#X obj 491 108 hsl 128 15 0 1 0 1 V1Reverb V1Reverb Reverb_Wet/Dry
-2 -8 0 10 -262144 -1 -1 3600 1;
#X obj 491 142 hsl 128 15 0 1 0 1 V1DelayFB V1DelayFB Delay_Feedback
-2 -8 0 10 -262144 -1 -1 0 1;
#X obj 342 141 hsl 128 15 0 100 0 1 V1DelayTime V1DelayTime Delay_Time
-2 -8 0 10 -262144 -1 -1 0 1;
#X obj 647 274 hsl 128 15 0 1 0 1 bassReverb bassReverb Reverb_Wet/Dry
-2 -8 0 10 -262144 -1 -1 4900 1;
#X obj 647 308 hsl 128 15 0 1 0 1 bassDelayFB bassDelayFB Delay_Feedback
-2 -8 0 10 -262144 -1 -1 0 1;
#X obj 498 307 hsl 128 15 0 100 0 1 bassDelayTime bassDelayTime Delay_Time
-2 -8 0 10 -262144 -1 -1 0 1;
#X obj 557 20 hsl 150 15 0 2 0 1 keyVol keyVol key_volume -2 -8 0 10
-262144 -1 -1 10600 1;
#X coords 0 549 1 548 85 50 0;
#X restore 912 204 pd Mixer;
#N canvas 562 161 953 778 MainController 1;
#X obj 205 9 cnv 15 500 60 empty empty Main_Controller 135 25 0 30
-232576 -66577 0;
#X obj 16 88 cnv 15 1000 600 empty empty empty 10 10 0 14 -261234 -66577
0;
#X obj 293 107 cnv 15 350 200 empty empty empty 20 12 0 14 -204786
-66577 0;
#X obj 367 333 cnv 15 600 285 empty empty empty 20 12 0 14 -204800
-66577 0;
#X obj 77 127 cnv 15 100 30 empty empty empty 20 12 0 14 -261682 -66577
0;
#X obj 105 335 cnv 15 250 200 empty empty empty 20 12 0 14 -262130
-66577 0;
#X obj 358 275 tgl 15 0 empty empty empty 17 7 0 10 -262144 -1 -1 0
1;
#X msg 357 218 0;
#X msg 399 248 1;
#X obj 398 203 int;
#X obj 395 225 sel 0;
#X obj 356 123 inlet;
#X obj 356 147 route stop start restart;
#X msg 470 230 0;
#X text 501 236 jump to index 0;
#X obj 179 474 line;
#X obj 175 380 route 0 1;
#N canvas 177 144 815 666 phasorseq 0;
#X obj 163 304 phasor~;
#X obj 159 278 nbx 5 14 -1e+037 1e+037 0 1 empty empty empty 0 -8 0
10 -262144 -1 -1 99 256;
#X obj 168 6 inlet;
#X obj 227 380 *~;
#X obj 207 346 *~;
#X msg 135 213 214 2000;
#X obj 141 115 int;
#X obj 176 115 + 1;
#X obj 139 87 sel 0;
#X obj 141 138 mod 3;
#X obj 141 161 sel 0 1 2;
#X obj 139 64 mod 64;
#X msg 201 217 142 2000;
#X obj 160 253 line;
#X msg 69 216 107 2000;
#X obj 331 193 moses 1000;
#X obj 306 257 vline~;
#X msg 300 226 1 10000;
#X msg 370 223 0 10000;
#N canvas 0 23 740 505 reverb 0;
#X obj 162 49 inlet~;
#X obj 144 364 outlet~;
#X floatatom 444 156 0 0 120 0 - - -;
#X text 485 156 level \, dB;
#X floatatom 472 173 0 0 100 0 - - -;
#X text 513 173 liveness \, 0-100;
#X floatatom 507 197 4 0 5000 0 - - -;
#X floatatom 542 220 0 0 100 0 - - -;
#X text 555 195 crossover frequency \, Hz.;
#X text 578 222 HF damping \, percent;
#X obj 235 233 rev3~ 100 90 3000 20;
#X obj 247 331 *~;
#X floatatom 317 299 5 0 0 0 - - -;
#X obj 26 288 *~;
#X floatatom 66 261 5 0 0 0 - - -;
#X text 355 299 wet reverb signal;
#X text 103 264 "dry" signal;
#X floatatom 410 59 5 0 0 0 - - -;
#X obj 250 87 expr 1 - $f1;
#X obj 438 31 inlet;
#X connect 0 0 13 0;
#X connect 0 0 10 0;
#X connect 2 0 10 2;
#X connect 4 0 10 3;
#X connect 6 0 10 4;
#X connect 7 0 10 5;
#X connect 10 0 11 0;
#X connect 10 1 11 0;
#X connect 10 2 11 0;
#X connect 10 3 11 0;
#X connect 11 0 1 0;
#X connect 12 0 11 1;
#X connect 13 0 1 0;
#X connect 14 0 13 1;
#X connect 17 0 12 0;
#X connect 17 0 18 0;
#X connect 18 0 14 0;
#X connect 19 0 17 0;
#X restore 227 511 pd reverb;
#X obj 281 488 hsl 128 15 0 1 0 1 empty empty Reverb_Wet/Dry -2 -8
0 10 -262144 -1 -1 8000 1;
#X obj 227 534 outlet~;
#X obj 169 32 moses 750;
#X obj 227 403 *~;
#X text 429 186 Only play sound from index 750 to 1000;
#X obj 293 349 r phaseVol;
#X obj 284 387 r OnOffLine;
#X obj 228 433 *~;
#N canvas 0 50 450 300 VolScale 0;
#X obj 28 22 r globalVol;
#X obj 28 68 line;
#X obj 28 91 outlet~;
#X msg 28 45 \$1 500;
#X connect 0 0 3 0;
#X connect 1 0 2 0;
#X connect 3 0 1 0;
#X restore 264 431 pd VolScale;
#X connect 0 0 4 0;
#X connect 1 0 0 0;
#X connect 2 0 22 0;
#X connect 3 0 23 0;
#X connect 4 0 3 0;
#X connect 5 0 13 0;
#X connect 6 0 7 0;
#X connect 6 0 9 0;
#X connect 7 0 6 1;
#X connect 8 0 6 0;
#X connect 9 0 10 0;
#X connect 10 0 14 0;
#X connect 10 1 5 0;
#X connect 10 2 12 0;
#X connect 11 0 8 0;
#X connect 12 0 13 0;
#X connect 13 0 1 0;
#X connect 14 0 13 0;
#X connect 15 0 17 0;
#X connect 15 1 18 0;
#X connect 16 0 4 1;
#X connect 17 0 16 0;
#X connect 18 0 16 0;
#X connect 19 0 21 0;
#X connect 20 0 19 1;
#X connect 22 1 15 0;
#X connect 22 1 11 0;
#X connect 23 0 27 0;
#X connect 25 0 3 1;
#X connect 26 0 23 1;
#X connect 27 0 19 0;
#X connect 28 0 27 1;
#X restore 813 271 pd phasorseq;
#N canvas 497 296 926 602 processLSystem 1;
#X obj 240 113 s dyn_mod;
#X obj 264 78 route float;
#X obj 332 130 route F + - [ ];
#X obj 165 284 readsf~;
#X obj 34 283 readsf~;
#X obj 595 295 readsf~;
#X obj 307 289 readsf~;
#X obj 459 298 readsf~;
#X obj 34 309 *~;
#X obj 166 310 *~;
#X obj 307 315 *~;
#X obj 459 324 *~;
#X obj 595 321 *~;
#X obj 269 51 inlet;
#X obj 366 307 r hihatVol;
#X obj 217 298 r snareVol;
#X obj 92 296 r kickVol;
#X msg 69 223 kick;
#X obj 69 246 s noteMsg;
#X obj 204 250 s noteMsg;
#X msg 205 227 snare;
#X obj 351 253 s noteMsg;
#X msg 352 230 hihat;
#X obj 496 256 s noteMsg;
#X msg 497 233 block;
#X obj 673 256 s noteMsg;
#X msg 674 233 block;
#X obj 405 445 *~;
#X obj 438 443 r beatVol;
#X obj 405 518 outlet~;
#X obj 405 468 *~;
#N canvas 0 50 450 300 VolScale 0;
#X obj 28 22 r globalVol;
#X obj 28 68 line;
#X obj 28 91 outlet~;
#X msg 28 45 \$1 500;
#X connect 0 0 3 0;
#X connect 1 0 2 0;
#X connect 3 0 1 0;
#X restore 441 466 pd VolScale;
#X obj 406 492 *~;
#X obj 439 491 r OnOffLine;
#X obj 480 115 int;
#X obj 510 112 + 1;
#X obj 480 138 mod 4;
#X obj 464 98 bng 15 250 50 0 empty empty empty 17 7 0 10 -262144 -1
-1;
#X obj 524 139 sel 0 2 3;
#X obj 500 325 r snapVol;
#X obj 649 317 r blockVol;
#X msg 20 172 open beat/808Kick.wav \, 1;
#X msg 119 201 open beat/EmuRim.wav \, 1;
#X msg 289 196 open beat/808CHH.wav \, 1;
#X msg 482 195 open beat/Rhythm77Snap.wav \, 1;
#X msg 692 193 open beat/808Block.wav \, 1;
#X connect 1 0 0 0;
#X connect 1 1 2 0;
#X connect 2 0 41 0;
#X connect 2 1 42 0;
#X connect 2 1 37 0;
#X connect 2 2 43 0;
#X connect 2 3 44 0;
#X connect 2 4 45 0;
#X connect 3 0 9 0;
#X connect 4 0 8 0;
#X connect 5 0 12 0;
#X connect 6 0 10 0;
#X connect 7 0 11 0;
#X connect 8 0 27 0;
#X connect 9 0 27 0;
#X connect 10 0 27 0;
#X connect 11 0 27 0;
#X connect 12 0 27 0;
#X connect 13 0 1 0;
#X connect 14 0 10 1;
#X connect 15 0 9 1;
#X connect 16 0 8 1;
#X connect 17 0 18 0;
#X connect 20 0 19 0;
#X connect 22 0 21 0;
#X connect 24 0 23 0;
#X connect 26 0 25 0;
#X connect 27 0 30 0;
#X connect 28 0 27 1;
#X connect 30 0 32 0;
#X connect 31 0 30 1;
#X connect 32 0 29 0;
#X connect 33 0 32 1;
#X connect 34 0 35 0;
#X connect 34 0 36 0;
#X connect 35 0 34 1;
#X connect 36 0 38 0;
#X connect 37 0 34 0;
#X connect 38 0 44 0;
#X connect 38 1 45 0;
#X connect 38 2 45 0;
#X connect 39 0 11 1;
#X connect 40 0 12 1;
#X connect 41 0 4 0;
#X connect 41 0 17 0;
#X connect 42 0 3 0;
#X connect 42 0 20 0;
#X connect 43 0 6 0;
#X connect 43 0 22 0;
#X connect 44 0 7 0;
#X connect 44 0 24 0;
#X connect 45 0 5 0;
#X connect 45 0 26 0;
#X restore 404 492 pd processLSystem;
#N canvas 599 310 1281 640 beatfile_reader 0;
#X obj 160 521 textfile;
#X msg 270 397 bang;
#X obj 187 192 int;
#X obj 222 204 + 1;
#X obj 188 271 mod;
#X obj 203 247 r dyn_mod;
#X msg 135 397 rewind \, bang \, bang;
#X obj 157 119 metro;
#X msg 518 229 clear \, read L-Text/L0.txt \, rewind;
#X msg 519 260 clear \, read L-Text/L1.txt \, rewind;
#X msg 522 288 clear \, read L-Text/L2.txt \, rewind;
#X msg 524 317 clear \, read L-Text/L3.txt \, rewind;
#X msg 527 345 clear \, read L-Text/L4.txt \, rewind;
#X msg 524 375 clear \, read L-Text/L5.txt \, rewind;
#X msg 300 250 1;
#X msg 531 407 clear \, read L-Text/L6.txt \, rewind;
#X msg 535 437 clear \, read L-Text/L8.txt \, rewind;
#X obj 194 13 r globalTempo;
#X obj 60 90 inlet;
#X obj 316 92 inlet;
#X text 290 273 rewind/replay;
#X msg 316 115 \$1;
#X text 358 108 (Note: Doesn't affect position in L-Text file);
#X text 360 94 Jump to index for use by other instruments;
#X text 539 202 Text files encoded by LGEN.py;
#X obj 135 566 outlet;
#X obj 197 297 outlet;
#X msg 526 465 clear \, read L-Text/L9.txt \, rewind;
#X obj 438 154 sel 0;
#X text 486 154 queue rewind;
#X obj 185 348 sel 0 10 250 620 1000 1500 3000;
#X obj 415 568 s changemod;
#X msg 417 539 3;
#X msg 246 69 300;
#X msg 310 69 400;
#X msg 278 69 350;
#X msg 210 69 250;
#X msg 178 68 200;
#X msg 146 68 150;
#X msg 115 70 100;
#X obj 174 39 sel 1 2 3 4 5 6 7;
#X connect 0 0 25 0;
#X connect 1 0 0 0;
#X connect 2 0 3 0;
#X connect 2 0 4 0;
#X connect 3 0 2 1;
#X connect 4 0 26 0;
#X connect 4 0 30 0;
#X connect 5 0 4 1;
#X connect 6 0 0 0;
#X connect 7 0 2 0;
#X connect 8 0 0 0;
#X connect 9 0 0 0;
#X connect 10 0 0 0;
#X connect 11 0 0 0;
#X connect 12 0 0 0;
#X connect 13 0 0 0;
#X connect 14 0 2 1;
#X connect 15 0 0 0;
#X connect 16 0 0 0;
#X connect 17 0 40 0;
#X connect 18 0 7 0;
#X connect 19 0 21 0;
#X connect 21 0 2 1;
#X connect 21 0 28 0;
#X connect 27 0 0 0;
#X connect 28 0 27 0;
#X connect 30 0 6 0;
#X connect 30 0 14 0;
#X connect 30 1 12 0;
#X connect 30 2 11 0;
#X connect 30 2 32 0;
#X connect 30 3 16 0;
#X connect 30 4 15 0;
#X connect 30 5 13 0;
#X connect 30 6 12 0;
#X connect 30 7 1 0;
#X connect 32 0 31 0;
#X connect 33 0 7 1;
#X connect 34 0 7 1;
#X connect 35 0 7 1;
#X connect 36 0 7 1;
#X connect 37 0 7 1;
#X connect 38 0 7 1;
#X connect 39 0 7 1;
#X connect 40 0 39 0;
#X connect 40 1 38 0;
#X connect 40 2 37 0;
#X connect 40 3 36 0;
#X connect 40 4 33 0;
#X connect 40 5 35 0;
#X connect 40 6 34 0;
#X restore 463 416 pd beatfile_reader;
#X floatatom 605 422 5 0 0 3 index - globalIndex;
#N canvas 879 276 899 583 keyboard 0;
#X obj 92 11 inlet;
#X obj 123 84 sel 0;
#X obj 157 26 inlet;
#X obj 124 60 mod;
#X obj 123 107 int;
#X obj 151 107 + 1;
#X obj 128 147 mod 160;
#X text 183 80 Synced counter;
#X text 182 96 Scaled by second inlet;
#N canvas 921 69 857 593 voice_1 0;
#X obj 44 35 inlet;
#X obj 66 73 mod 40;
#X obj 53 152 sel 12 28;
#X obj 226 151 sel 20 36;
#X obj 560 146 sel 10 18 26 34;
#N canvas 0 50 477 450 play_sound 0;
#X obj 40 49 inlet;
#X obj 39 101 readsf~;
#X obj 45 165 *~;
#X obj 68 131 inlet;
#X obj 40 244 outlet~;
#X connect 0 0 1 0;
#X connect 1 0 2 0;
#X connect 2 0 4 0;
#X connect 3 0 2 1;
#X restore 96 286 pd play_sound;
#N canvas 0 50 450 300 play_sound 0;
#X obj 40 49 inlet;
#X obj 39 101 readsf~;
#X obj 45 165 *~;
#X obj 68 131 inlet;
#X obj 45 191 outlet~;
#X connect 0 0 1 0;
#X connect 1 0 2 0;
#X connect 2 0 4 0;
#X connect 3 0 2 1;
#X restore 243 289 pd play_sound;
#N canvas 0 50 450 300 play_sound 0;
#X obj 40 49 inlet;
#X obj 39 101 readsf~;
#X obj 45 165 *~;
#X obj 68 131 inlet;
#X obj 45 191 outlet~;
#X connect 0 0 1 0;
#X connect 1 0 2 0;
#X connect 2 0 4 0;
#X connect 3 0 2 1;
#X restore 391 290 pd play_sound;
#N canvas 0 50 450 300 play_sound 0;
#X obj 40 49 inlet;
#X obj 39 101 readsf~;
#X obj 45 165 *~;
#X obj 68 131 inlet;
#X obj 45 191 outlet~;
#X connect 0 0 1 0;
#X connect 1 0 2 0;
#X connect 2 0 4 0;
#X connect 3 0 2 1;
#X restore 553 291 pd play_sound;
#X obj 372 421 outlet~;
#X obj 355 234 inlet;
#X text 410 236 Volume;
#X obj 691 264 outlet;
#X obj 672 220 route 1;
#X obj 369 149 sel 11 19 27 35;
#X msg 70 182 open V1/Eb.wav \, 1;
#X msg 239 181 open V1/F.wav \, 1;
#X msg 407 186 open V1/Bb.wav \, 1;
#X msg 578 183 open V1/C.wav \, 1;
#X connect 0 0 1 0;
#X connect 1 0 2 0;
#X connect 1 0 3 0;
#X connect 1 0 4 0;
#X connect 1 0 14 0;
#X connect 2 0 15 0;
#X connect 2 1 15 0;
#X connect 3 0 16 0;
#X connect 3 1 16 0;
#X connect 4 0 18 0;
#X connect 4 1 18 0;
#X connect 4 2 18 0;
#X connect 4 3 18 0;
#X connect 5 0 9 0;
#X connect 6 0 9 0;
#X connect 7 0 9 0;
#X connect 8 0 9 0;
#X connect 10 0 5 1;
#X connect 10 0 6 1;
#X connect 10 0 8 1;
#X connect 10 0 7 1;
#X connect 13 0 12 0;
#X connect 14 0 17 0;
#X connect 14 1 17 0;
#X connect 14 2 17 0;
#X connect 14 3 17 0;
#X connect 15 0 5 0;
#X connect 15 0 13 0;
#X connect 16 0 6 0;
#X connect 16 0 13 0;
#X connect 17 0 7 0;
#X connect 17 0 13 0;
#X connect 18 0 8 0;
#X connect 18 0 13 0;
#X restore 152 277 pd voice_1;
#N canvas 708 452 1080 844 bass 0;
#X obj 264 35 inlet;
#X obj 422 470 outlet~;
#N canvas 0 50 450 300 play_sound 0;
#X obj 40 49 inlet;
#X obj 39 101 readsf~;
#X obj 45 165 *~;
#X obj 68 131 inlet;
#X obj 45 213 outlet~;
#X connect 0 0 1 0;
#X connect 1 0 2 0;
#X connect 2 0 4 0;
#X connect 3 0 2 1;
#X restore 31 390 pd play_sound;
#N canvas 0 50 450 300 play_sound 0;
#X obj 40 49 inlet;
#X obj 39 101 readsf~;
#X obj 45 165 *~;
#X obj 68 131 inlet;
#X obj 45 191 outlet~;
#X connect 0 0 1 0;
#X connect 1 0 2 0;
#X connect 2 0 4 0;
#X connect 3 0 2 1;
#X restore 21 417 pd play_sound;
#X obj 446 249 inlet;
#X obj 944 376 outlet;
#X obj 33 126 mod 5;
#X obj 291 132 mod 7;
#X obj 266 64 moses 80;
#X obj 107 80 moses 40;
#X obj 942 348 route 1;
#N canvas 0 50 450 300 play_sound 0;
#X obj 40 49 inlet;
#X obj 39 101 readsf~;
#X obj 45 165 *~;
#X obj 68 131 inlet;
#X obj 45 191 outlet~;
#X connect 0 0 1 0;
#X connect 1 0 2 0;
#X connect 2 0 4 0;
#X connect 3 0 2 1;
#X restore 365 363 pd play_sound;
#N canvas 0 50 450 300 play_sound 0;
#X obj 40 49 inlet;
#X obj 39 101 readsf~;
#X obj 45 165 *~;
#X obj 68 131 inlet;
#X obj 45 191 outlet~;
#X connect 0 0 1 0;
#X connect 1 0 2 0;
#X connect 2 0 4 0;
#X connect 3 0 2 1;
#X restore 355 390 pd play_sound;
#N canvas 0 50 450 300 play_sound 0;
#X obj 40 49 inlet;
#X obj 39 101 readsf~;
#X obj 45 165 *~;
#X obj 68 131 inlet;
#X obj 45 191 outlet~;
#X connect 0 0 1 0;
#X connect 1 0 2 0;
#X connect 2 0 4 0;
#X connect 3 0 2 1;
#X restore 673 386 pd play_sound;
#N canvas 0 50 450 300 play_sound 0;
#X obj 40 49 inlet;
#X obj 39 101 readsf~;
#X obj 45 165 *~;
#X obj 68 131 inlet;
#X obj 45 191 outlet~;
#X connect 0 0 1 0;
#X connect 1 0 2 0;
#X connect 2 0 4 0;
#X connect 3 0 2 1;
#X restore 523 386 pd play_sound;
#N canvas 0 50 450 300 play_sound 0;
#X obj 40 49 inlet;
#X obj 39 101 readsf~;
#X obj 45 165 *~;
#X obj 68 131 inlet;
#X obj 45 191 outlet~;
#X connect 0 0 1 0;
#X connect 1 0 2 0;
#X connect 2 0 4 0;
#X connect 3 0 2 1;
#X restore 841 394 pd play_sound;
#X obj 450 125 mod 4;
#N canvas 0 50 450 300 play_sound 0;
#X obj 40 49 inlet;
#X obj 39 101 readsf~;
#X obj 45 165 *~;
#X obj 68 131 inlet;
#X obj 45 213 outlet~;
#X connect 0 0 1 0;
#X connect 1 0 2 0;
#X connect 2 0 4 0;
#X connect 3 0 2 1;
#X restore 70 330 pd play_sound;
#X obj 33 149 sel 0 2 4;
#X obj 65 248 int;
#X obj 92 249 + 1;
#X obj 65 271 mod 4;
#X obj 44 339 bng 15 250 50 0 empty empty empty 17 7 0 10 -262144 -1
-1;
#X obj 25 249 bng 15 250 50 0 empty empty empty 17 7 0 10 -262144 -1
-1;
#X obj 286 153 sel 0 1 5;
#X obj 104 270 moses 2;
#X obj 451 152 sel 0 3;
#X msg 37 191 open bass/Bb.wav \, 1;
#X msg 19 221 open bass/Bb.wav \, 1;
#X msg 441 195 open bass/Bb.wav \, 1;
#X msg 604 197 open bass/Bb.wav \, 1;
#X msg 769 194 open bass/Bb.wav \, 1;
#X msg 315 193 open bass/G.wav \, 1;
#X msg 240 227 open bass/D.wav \, 1;
#X msg 181 298 open bass/G.wav \, 1;
#X msg 42 300 open bass/Ab.wav \, 1;
#X connect 0 0 8 0;
#X connect 2 0 1 0;
#X connect 3 0 1 0;
#X connect 4 0 3 1;
#X connect 4 0 11 1;
#X connect 4 0 12 1;
#X connect 4 0 14 1;
#X connect 4 0 13 1;
#X connect 4 0 15 1;
#X connect 4 0 2 1;
#X connect 4 0 17 1;
#X connect 6 0 18 0;
#X connect 7 0 24 0;
#X connect 8 0 9 0;
#X connect 8 1 7 0;
#X connect 8 1 16 0;
#X connect 9 0 6 0;
#X connect 9 1 7 0;
#X connect 9 1 6 0;
#X connect 10 0 5 0;
#X connect 11 0 1 0;
#X connect 12 0 1 0;
#X connect 13 0 1 0;
#X connect 14 0 1 0;
#X connect 15 0 1 0;
#X connect 16 0 26 0;
#X connect 17 0 1 0;
#X connect 18 0 28 0;
#X connect 18 2 27 0;
#X connect 19 0 20 0;
#X connect 19 0 21 0;
#X connect 20 0 19 1;
#X connect 21 0 25 0;
#X connect 24 0 33 0;
#X connect 24 2 32 0;
#X connect 25 0 35 0;
#X connect 25 1 34 0;
#X connect 26 0 29 0;
#X connect 26 1 30 0;
#X connect 27 0 10 0;
#X connect 27 0 2 0;
#X connect 28 0 3 0;
#X connect 28 0 10 0;
#X connect 28 0 23 0;
#X connect 29 0 14 0;
#X connect 29 0 10 0;
#X connect 30 0 13 0;
#X connect 30 0 10 0;
#X connect 31 0 15 0;
#X connect 31 0 10 0;
#X connect 32 0 11 0;
#X connect 32 0 10 0;
#X connect 33 0 12 0;
#X connect 33 0 10 0;
#X connect 34 0 17 0;
#X connect 35 0 22 0;
#X connect 35 0 17 0;
#X restore 18 277 pd bass;
#N canvas 514 377 1219 593 voice_2 0;
#X obj 44 35 inlet;
#X obj 74 120 mod 40;
#X obj 230 227 mod 2;
#X obj 44 61 moses 87;
#X obj 80 91 - 82;
#X obj 216 195 sel 18 34;
#X obj 175 227 sel 0;
#X obj 352 178 sel 7 15 19 23 31 35 39;
#X obj 571 178 sel 9 18 25 34;
#X obj 752 172 sel 17 33;
#N canvas 0 50 450 300 play_sound 0;
#X obj 40 49 inlet;
#X obj 39 101 readsf~;
#X obj 45 165 *~;
#X obj 68 131 inlet;
#X obj 45 191 outlet~;
#X connect 0 0 1 0;
#X connect 1 0 2 0;
#X connect 2 0 4 0;
#X connect 3 0 2 1;
#X restore 26 363 pd play_sound;
#N canvas 0 50 450 300 play_sound 0;
#X obj 40 49 inlet;
#X obj 39 101 readsf~;
#X obj 45 165 *~;
#X obj 68 131 inlet;
#X obj 45 191 outlet~;
#X connect 0 0 1 0;
#X connect 1 0 2 0;
#X connect 2 0 4 0;
#X connect 3 0 2 1;
#X restore 178 375 pd play_sound;
#N canvas 0 50 450 300 play_sound 0;
#X obj 40 49 inlet;
#X obj 39 101 readsf~;
#X obj 45 165 *~;
#X obj 68 131 inlet;
#X obj 45 191 outlet~;
#X connect 0 0 1 0;
#X connect 1 0 2 0;
#X connect 2 0 4 0;
#X connect 3 0 2 1;
#X restore 378 392 pd play_sound;
#N canvas 0 50 450 300 play_sound 0;
#X obj 40 49 inlet;
#X obj 39 101 readsf~;
#X obj 45 165 *~;
#X obj 68 131 inlet;
#X obj 45 191 outlet~;
#X connect 0 0 1 0;
#X connect 1 0 2 0;
#X connect 2 0 4 0;
#X connect 3 0 2 1;
#X restore 578 391 pd play_sound;
#X obj 391 528 outlet~;
#N canvas 0 50 450 300 play_sound 0;
#X obj 40 49 inlet;
#X obj 39 101 readsf~;
#X obj 45 165 *~;
#X obj 68 131 inlet;
#X obj 45 191 outlet~;
#X connect 0 0 1 0;
#X connect 1 0 2 0;
#X connect 2 0 4 0;
#X connect 3 0 2 1;
#X restore 751 392 pd play_sound;
#X text 125 77 Make nice offset;
#X text 152 251 x : x>5 \, x%2==0 \, [18 \, 34];
#X obj 444 342 inlet;
#X text 492 342 Volume;
#X obj 890 373 outlet;
#X obj 871 329 route 1;
#X obj 154 196 moses 8;
#X obj 12 176 sel 11 27;
#X msg 28 288 open V2/C.wav \, 1;
#X msg 174 290 open V2/D.wav \, 1;
#X msg 377 282 open V2/Eb.wav \, 1;
#X msg 598 289 open V2/G.wav \, 1;
#X msg 768 288 open V2/Bb.wav \, 1;
#X connect 0 0 3 0;
#X connect 1 0 7 0;
#X connect 1 0 8 0;
#X connect 1 0 9 0;
#X connect 1 0 22 0;
#X connect 1 0 23 0;
#X connect 2 0 6 0;
#X connect 3 1 4 0;
#X connect 4 0 1 0;
#X connect 5 2 2 0;
#X connect 6 0 25 0;
#X connect 7 0 26 0;
#X connect 7 1 26 0;
#X connect 7 2 26 0;
#X connect 7 3 26 0;
#X connect 7 4 26 0;
#X connect 7 5 26 0;
#X connect 7 6 26 0;
#X connect 8 0 27 0;
#X connect 8 1 27 0;
#X connect 8 2 27 0;
#X connect 8 3 27 0;
#X connect 9 0 28 0;
#X connect 9 1 28 0;
#X connect 10 0 14 0;
#X connect 11 0 14 0;
#X connect 12 0 14 0;
#X connect 13 0 14 0;
#X connect 15 0 14 0;
#X connect 18 0 10 1;
#X connect 18 0 11 1;
#X connect 18 0 13 1;
#X connect 18 0 12 1;
#X connect 18 0 15 1;
#X connect 21 0 20 0;
#X connect 22 1 5 0;
#X connect 23 0 24 0;
#X connect 23 1 24 0;
#X connect 24 0 10 0;
#X connect 24 0 21 0;
#X connect 25 0 11 0;
#X connect 25 0 21 0;
#X connect 26 0 12 0;
#X connect 26 0 21 0;
#X connect 27 0 13 0;
#X connect 27 0 21 0;
#X connect 28 0 15 0;
#X connect 28 0 21 0;
#X restore 328 278 pd voice_2;
#N canvas 566 46 597 479 FX 0;
#X obj 30 303 outlet~;
#X obj 31 25 inlet~;
#N canvas 0 23 740 505 reverb 0;
#X obj 162 49 inlet~;
#X obj 144 364 outlet~;
#X floatatom 444 156 0 0 120 0 - - -;
#X text 485 156 level \, dB;
#X floatatom 472 173 0 0 100 0 - - -;
#X text 513 173 liveness \, 0-100;
#X floatatom 507 197 4 0 5000 0 - - -;
#X floatatom 542 220 0 0 100 0 - - -;
#X text 555 195 crossover frequency \, Hz.;
#X text 578 222 HF damping \, percent;
#X obj 235 233 rev3~ 100 90 3000 20;
#X obj 247 331 *~;
#X floatatom 317 299 5 0 0 0 - - -;
#X obj 26 288 *~;
#X floatatom 66 261 5 0 0 0 - - -;
#X text 355 299 wet reverb signal;
#X text 103 264 "dry" signal;
#X floatatom 410 59 5 0 0 0 - - -;
#X obj 250 87 expr 1 - $f1;
#X obj 438 31 inlet;
#X connect 0 0 13 0;
#X connect 0 0 10 0;
#X connect 2 0 10 2;
#X connect 4 0 10 3;
#X connect 6 0 10 4;
#X connect 7 0 10 5;
#X connect 10 0 11 0;
#X connect 10 1 11 0;
#X connect 10 2 11 0;
#X connect 10 3 11 0;
#X connect 11 0 1 0;
#X connect 12 0 11 1;
#X connect 13 0 1 0;
#X connect 14 0 13 1;
#X connect 17 0 12 0;
#X connect 17 0 18 0;
#X connect 18 0 14 0;
#X connect 19 0 17 0;
#X restore 32 215 pd reverb;
#N canvas 52 386 661 298 delayLine 0;
#X floatatom 323 92 5 0 0 0 - - -;
#X obj 308 151 +~;
#X obj 107 28 inlet~;
#X obj 352 262 outlet~;
#X obj 155 256 *~;
#X floatatom 170 219 5 0 0 0 - - -;
#X obj 350 45 inlet;
#X obj 195 184 inlet;
#X obj 36 147 delwrite~ bassdel_line 2000;
#X obj 323 121 delread4~ bassdel_line;
#X connect 0 0 9 0;
#X connect 1 0 3 0;
#X connect 1 0 4 0;
#X connect 2 0 1 0;
#X connect 2 0 8 0;
#X connect 4 0 8 0;
#X connect 5 0 4 1;
#X connect 6 0 0 0;
#X connect 7 0 5 0;
#X connect 9 0 1 1;
#X restore 31 102 pd delayLine;
#X obj 71 51 receive bassDelayFB;
#X obj 112 77 receive bassDelayTime;
#X obj 92 185 receive bassReverb;
#X text 283 34 Must set new name for delwrite;
#X text 277 57 For each instance of delayLine;
#X connect 1 0 3 0;
#X connect 2 0 0 0;
#X connect 3 0 2 0;
#X connect 4 0 3 1;
#X connect 5 0 3 2;
#X connect 6 0 2 1;
#X restore 62 453 pd FX;
#X obj 60 255 r bassVol;
#X obj 237 279 bng 15 250 50 0 empty empty empty 17 7 0 10 -262144
-1 -1;
#X obj 413 281 bng 15 250 50 0 empty empty empty 17 7 0 10 -262144
-1 -1;
#X obj 86 279 bng 15 250 50 0 empty empty empty 17 7 0 10 -262144 -1
-1;
#N canvas 0 50 569 416 FX 0;
#X obj 30 303 outlet~;
#X obj 31 25 inlet~;
#N canvas 0 23 740 505 reverb 0;
#X obj 162 49 inlet~;
#X obj 144 364 outlet~;
#X floatatom 444 156 0 0 120 0 - - -;
#X text 485 156 level \, dB;
#X floatatom 472 173 0 0 100 0 - - -;
#X text 513 173 liveness \, 0-100;
#X floatatom 507 197 4 0 5000 0 - - -;
#X floatatom 542 220 0 0 100 0 - - -;
#X text 555 195 crossover frequency \, Hz.;
#X text 578 222 HF damping \, percent;
#X obj 235 233 rev3~ 100 90 3000 20;
#X obj 247 331 *~;
#X floatatom 317 299 5 0 0 0 - - -;
#X obj 26 288 *~;
#X floatatom 66 261 5 0 0 0 - - -;
#X text 355 299 wet reverb signal;
#X text 103 264 "dry" signal;
#X floatatom 410 59 5 0 0 0 - - -;
#X obj 250 87 expr 1 - $f1;
#X obj 438 31 inlet;
#X connect 0 0 13 0;
#X connect 0 0 10 0;
#X connect 2 0 10 2;
#X connect 4 0 10 3;
#X connect 6 0 10 4;
#X connect 7 0 10 5;
#X connect 10 0 11 0;
#X connect 10 1 11 0;
#X connect 10 2 11 0;
#X connect 10 3 11 0;
#X connect 11 0 1 0;
#X connect 12 0 11 1;
#X connect 13 0 1 0;
#X connect 14 0 13 1;
#X connect 17 0 12 0;
#X connect 17 0 18 0;
#X connect 18 0 14 0;
#X connect 19 0 17 0;
#X restore 32 215 pd reverb;
#N canvas 52 386 661 298 delayLine 0;
#X floatatom 323 92 5 0 0 0 - - -;
#X obj 308 151 +~;
#X obj 107 28 inlet~;
#X obj 352 262 outlet~;
#X obj 155 256 *~;
#X floatatom 170 219 5 0 0 0 - - -;
#X obj 350 45 inlet;
#X obj 36 147 delwrite~ V1del_line 2000;
#X obj 323 121 delread4~ V1del_line;
#X obj 195 184 inlet;
#X connect 0 0 8 0;
#X connect 1 0 3 0;
#X connect 1 0 4 0;
#X connect 2 0 1 0;
#X connect 2 0 7 0;
#X connect 4 0 7 0;
#X connect 5 0 4 1;
#X connect 6 0 0 0;
#X connect 8 0 1 1;
#X connect 9 0 5 0;
#X restore 31 102 pd delayLine;
#X obj 71 51 receive V1DelayFB;
#X obj 112 77 receive V1DelayTime;
#X obj 92 185 receive V1Reverb;
#X connect 1 0 3 0;
#X connect 2 0 0 0;
#X connect 3 0 2 0;
#X connect 4 0 3 1;
#X connect 5 0 3 2;
#X connect 6 0 2 1;
#X restore 184 448 pd FX;
#N canvas 279 233 550 550 FX 0;
#X obj 30 303 outlet~;
#X obj 31 25 inlet~;
#N canvas 0 23 740 505 reverb 0;
#X obj 162 49 inlet~;
#X obj 144 364 outlet~;
#X floatatom 444 156 0 0 120 0 - - -;
#X text 485 156 level \, dB;
#X floatatom 472 173 0 0 100 0 - - -;
#X text 513 173 liveness \, 0-100;
#X floatatom 507 197 4 0 5000 0 - - -;
#X floatatom 542 220 0 0 100 0 - - -;
#X text 555 195 crossover frequency \, Hz.;
#X text 578 222 HF damping \, percent;
#X obj 235 233 rev3~ 100 90 3000 20;
#X obj 247 331 *~;
#X floatatom 317 299 5 0 0 0 - - -;
#X obj 26 288 *~;
#X floatatom 66 261 5 0 0 0 - - -;
#X text 355 299 wet reverb signal;
#X text 103 264 "dry" signal;
#X floatatom 410 59 5 0 0 0 - - -;
#X obj 250 87 expr 1 - $f1;
#X obj 438 31 inlet;
#X connect 0 0 13 0;
#X connect 0 0 10 0;
#X connect 2 0 10 2;
#X connect 4 0 10 3;
#X connect 6 0 10 4;
#X connect 7 0 10 5;
#X connect 10 0 11 0;
#X connect 10 1 11 0;
#X connect 10 2 11 0;
#X connect 10 3 11 0;
#X connect 11 0 1 0;
#X connect 12 0 11 1;
#X connect 13 0 1 0;
#X connect 14 0 13 1;
#X connect 17 0 12 0;
#X connect 17 0 18 0;
#X connect 18 0 14 0;
#X connect 19 0 17 0;
#X restore 32 215 pd reverb;
#X obj 92 185 receive V2Reverb;
#N canvas 52 386 661 298 delayLine 0;
#X floatatom 323 92 5 0 0 0 - - -;
#X obj 308 151 +~;
#X obj 107 28 inlet~;
#X obj 352 262 outlet~;
#X obj 155 256 *~;
#X floatatom 170 219 5 0 0 0 - - -;
#X obj 350 45 inlet;
#X obj 195 184 inlet;
#X obj 36 147 delwrite~ V2del_line 2000;
#X obj 323 121 delread4~ V2del_line;
#X connect 0 0 9 0;
#X connect 1 0 3 0;
#X connect 1 0 4 0;
#X connect 2 0 1 0;
#X connect 2 0 8 0;
#X connect 4 0 8 0;
#X connect 5 0 4 1;
#X connect 6 0 0 0;
#X connect 7 0 5 0;
#X connect 9 0 1 1;
#X restore 31 102 pd delayLine;
#X obj 112 77 receive V2DelayTime;
#X obj 71 51 receive V2DelayFB;
#X text 283 34 Must set new name for delwrite;
#X text 277 57 For each instance of delayLine;
#X connect 1 0 4 0;
#X connect 2 0 0 0;
#X connect 3 0 2 1;
#X connect 4 0 2 0;
#X connect 5 0 4 2;
#X connect 6 0 4 1;
#X restore 283 449 pd FX;
#X obj 206 255 r V1Vol;
#X obj 380 255 r V2Vol;
#X obj 155 507 outlet~;
#X obj 135 358 *~;
#X obj 162 358 r keyVol;
#X obj 135 383 *~;
#N canvas 0 50 450 300 VolScale 0;
#X obj 28 22 r globalVol;
#X obj 28 68 line;
#X obj 28 91 outlet~;
#X msg 28 45 \$1 500;
#X connect 0 0 3 0;
#X connect 1 0 2 0;
#X connect 3 0 1 0;
#X restore 164 384 pd VolScale;
#X obj 382 435 hsl 128 15 0.5 100 0 1 V1Distortion V1Distortion Distortion_Amount
-2 -8 0 10 -262144 -1 -1 0 1;
#X text 394 390 Disabled from FX;
#X obj 74 48 sel 0;
#X msg 65 80 0;
#X obj 127 172 + 0;
#X connect 0 0 3 0;
#X connect 0 0 28 0;
#X connect 1 0 4 0;
#X connect 2 0 3 1;
#X connect 3 0 1 0;
#X connect 4 0 5 0;
#X connect 4 0 6 0;
#X connect 5 0 4 1;
#X connect 6 0 30 0;
#X connect 9 0 22 0;
#X connect 9 1 14 0;
#X connect 10 0 22 0;
#X connect 10 1 16 0;
#X connect 11 0 22 0;
#X connect 11 1 15 0;
#X connect 12 0 21 0;
#X connect 13 0 10 1;
#X connect 17 0 21 0;
#X connect 18 0 21 0;
#X connect 19 0 9 1;
#X connect 20 0 11 1;
#X connect 22 0 24 0;
#X connect 23 0 22 1;
#X connect 24 0 12 0;
#X connect 24 0 17 0;
#X connect 24 0 18 0;
#X connect 25 0 24 1;
#X connect 28 0 29 0;
#X connect 29 0 4 1;
#X connect 30 0 10 0;
#X connect 30 0 9 0;
#X connect 30 0 11 0;
#X restore 535 496 pd keyboard;
#X obj 714 460 inlet;
#X text 574 366 Change index of counter;
#N canvas 78 392 755 448 noteMessages 0;
#X obj 57 10 r noteMsg;
#X obj 234 201 oscformat PD message;
#X msg 266 162 set PD message;
#X obj 234 236 s oscOut;
#X text 233 93 ascii code (p);
#X msg 237 128 112;
#X connect 1 0 3 0;
#X connect 2 0 1 0;
#X connect 5 0 1 0;
#X restore 81 132 pd noteMessages;
#X obj 493 202 loadbang;
#X text 551 200 init restart;
#X obj 451 111 cnv 15 20 20 empty empty Start/Stop_instructions 20
12 0 14 -204786 -66577 0;
#X obj 775 380 cnv 15 20 20 empty empty Instruments 20 12 0 20 -204800
-66577 0;
#X text 762 472 Modulus for;
#X text 695 489 spacing keyboard notes;
#X obj 665 433 loadbang;
#X msg 665 456 3;
#X obj 179 501 s OnOffLine;
#X obj 523 582 outlet~;
#X obj 173 346 r beatToggle;
#X msg 587 388 0, f 2;
#X msg 618 389 240;
#X text 774 242 Abandoned (too annoying);
#X msg 214 443 1 10000;
#X msg 150 439 0 1000;
#X connect 6 0 9 1;
#X connect 6 0 19 0;
#X connect 7 0 6 0;
#X connect 8 0 6 0;
#X connect 9 0 10 0;
#X connect 10 0 8 0;
#X connect 11 0 12 0;
#X connect 12 0 7 0;
#X connect 12 1 9 0;
#X connect 12 2 13 0;
#X connect 13 0 19 1;
#X connect 15 0 33 0;
#X connect 16 0 40 0;
#X connect 16 1 39 0;
#X connect 18 0 34 0;
#X connect 19 0 18 0;
#X connect 19 1 21 0;
#X connect 19 1 20 0;
#X connect 21 0 34 0;
#X connect 22 0 21 1;
#X connect 25 0 13 0;
#X connect 31 0 32 0;
#X connect 32 0 21 1;
#X connect 35 0 16 0;
#X connect 36 0 19 1;
#X connect 37 0 19 1;
#X connect 39 0 15 0;
#X connect 40 0 15 0;
#X restore 536 335 pd MainController;
#N canvas 0 50 450 300 write_file 0;
#X obj 104 142 writesf~ 2;
#X msg 139 63 stop, f 5;
#X obj 53 63 inlet~;
#X msg 213 63 open L-beattmp.wav \, start;
#X obj 184 3 inlet;
#X obj 185 31 route stop record;
#X connect 1 0 0 0;
#X connect 2 0 0 0;
#X connect 2 0 0 1;
#X connect 3 0 0 0;
#X connect 4 0 5 0;
#X connect 5 0 1 0;
#X connect 5 1 3 0;
#X restore 593 394 pd write_file;
#X msg 698 370 stop;
#X msg 643 368 record;
#X msg 647 294 2;
#X msg 679 291 3;
#X obj 861 181 hsl 100 15 0 1 0 1 globalVol globalVol Global_Volume
-2 -8 0 10 -262144 -1 -1 4300 1;
#X text 842 226 Contains Global Vars;
#X text 900 247 for voices;
#X obj 525 390 dac~;
#X obj 877 134 tgl 15 0 beatToggle beatToggle Beat_toggle 20 10 0 10
-262144 -1 -1 1 1;
#X obj 682 318 r changemod;
#X text 795 80 Tempo Choice Fast to Slow;
#X msg 611 103 1;
#X msg 647 104 2;
#X msg 688 105 3;
#X msg 726 105 4;
#X msg 766 104 5;
#X msg 806 102 6;
#X msg 845 100 7;
#X obj 728 135 s globalTempo;
#X obj 595 206 r Ytrig;
#X obj 665 182 r initTrig;
#X obj 554 226 t b b;
#X obj 519 197 sel 0;
#X obj 519 169 r audioTrig;
#X obj 665 205 t b b b;
#X msg 701 237 0;
#X obj 701 260 s beatToggle;
#X obj 647 52 r beatToggle;
#X obj 647 75 sel 0 1;
#X obj 727 78 loadbang;
#X connect 6 0 10 0;
#X connect 8 0 9 0;
#X connect 10 0 13 0;
#X connect 11 0 10 0;
#X connect 15 0 20 0;
#X connect 16 0 20 0;
#X connect 17 0 20 0;
#X connect 18 0 8 0;
#X connect 20 0 29 0;
#X connect 20 0 29 1;
#X connect 20 0 21 0;
#X connect 22 0 21 1;
#X connect 23 0 21 1;
#X connect 24 0 20 1;
#X connect 25 0 20 1;
#X connect 31 0 20 1;
#X connect 33 0 40 0;
#X connect 34 0 40 0;
#X connect 35 0 40 0;
#X connect 36 0 40 0;
#X connect 37 0 40 0;
#X connect 38 0 40 0;
#X connect 39 0 40 0;
#X connect 41 0 17 0;
#X connect 42 0 46 0;
#X connect 43 0 16 0;
#X connect 43 1 17 0;
#X connect 44 0 15 0;
#X connect 44 1 43 0;
#X connect 45 0 44 0;
#X connect 46 0 15 0;
#X connect 46 1 17 0;
#X connect 46 2 47 0;
#X connect 47 0 48 0;
#X connect 49 0 50 0;
#X connect 50 0 36 0;
#X connect 50 1 35 0;
#X connect 51 0 36 0;
