#N canvas 353 25 1298 640 10;
#X text 177 277 creation arguments are OSC address;
#X text 179 238 set message to change OSC address;
#X text 164 48 1 Set IP Address : network address;
#X text 164 68 2 Set Ports (sending and listening);
#X text 164 87 3 Set OSC Addresses (routing osc data;
#X text 155 26 Key Settings;
#X floatatom 43 194 5 0 0 0 - - -;
#N canvas 261 29 623 458 oscReceive 0;
#X obj 55 184 netreceive -u -b;
#X msg 78 143 listen 0;
#X text 152 143 stop listening;
#X text 64 58 packets from network;
#X text 173 177 UDP packets \, binary output, f 13;
#X obj 45 314 print;
#X obj 45 272 oscparse;
#X text 150 114 listen on port 8000;
#X obj 177 269 oscparse;
#X obj 177 293 list trim;
#X text 241 267 Parse the OSC message;
#X obj 177 319 route unity;
#X msg 66 115 listen 8000;
#X obj 66 84 loadbang;
#X obj 123 375 route jump;
#X obj 200 375 route damage;
#X floatatom 200 398 5 0 0 0 - - -;
#X obj 200 420 s damagetrig;
#X obj 124 425 s jumptrig;
#X obj 125 400 bng 15 250 50 0 empty empty empty 17 7 0 10 -262144
-1 -1;
#X obj 288 374 route death;
#X obj 287 421 s deathtrig;
#X obj 41 377 route start;
#X obj 41 402 bng 15 250 50 0 empty empty empty 17 7 0 10 -262144 -1
-1;
#X obj 41 422 s starttrig;
#X obj 377 375 route score;
#X floatatom 377 398 5 0 0 0 - - -;
#X obj 377 420 s updatescore;
#X obj 289 400 bng 15 250 50 0 empty empty empty 17 7 0 10 -262144
-1 -1;
#X connect 0 0 6 0;
#X connect 0 0 8 0;
#X connect 1 0 0 0;
#X connect 6 0 5 0;
#X connect 8 0 9 0;
#X connect 9 0 11 0;
#X connect 11 0 14 0;
#X connect 11 0 15 0;
#X connect 11 0 20 0;
#X connect 11 0 22 0;
#X connect 11 0 25 0;
#X connect 12 0 0 0;
#X connect 13 0 12 0;
#X connect 14 0 19 0;
#X connect 15 0 16 0;
#X connect 16 0 17 0;
#X connect 19 0 18 0;
#X connect 20 0 28 0;
#X connect 22 0 23 0;
#X connect 23 0 24 0;
#X connect 25 0 26 0;
#X connect 26 0 27 0;
#X connect 28 0 21 0;
#X restore 47 142 pd oscReceive;
#X obj 47 36 tgl 15 0 empty empty empty 17 7 0 10 -262144 -1 -1 1 1
;
#X msg 47 61 \; pd dsp \$1;
#X obj 44 278 oscformat PD message;
#X msg 76 239 set PD message;
#N canvas 400 1 450 300 oscSend 0;
#X msg 158 207 disconnect;
#X obj 61 253 netsend -u -b;
#X obj 59 55 list prepend send;
#X obj 59 80 list trim;
#X obj 59 29 r oscOut;
#X obj 147 108 loadbang;
#X msg 147 148 connect localhost 8001;
#X msg 150 175 connect 127.0.0.1 8001;
#X text 301 163 send to port 8001;
#X connect 0 0 1 0;
#X connect 2 0 3 0;
#X connect 3 0 1 0;
#X connect 4 0 2 0;
#X connect 5 0 6 0;
#X connect 6 0 1 0;
#X connect 7 0 1 0;
#X restore 47 118 pd oscSend;
#X obj 44 313 s oscOut;
#N canvas 208 222 1383 801 Pablo 1;
#X obj 705 365 textfile;
#X msg 685 281 bang;
#X obj 612 194 int;
#X obj 646 199 + 1;
#X obj 613 226 mod;
#X obj 588 432 s dyn_mod;
#X obj 648 225 r dyn_mod;
#X obj 685 406 route float;
#X msg 556 281 rewind \, bang \, bang;
#X obj 647 112 hsl 128 15 50 200 0 1 empty empty empty -2 -8 0 10 -262144
-1 -1 7300 1;
#X obj 612 136 metro;
#X floatatom 659 135 5 0 0 0 - - -;
#X obj 680 449 route F + - [ ];
#X obj 519 562 readsf~;
#X obj 388 561 readsf~;
#X obj 949 573 readsf~;
#X obj 661 567 readsf~;
#X obj 813 576 readsf~;
#X obj 388 587 *~;
#X obj 520 588 *~;
#X obj 661 593 *~;
#X obj 813 602 *~;
#X obj 949 599 *~;
#X obj 832 281 loadbang;
#X msg 817 130 clear \, read L-Text/L0.txt \, rewind;
#X msg 818 157 clear \, read L-Text/L1.txt \, rewind;
#X msg 824 190 clear \, read L-Text/L2.txt \, rewind;
#X msg 823 221 clear \, read L-Text/L3.txt \, rewind;
#X msg 827 254 clear \, read L-Text/L4.txt \, rewind;
#X msg 831 305 clear \, read L-Text/L5.txt \, rewind;
#X msg 354 508 open Samples/0.wav \, 1;
#X msg 521 512 open Samples/1.wav \, 1;
#X msg 683 514 open Samples/2.wav \, 1;
#X msg 1006 514 open Samples/Block.wav \, 1;
#X obj 205 9 cnv 15 500 60 empty empty L_System_Beat 135 25 0 30 -232576
-66577 0;
#X obj 447 544 vsl 15 50 0 1 0 1 empty empty empty 0 -9 0 10 -262144
-1 -1 3000 1;
#X obj 577 553 vsl 15 50 0 1 0 1 empty empty empty 0 -9 0 10 -262144
-1 -1 3200 1;
#X obj 745 547 vsl 15 50 0 1 0 1 empty empty empty 0 -9 0 10 -262144
-1 -1 2800 1;
#X obj 876 552 vsl 15 50 0 1 0 1 empty empty empty 0 -9 0 10 -262144
-1 -1 3900 1;
#X obj 1016 553 vsl 15 50 0 1 0 1 empty empty empty 0 -9 0 10 -262144
-1 -1 3300 1;
#X obj 588 107 inlet;
#X msg 626 166 1;
#X obj 583 249 sel 0 1000 2000 3000 4000 5000 6000;
#X msg 830 514 open Samples/Block.wav \, 1;
#X obj 322 437 *~ 0.1;
#X obj 321 402 *~;
#X obj 301 342 phasor~;
#X text 20 350 90x4 70x4 ...;
#X text 25 380 432x8 444x5 90x8 200 400 500;
#X text 51 317 150;
#X floatatom 294 281 5 0 0 0 - - -;
#X obj 235 340 phasor~;
#X text 57 282 450;
#X obj 471 350 osc~;
#X obj 471 373 *~;
#X obj 49 224 delay;
#X obj 759 723 outlet~;
#X obj 322 460 outlet~;
#X obj 363 288 bng 15 250 50 0 empty empty empty 17 7 0 10 -262144
-1 -1;
#X msg 434 219 72;
#X msg 300 228 549;
#X msg 389 213 80;
#X obj 235 175 route 0 4 8 16 24;
#X obj 336 122 moses 32;
#X obj 336 99 mod 64;
#X obj 384 157 - 32;
#X obj 184 652 oscformat PD message;
#X msg 216 613 set PD message;
#X obj 184 687 s oscOut;
#X text 142 522 ascii code (p);
#X obj 311 537 bng 15 250 50 0 empty empty empty 17 7 0 10 -262144
-1 -1;
#X obj 224 569 nbx 5 14 -1e+037 1e+037 0 0 empty empty empty 0 -8 0
10 -262144 -1 -1 0 256;
#X obj 325 315 nbx 5 14 -1e+037 1e+037 0 1 empty empty empty 0 -8 0
10 -262144 -1 -1 400 256;
#X msg 151 232 500;
#X msg 183 233 420;
#X msg 217 232 410;
#X msg 256 231 395;
#X obj 389 190 moses 6;
#X connect 0 0 7 0;
#X connect 1 0 0 0;
#X connect 2 0 3 0;
#X connect 2 0 4 0;
#X connect 2 0 64 0;
#X connect 3 0 2 1;
#X connect 4 0 42 0;
#X connect 6 0 4 1;
#X connect 7 0 5 0;
#X connect 7 1 12 0;
#X connect 8 0 0 0;
#X connect 9 0 10 1;
#X connect 9 0 11 0;
#X connect 10 0 2 0;
#X connect 11 0 53 0;
#X connect 12 0 30 0;
#X connect 12 1 31 0;
#X connect 12 2 32 0;
#X connect 12 3 43 0;
#X connect 12 4 33 0;
#X connect 13 0 19 0;
#X connect 14 0 18 0;
#X connect 15 0 22 0;
#X connect 16 0 20 0;
#X connect 17 0 21 0;
#X connect 18 0 56 0;
#X connect 19 0 56 0;
#X connect 20 0 56 0;
#X connect 21 0 56 0;
#X connect 22 0 56 0;
#X connect 23 0 29 0;
#X connect 24 0 0 0;
#X connect 25 0 0 0;
#X connect 26 0 0 0;
#X connect 27 0 0 0;
#X connect 28 0 0 0;
#X connect 29 0 0 0;
#X connect 30 0 14 0;
#X connect 31 0 13 0;
#X connect 32 0 16 0;
#X connect 33 0 15 0;
#X connect 35 0 18 1;
#X connect 36 0 19 1;
#X connect 37 0 20 1;
#X connect 38 0 21 1;
#X connect 39 0 22 1;
#X connect 40 0 10 0;
#X connect 41 0 2 1;
#X connect 42 0 8 0;
#X connect 42 0 41 0;
#X connect 42 1 29 0;
#X connect 42 2 27 0;
#X connect 42 3 25 0;
#X connect 42 4 28 0;
#X connect 42 5 24 0;
#X connect 42 6 26 0;
#X connect 42 7 1 0;
#X connect 43 0 17 0;
#X connect 44 0 57 0;
#X connect 45 0 44 0;
#X connect 46 0 45 0;
#X connect 50 0 51 0;
#X connect 51 0 45 1;
#X connect 53 0 54 0;
#X connect 54 0 45 0;
#X connect 58 0 72 0;
#X connect 59 0 50 0;
#X connect 60 0 50 0;
#X connect 61 0 50 0;
#X connect 62 0 73 0;
#X connect 62 1 74 0;
#X connect 62 2 75 0;
#X connect 62 3 76 0;
#X connect 62 4 60 0;
#X connect 63 0 62 0;
#X connect 63 1 65 0;
#X connect 64 0 63 0;
#X connect 65 0 77 0;
#X connect 66 0 68 0;
#X connect 67 0 66 0;
#X connect 70 0 71 0;
#X connect 71 0 66 0;
#X connect 72 0 46 0;
#X connect 73 0 50 0;
#X connect 74 0 50 0;
#X connect 75 0 50 0;
#X connect 76 0 50 0;
#X connect 77 0 61 0;
#X connect 77 1 59 0;
#X restore 561 153 pd Pablo Music;
#X obj 566 116 tgl 15 0 empty empty empty 17 7 0 10 -262144 -1 -1 0
1;
#X msg 532 36 0;
#X msg 618 89 1;
#X obj 622 12 r starttrig;
#X obj 530 13 r deathtrig;
#X text 231 465 90x4 70x4 ...;
#X text 353 465 432x8 444x5 90x8 200 400 500;
#X text 450 431 150;
#X text 357 392 450;
#X obj 582 255 dac~;
#X obj 629 178 *~;
#X obj 661 153 hsl 50 15 0 1 0 1 empty empty empty -2 -8 0 10 -262144
-1 -1 2300 1;
#X obj 436 291 writesf~ 2;
#X msg 456 196 start;
#X msg 476 225 stop;
#X msg 414 168 open L-beattmp.wav;
#X obj 586 210 +~;
#X obj 633 219 *~;
#X obj 668 185 nbx 5 14 -1e+037 1e+037 0 0 empty empty empty 0 -8 0
10 -262144 -1 -1 0.5 256;
#X obj 618 38 int;
#X obj 618 61 sel 0;
#X msg 754 175 0 200;
#X obj 805 202 line~;
#X msg 684 101 0.5 200;
#X connect 6 0 10 0;
#X connect 8 0 9 0;
#X connect 10 0 13 0;
#X connect 11 0 10 0;
#X connect 14 0 32 0;
#X connect 14 1 25 0;
#X connect 15 0 14 0;
#X connect 15 0 34 1;
#X connect 16 0 15 0;
#X connect 16 0 36 0;
#X connect 17 0 15 0;
#X connect 18 0 34 0;
#X connect 19 0 16 0;
#X connect 25 0 31 1;
#X connect 26 0 25 1;
#X connect 28 0 27 0;
#X connect 29 0 27 0;
#X connect 30 0 27 0;
#X connect 31 0 24 0;
#X connect 31 0 24 1;
#X connect 31 0 27 0;
#X connect 31 0 27 1;
#X connect 32 0 31 0;
#X connect 33 0 32 1;
#X connect 34 0 35 0;
#X connect 35 0 17 0;
#X connect 35 0 38 0;
#X connect 36 0 37 0;
#X connect 37 0 32 1;
#X connect 38 0 37 0;
