#N canvas 29 192 1298 640 10;
#X text 177 277 creation arguments are OSC address;
#X text 179 238 set message to change OSC address;
#X text 164 48 1 Set IP Address : network address;
#X text 164 68 2 Set Ports (sending and listening);
#X text 164 87 3 Set OSC Addresses (routing osc data;
#X text 155 26 Key Settings;
#X floatatom 43 194 5 0 0 0 - - -;
#N canvas 261 29 1021 501 oscReceive 0;
#X obj 55 184 netreceive -u -b;
#X msg 78 143 listen 0;
#X text 152 143 stop listening;
#X text 64 58 packets from network;
#X text 173 177 UDP packets \, binary output, f 13;
#X obj 45 314 print;
#X obj 45 272 oscparse;
#X text 150 114 listen on port 8000;
#X obj 177 269 oscparse;
#X obj 177 293 list trim;
#X text 241 267 Parse the OSC message;
#X obj 177 319 route unity;
#X msg 66 115 listen 8000;
#X obj 66 84 loadbang;
#X floatatom 381 405 5 0 0 0 - - -;
#X obj 381 427 s damagetrig;
#X obj 305 432 s jumptrig;
#X obj 306 407 bng 15 250 50 0 empty empty empty 17 7 0 10 -262144
-1 -1;
#X obj 468 428 s deathtrig;
#X obj 88 411 bng 15 250 50 0 empty empty empty 17 7 0 10 -262144 -1
-1;
#X floatatom 558 405 5 0 0 0 - - -;
#X obj 558 427 s updatescore;
#X obj 470 407 bng 15 250 50 0 empty empty empty 17 7 0 10 -262144
-1 -1;
#X obj 192 412 bng 15 250 50 0 empty empty empty 17 7 0 10 -262144
-1 -1;
#X obj 243 412 bng 15 250 50 0 empty empty empty 17 7 0 10 -262144
-1 -1;
#X obj 141 411 bng 15 250 50 0 empty empty empty 17 7 0 10 -262144
-1 -1;
#X obj 141 431 s Btrig;
#X obj 243 432 s Ytrig;
#X obj 192 432 s Xtrig;
#X obj 88 431 s Atrig;
#X obj 227 355 route A B X Y jump damage death score start;
#X obj 655 404 bng 15 250 50 0 empty empty empty 17 7 0 10 -262144
-1 -1;
#X obj 654 428 s startTrig;
#X connect 0 0 6 0;
#X connect 0 0 8 0;
#X connect 1 0 0 0;
#X connect 6 0 5 0;
#X connect 8 0 9 0;
#X connect 9 0 11 0;
#X connect 11 0 30 0;
#X connect 12 0 0 0;
#X connect 13 0 12 0;
#X connect 14 0 15 0;
#X connect 17 0 16 0;
#X connect 19 0 29 0;
#X connect 20 0 21 0;
#X connect 22 0 18 0;
#X connect 23 0 28 0;
#X connect 24 0 27 0;
#X connect 25 0 26 0;
#X connect 30 0 19 0;
#X connect 30 1 25 0;
#X connect 30 2 23 0;
#X connect 30 3 24 0;
#X connect 30 4 17 0;
#X connect 30 5 14 0;
#X connect 30 6 22 0;
#X connect 30 7 20 0;
#X connect 30 8 31 0;
#X connect 31 0 32 0;
#X restore 47 142 pd oscReceive;
#X obj 47 36 tgl 15 0 empty empty empty 17 7 0 10 -262144 -1 -1 1 1
;
#X msg 47 61 \; pd dsp \$1;
#X obj 44 278 oscformat PD message;
#X msg 76 239 set PD message;
#N canvas 400 1 450 300 oscSend 0;
#X msg 158 207 disconnect;
#X obj 61 253 netsend -u -b;
#X obj 59 55 list prepend send;
#X obj 59 80 list trim;
#X obj 59 29 r oscOut;
#X obj 147 108 loadbang;
#X msg 147 148 connect localhost 8001;
#X msg 150 175 connect 127.0.0.1 8001;
#X text 301 163 send to port 8001;
#X connect 0 0 1 0;
#X connect 2 0 3 0;
#X connect 3 0 1 0;
#X connect 4 0 2 0;
#X connect 5 0 6 0;
#X connect 6 0 1 0;
#X connect 7 0 1 0;
#X restore 47 118 pd oscSend;
#X obj 44 313 s oscOut;
#X obj 468 39 cnv 15 150 200 empty empty Pablo_Work 20 20 0 20 -203904
-66577 0;
#N canvas 0 50 375 396 GamePlay 0;
#X obj 13 13 cnv 15 320 230 empty empty empty 10 10 0 14 -261234 -66577
0;
#N canvas 478 383 1383 801 Pablo 0;
#X obj 705 365 textfile;
#X msg 685 281 bang;
#X obj 612 194 int;
#X obj 646 199 + 1;
#X obj 613 226 mod;
#X obj 588 432 s dyn_mod;
#X obj 648 225 r dyn_mod;
#X obj 685 406 route float;
#X msg 556 280 rewind \, bang \, bang;
#X obj 647 112 hsl 128 15 50 200 0 1 empty empty empty -2 -8 0 10 -262144
-1 -1 6600 1;
#X obj 612 136 metro;
#X floatatom 659 135 5 0 0 0 - - -;
#X obj 680 449 route F + - [ ];
#X obj 519 562 readsf~;
#X obj 388 561 readsf~;
#X obj 949 573 readsf~;
#X obj 661 567 readsf~;
#X obj 813 576 readsf~;
#X obj 388 587 *~;
#X obj 520 588 *~;
#X obj 661 593 *~;
#X obj 813 602 *~;
#X obj 949 599 *~;
#X obj 832 281 loadbang;
#X msg 817 130 clear \, read L-Text/L0.txt \, rewind;
#X msg 818 157 clear \, read L-Text/L1.txt \, rewind;
#X msg 824 190 clear \, read L-Text/L2.txt \, rewind;
#X msg 823 221 clear \, read L-Text/L3.txt \, rewind;
#X msg 827 254 clear \, read L-Text/L4.txt \, rewind;
#X msg 831 305 clear \, read L-Text/L5.txt \, rewind;
#X msg 354 508 open Samples/0.wav \, 1;
#X msg 521 512 open Samples/1.wav \, 1;
#X msg 683 514 open Samples/2.wav \, 1;
#X msg 1006 514 open Samples/Block.wav \, 1;
#X obj 205 9 cnv 15 500 60 empty empty L_System_Beat 135 25 0 30 -232576
-66577 0;
#X obj 447 544 vsl 15 50 0 1 0 1 empty empty empty 0 -9 0 10 -262144
-1 -1 3000 1;
#X obj 577 553 vsl 15 50 0 1 0 1 empty empty empty 0 -9 0 10 -262144
-1 -1 3200 1;
#X obj 745 547 vsl 15 50 0 1 0 1 empty empty empty 0 -9 0 10 -262144
-1 -1 2800 1;
#X obj 876 552 vsl 15 50 0 1 0 1 empty empty empty 0 -9 0 10 -262144
-1 -1 1200 1;
#X obj 1016 553 vsl 15 50 0 1 0 1 empty empty empty 0 -9 0 10 -262144
-1 -1 3300 1;
#X obj 574 75 inlet;
#X msg 626 166 1;
#X msg 830 514 open Samples/Block.wav \, 1;
#X obj 249 414 *~;
#X obj 203 351 phasor~;
#X text 20 350 90x4 70x4 ...;
#X text 25 380 432x8 444x5 90x8 200 400 500;
#X text 51 317 150;
#X floatatom 294 281 5 0 0 0 - - -;
#X obj 294 318 phasor~;
#X text 57 282 450;
#X obj 471 350 osc~;
#X obj 471 373 *~;
#X obj 49 224 delay;
#X obj 759 723 outlet~;
#X obj 203 307 bng 15 250 50 0 empty empty empty 17 7 0 10 -262144
-1 -1;
#X msg 403 246 72;
#X msg 300 228 549;
#X msg 358 240 80;
#X obj 281 146 moses 32;
#X obj 281 123 mod 64;
#X obj 36 612 oscformat PD message;
#X msg 68 573 set PD message;
#X obj 36 647 s oscOut;
#X text -6 482 ascii code (p);
#X obj 163 497 bng 15 250 50 0 empty empty empty 17 7 0 10 -262144
-1 -1;
#X obj 76 529 nbx 5 14 -1e+037 1e+037 0 0 empty empty empty 0 -8 0
10 -262144 -1 -1 0 256;
#X obj 204 328 nbx 5 14 -1e+037 1e+037 0 1 empty empty empty 0 -8 0
10 -262144 -1 -1 400 256;
#X msg 151 232 500;
#X msg 183 233 420;
#X msg 217 232 410;
#X msg 256 231 395;
#X obj 264 581 r phaseVol;
#X obj 252 610 *~;
#X obj 388 610 *~;
#X obj 420 608 r beatVol;
#X obj 522 616 *~;
#X obj 554 614 r beatVol;
#X obj 658 622 *~;
#X obj 690 620 r beatVol;
#X obj 811 633 *~;
#X obj 843 631 r beatVol;
#X obj 945 627 *~;
#X obj 977 625 r beatVol;
#X obj 448 188 line;
#X obj 425 221 s phaseVol;
#X msg 435 145 0 200;
#X text 251 98 Phasor sequencer;
#X text 910 89 Beat sequencer;
#X text 428 83 Env for on/off phasor;
#X obj 235 175 route 0 4 8 16 24 32 38;
#X obj 509 222 s beatVol;
#X msg 659 167 0;
#X obj 569 254 sel 0 10 100 1000 1500 3000 6000;
#X obj 671 83 s beat_toggle;
#X obj 459 114 route 0 1;
#X obj 703 137 inlet;
#X obj 703 160 route restart;
#X obj 250 441 *~ 0.3;
#X msg 504 179 0.5;
#X connect 0 0 7 0;
#X connect 1 0 0 0;
#X connect 2 0 3 0;
#X connect 2 0 4 0;
#X connect 2 0 60 0;
#X connect 3 0 2 1;
#X connect 4 0 93 0;
#X connect 6 0 4 1;
#X connect 7 0 5 0;
#X connect 7 1 12 0;
#X connect 8 0 0 0;
#X connect 9 0 10 1;
#X connect 9 0 11 0;
#X connect 10 0 2 0;
#X connect 11 0 51 0;
#X connect 12 0 30 0;
#X connect 12 1 31 0;
#X connect 12 2 32 0;
#X connect 12 3 42 0;
#X connect 12 4 33 0;
#X connect 13 0 19 0;
#X connect 14 0 18 0;
#X connect 15 0 22 0;
#X connect 16 0 20 0;
#X connect 17 0 21 0;
#X connect 18 0 74 0;
#X connect 19 0 76 0;
#X connect 20 0 78 0;
#X connect 21 0 80 0;
#X connect 22 0 82 0;
#X connect 23 0 29 0;
#X connect 24 0 0 0;
#X connect 25 0 0 0;
#X connect 26 0 0 0;
#X connect 27 0 0 0;
#X connect 28 0 0 0;
#X connect 29 0 0 0;
#X connect 30 0 14 0;
#X connect 31 0 13 0;
#X connect 32 0 16 0;
#X connect 33 0 15 0;
#X connect 35 0 18 1;
#X connect 36 0 19 1;
#X connect 37 0 20 1;
#X connect 38 0 21 1;
#X connect 39 0 22 1;
#X connect 40 0 10 0;
#X connect 40 0 94 0;
#X connect 40 0 95 0;
#X connect 41 0 2 1;
#X connect 42 0 17 0;
#X connect 43 0 98 0;
#X connect 44 0 43 0;
#X connect 48 0 49 0;
#X connect 49 0 43 1;
#X connect 51 0 52 0;
#X connect 52 0 43 0;
#X connect 55 0 67 0;
#X connect 56 0 48 0;
#X connect 57 0 48 0;
#X connect 58 0 48 0;
#X connect 59 0 90 0;
#X connect 59 1 90 0;
#X connect 60 0 59 0;
#X connect 61 0 63 0;
#X connect 62 0 61 0;
#X connect 65 0 66 0;
#X connect 66 0 61 0;
#X connect 67 0 44 0;
#X connect 68 0 48 0;
#X connect 69 0 48 0;
#X connect 70 0 48 0;
#X connect 71 0 48 0;
#X connect 72 0 73 1;
#X connect 73 0 54 0;
#X connect 74 0 54 0;
#X connect 75 0 74 1;
#X connect 76 0 54 0;
#X connect 77 0 76 1;
#X connect 78 0 54 0;
#X connect 79 0 78 1;
#X connect 80 0 54 0;
#X connect 81 0 80 1;
#X connect 82 0 54 0;
#X connect 83 0 82 1;
#X connect 84 0 85 0;
#X connect 84 0 91 0;
#X connect 86 0 84 0;
#X connect 90 0 68 0;
#X connect 90 1 69 0;
#X connect 90 2 70 0;
#X connect 90 3 71 0;
#X connect 90 4 57 0;
#X connect 90 5 58 0;
#X connect 90 6 56 0;
#X connect 92 0 2 1;
#X connect 93 0 8 0;
#X connect 93 0 41 0;
#X connect 93 1 26 0;
#X connect 93 2 27 0;
#X connect 93 3 25 0;
#X connect 93 4 28 0;
#X connect 93 5 29 0;
#X connect 93 6 24 0;
#X connect 93 7 1 0;
#X connect 95 0 86 0;
#X connect 95 1 99 0;
#X connect 96 0 97 0;
#X connect 97 0 92 0;
#X connect 98 0 73 0;
#X connect 99 0 85 0;
#X connect 99 0 91 0;
#X restore 100 169 pd Pablo Music;
#X obj 95 148 tgl 15 0 empty empty empty 17 7 0 10 -262144 -1 -1 0
1;
#X msg 83 118 0;
#X msg 134 128 1;
#X obj 59 225 dac~;
#X obj 154 78 int;
#X obj 154 101 sel 0;
#X obj 196 88 r beat_toggle;
#X obj 242 22 cnv 15 30 30 empty empty Dont_touch 0 15 0 14 -261234
-66577 0;
#X obj 14 255 cnv 15 320 110 empty empty empty 20 12 0 14 -204786 -66577
0;
#X obj 33 293 hsl 128 15 0 1 0 1 phaseVol phaseVol Phasor_volume -2
-8 0 10 -262144 -1 -1 0 1;
#X obj 33 337 hsl 128 15 0 1 0 1 beatVol beatVol Beat_volume -2 -8
0 10 -262144 -1 -1 0 1;
#X obj 129 256 cnv 15 10 10 empty empty Okay_2_touch 0 15 0 14 -204786
-66577 0;
#N canvas 0 50 450 300 write_file 0;
#X obj 104 142 writesf~ 2;
#X msg 139 63 stop, f 5;
#X obj 53 63 inlet~;
#X msg 213 63 open L-beattmp.wav \, start;
#X obj 184 3 inlet;
#X obj 185 31 route stop record;
#X connect 1 0 0 0;
#X connect 2 0 0 0;
#X connect 2 0 0 1;
#X connect 3 0 0 0;
#X connect 4 0 5 0;
#X connect 5 0 1 0;
#X connect 5 1 3 0;
#X restore 158 219 pd write_file;
#X msg 255 182 stop;
#X msg 208 182 record;
#X msg 172 146 restart;
#X obj 193 57 r Xtrig;
#X obj 238 145 r Ytrig;
#X obj 26 87 r Btrig;
#X obj 78 19 inlet;
#X obj 78 43 route stop start restart;
#X obj 70 193 *~ 0.2;
#X connect 1 0 14 0;
#X connect 1 0 23 0;
#X connect 2 0 1 0;
#X connect 3 0 2 0;
#X connect 4 0 2 0;
#X connect 6 0 7 0;
#X connect 7 0 4 0;
#X connect 8 0 6 1;
#X connect 15 0 14 1;
#X connect 16 0 14 1;
#X connect 17 0 1 1;
#X connect 18 0 6 0;
#X connect 19 0 17 0;
#X connect 20 0 3 0;
#X connect 21 0 22 0;
#X connect 22 0 3 0;
#X connect 22 1 6 0;
#X connect 22 2 17 0;
#X connect 23 0 5 0;
#X connect 23 0 5 1;
#X restore 498 215 pd GamePlay;
#N canvas 814 258 879 503 LoadScreen 0;
#X obj 538 10 cnv 15 300 150 empty empty empty 20 12 0 14 -233017 -66577
0;
#X obj 549 61 hsl 128 15 0 1 0 1 bassVol bassVol gain -2 -8 0 10 -262144
-1 -1 4700 1;
#X text 577 23 Bass line;
#X obj 537 173 cnv 15 300 150 empty empty empty 20 12 0 14 -204786
-66577 0;
#X obj 547 222 hsl 128 15 0 1 0 1 V1Vol V1Vol gain -2 -8 0 10 -262144
-1 -1 2000 1;
#X obj 537 333 cnv 15 300 150 empty empty empty 20 12 0 14 -262130
-66577 0;
#X obj 547 375 hsl 128 15 0 1 0 1 V2Vol V2Vol gain -2 -8 0 10 -262144
-1 -1 2000 1;
#X text 586 186 Voice 1;
#X text 585 346 Voice 2;
#X obj 15 170 cnv 15 500 310 empty empty Links_to_Key_Voices 20 20
0 20 -204800 -66577 0;
#N canvas 827 109 857 593 voice_1 0;
#X obj 44 35 inlet;
#X obj 66 73 mod 40;
#X obj 53 152 sel 12 28;
#X obj 226 151 sel 20 36;
#X obj 369 149 sel 3 11 19 27 35;
#X obj 560 146 sel 10 18 26 34;
#N canvas 0 50 477 450 play_sound 0;
#X obj 40 49 inlet;
#X obj 39 101 readsf~;
#X obj 45 165 *~;
#X obj 68 131 inlet;
#X obj 40 244 outlet~;
#X connect 0 0 1 0;
#X connect 1 0 2 0;
#X connect 2 0 4 0;
#X connect 3 0 2 1;
#X restore 96 286 pd play_sound;
#N canvas 0 50 450 300 play_sound 0;
#X obj 40 49 inlet;
#X obj 39 101 readsf~;
#X obj 45 165 *~;
#X obj 68 131 inlet;
#X obj 45 191 outlet~;
#X connect 0 0 1 0;
#X connect 1 0 2 0;
#X connect 2 0 4 0;
#X connect 3 0 2 1;
#X restore 243 289 pd play_sound;
#N canvas 0 50 450 300 play_sound 0;
#X obj 40 49 inlet;
#X obj 39 101 readsf~;
#X obj 45 165 *~;
#X obj 68 131 inlet;
#X obj 45 191 outlet~;
#X connect 0 0 1 0;
#X connect 1 0 2 0;
#X connect 2 0 4 0;
#X connect 3 0 2 1;
#X restore 391 290 pd play_sound;
#N canvas 0 50 450 300 play_sound 0;
#X obj 40 49 inlet;
#X obj 39 101 readsf~;
#X obj 45 165 *~;
#X obj 68 131 inlet;
#X obj 45 191 outlet~;
#X connect 0 0 1 0;
#X connect 1 0 2 0;
#X connect 2 0 4 0;
#X connect 3 0 2 1;
#X restore 553 291 pd play_sound;
#X obj 372 421 outlet~;
#X obj 355 234 inlet;
#X text 410 236 Volume;
#X obj 691 264 outlet;
#X obj 672 220 route 1;
#X msg 70 182 open OG/Eb.wav \, 1;
#X msg 239 181 open OG/F.wav \, 1;
#X msg 407 186 open OG/Bb3.wav \, 1;
#X msg 578 183 open OG/C.wav \, 1;
#X connect 0 0 1 0;
#X connect 1 0 2 0;
#X connect 1 0 3 0;
#X connect 1 0 4 0;
#X connect 1 0 5 0;
#X connect 2 0 15 0;
#X connect 2 1 15 0;
#X connect 3 0 16 0;
#X connect 3 1 16 0;
#X connect 4 0 17 0;
#X connect 4 1 17 0;
#X connect 4 2 17 0;
#X connect 4 3 17 0;
#X connect 4 4 17 0;
#X connect 5 0 18 0;
#X connect 5 1 18 0;
#X connect 5 2 18 0;
#X connect 5 3 18 0;
#X connect 6 0 10 0;
#X connect 7 0 10 0;
#X connect 8 0 10 0;
#X connect 9 0 10 0;
#X connect 11 0 6 1;
#X connect 11 0 7 1;
#X connect 11 0 9 1;
#X connect 11 0 8 1;
#X connect 14 0 13 0;
#X connect 15 0 6 0;
#X connect 15 0 14 0;
#X connect 16 0 7 0;
#X connect 16 0 14 0;
#X connect 17 0 8 0;
#X connect 17 0 14 0;
#X connect 18 0 9 0;
#X connect 18 0 14 0;
#X restore 180 307 pd voice_1;
#N canvas 657 233 737 524 bass 0;
#X obj 44 35 inlet;
#X obj 66 73 mod 4;
#N canvas 0 50 450 300 play_sound 0;
#X obj 40 49 inlet;
#X obj 39 101 readsf~;
#X obj 45 165 *~;
#X obj 68 131 inlet;
#X obj 45 191 outlet~;
#X connect 0 0 1 0;
#X connect 1 0 2 0;
#X connect 2 0 4 0;
#X connect 3 0 2 1;
#X restore 330 267 pd play_sound;
#X obj 175 364 outlet~;
#X obj 67 100 sel 1 2 3;
#N canvas 0 50 450 300 play_sound 0;
#X obj 40 49 inlet;
#X obj 39 101 readsf~;
#X obj 45 165 *~;
#X obj 68 131 inlet;
#X obj 45 191 outlet~;
#X connect 0 0 1 0;
#X connect 1 0 2 0;
#X connect 2 0 4 0;
#X connect 3 0 2 1;
#X restore 164 267 pd play_sound;
#N canvas 0 50 450 300 play_sound 0;
#X obj 40 49 inlet;
#X obj 39 101 readsf~;
#X obj 45 165 *~;
#X obj 68 131 inlet;
#X obj 45 191 outlet~;
#X connect 0 0 1 0;
#X connect 1 0 2 0;
#X connect 2 0 4 0;
#X connect 3 0 2 1;
#X restore 5 270 pd play_sound;
#X obj 233 231 inlet;
#X obj 494 258 outlet;
#X obj 475 214 route 1;
#X msg 2 172 open OG/Bb-hit-1.wav \, 1;
#X msg 180 172 open OG/Bb-hit-1.wav \, 1;
#X msg 372 171 open OG/Bb-hit-1.wav \, 1;
#X connect 0 0 1 0;
#X connect 1 0 4 0;
#X connect 2 0 3 0;
#X connect 4 0 10 0;
#X connect 4 1 11 0;
#X connect 4 2 12 0;
#X connect 5 0 3 0;
#X connect 6 0 3 0;
#X connect 7 0 6 1;
#X connect 7 0 5 1;
#X connect 7 0 2 1;
#X connect 9 0 8 0;
#X connect 10 0 6 0;
#X connect 10 0 9 0;
#X connect 11 0 5 0;
#X connect 11 0 9 0;
#X connect 12 0 2 0;
#X connect 12 0 9 0;
#X restore 46 307 pd bass;
#N canvas 602 300 1219 593 voice_2 0;
#X obj 44 35 inlet;
#X obj 74 120 mod 40;
#X obj 230 227 mod 2;
#X obj 44 61 moses 87;
#X obj 80 91 - 82;
#X obj 216 195 sel 18 34;
#X obj 175 227 sel 0;
#X obj 352 178 sel 7 15 19 23 31 35 39;
#X obj 571 178 sel 9 18 25 34;
#X obj 752 172 sel 17 33;
#N canvas 0 50 450 300 play_sound 0;
#X obj 40 49 inlet;
#X obj 39 101 readsf~;
#X obj 45 165 *~;
#X obj 68 131 inlet;
#X obj 45 191 outlet~;
#X connect 0 0 1 0;
#X connect 1 0 2 0;
#X connect 2 0 4 0;
#X connect 3 0 2 1;
#X restore 26 363 pd play_sound;
#N canvas 0 50 450 300 play_sound 0;
#X obj 40 49 inlet;
#X obj 39 101 readsf~;
#X obj 45 165 *~;
#X obj 68 131 inlet;
#X obj 45 191 outlet~;
#X connect 0 0 1 0;
#X connect 1 0 2 0;
#X connect 2 0 4 0;
#X connect 3 0 2 1;
#X restore 178 375 pd play_sound;
#N canvas 0 50 450 300 play_sound 0;
#X obj 40 49 inlet;
#X obj 39 101 readsf~;
#X obj 45 165 *~;
#X obj 68 131 inlet;
#X obj 45 191 outlet~;
#X connect 0 0 1 0;
#X connect 1 0 2 0;
#X connect 2 0 4 0;
#X connect 3 0 2 1;
#X restore 378 392 pd play_sound;
#N canvas 0 50 450 300 play_sound 0;
#X obj 40 49 inlet;
#X obj 39 101 readsf~;
#X obj 45 165 *~;
#X obj 68 131 inlet;
#X obj 45 191 outlet~;
#X connect 0 0 1 0;
#X connect 1 0 2 0;
#X connect 2 0 4 0;
#X connect 3 0 2 1;
#X restore 578 391 pd play_sound;
#X obj 391 528 outlet~;
#N canvas 0 50 450 300 play_sound 0;
#X obj 40 49 inlet;
#X obj 39 101 readsf~;
#X obj 45 165 *~;
#X obj 68 131 inlet;
#X obj 45 191 outlet~;
#X connect 0 0 1 0;
#X connect 1 0 2 0;
#X connect 2 0 4 0;
#X connect 3 0 2 1;
#X restore 751 392 pd play_sound;
#X text 125 77 Make nice offset;
#X text 152 251 x : x>5 \, x%2==0 \, [18 \, 34];
#X obj 444 342 inlet;
#X text 492 342 Volume;
#X obj 890 373 outlet;
#X obj 871 329 route 1;
#X obj 154 196 moses 8;
#X obj 12 176 sel 11 27;
#X msg 28 288 open Hits/C1.wav \, 1;
#X msg 174 290 open Hits/D1.wav \, 1;
#X msg 377 282 open Hits/Eb1.wav \, 1;
#X msg 598 289 open Hits/G1.wav \, 1;
#X msg 768 288 open Hits/Bb1.wav \, 1;
#X connect 0 0 3 0;
#X connect 1 0 7 0;
#X connect 1 0 8 0;
#X connect 1 0 9 0;
#X connect 1 0 22 0;
#X connect 1 0 23 0;
#X connect 2 0 6 0;
#X connect 3 1 4 0;
#X connect 4 0 1 0;
#X connect 5 2 2 0;
#X connect 6 0 25 0;
#X connect 7 0 26 0;
#X connect 7 1 26 0;
#X connect 7 2 26 0;
#X connect 7 3 26 0;
#X connect 7 4 26 0;
#X connect 7 5 26 0;
#X connect 7 6 26 0;
#X connect 8 0 27 0;
#X connect 8 1 27 0;
#X connect 8 2 27 0;
#X connect 8 3 27 0;
#X connect 9 0 28 0;
#X connect 9 1 28 0;
#X connect 10 0 14 0;
#X connect 11 0 14 0;
#X connect 12 0 14 0;
#X connect 13 0 14 0;
#X connect 15 0 14 0;
#X connect 18 0 10 1;
#X connect 18 0 11 1;
#X connect 18 0 13 1;
#X connect 18 0 12 1;
#X connect 18 0 15 1;
#X connect 21 0 20 0;
#X connect 22 1 5 0;
#X connect 23 0 24 0;
#X connect 23 1 24 0;
#X connect 24 0 10 0;
#X connect 24 0 21 0;
#X connect 25 0 11 0;
#X connect 25 0 21 0;
#X connect 26 0 12 0;
#X connect 26 0 21 0;
#X connect 27 0 13 0;
#X connect 27 0 21 0;
#X connect 28 0 15 0;
#X connect 28 0 21 0;
#X restore 356 308 pd voice_2;
#N canvas 566 46 597 479 FX 0;
#X obj 30 303 outlet~;
#X obj 31 25 inlet~;
#X obj 30 272 *~;
#X obj 286 274 vline~;
#X obj 240 249 *~;
#X msg 285 248 1 50 \, 0.5 150 300 \, 0 150 5000;
#N canvas 0 23 740 505 reverb 0;
#X obj 162 49 inlet~;
#X obj 144 364 outlet~;
#X floatatom 444 156 0 0 120 0 - - -;
#X text 485 156 level \, dB;
#X floatatom 472 173 0 0 100 0 - - -;
#X text 513 173 liveness \, 0-100;
#X floatatom 507 197 4 0 5000 0 - - -;
#X floatatom 542 220 0 0 100 0 - - -;
#X text 555 195 crossover frequency \, Hz.;
#X text 578 222 HF damping \, percent;
#X obj 235 233 rev3~ 100 90 3000 20;
#X obj 247 331 *~;
#X floatatom 317 299 5 0 0 0 - - -;
#X obj 26 288 *~;
#X floatatom 66 261 5 0 0 0 - - -;
#X text 355 299 wet reverb signal;
#X text 103 264 "dry" signal;
#X floatatom 410 59 5 0 0 0 - - -;
#X obj 250 87 expr 1 - $f1;
#X obj 438 31 inlet;
#X connect 0 0 13 0;
#X connect 0 0 10 0;
#X connect 2 0 10 2;
#X connect 4 0 10 3;
#X connect 6 0 10 4;
#X connect 7 0 10 5;
#X connect 10 0 11 0;
#X connect 10 1 11 0;
#X connect 10 2 11 0;
#X connect 10 3 11 0;
#X connect 11 0 1 0;
#X connect 12 0 11 1;
#X connect 13 0 1 0;
#X connect 14 0 13 1;
#X connect 17 0 12 0;
#X connect 17 0 18 0;
#X connect 18 0 14 0;
#X connect 19 0 17 0;
#X restore 32 215 pd reverb;
#N canvas 52 386 661 298 delayLine 0;
#X floatatom 323 92 5 0 0 0 - - -;
#X obj 308 151 +~;
#X obj 107 28 inlet~;
#X obj 352 262 outlet~;
#X obj 155 256 *~;
#X floatatom 170 219 5 0 0 0 - - -;
#X obj 350 45 inlet;
#X obj 195 184 inlet;
#X obj 36 147 delwrite~ bassdel_line 2000;
#X obj 323 121 delread4~ bassdel_line;
#X connect 0 0 9 0;
#X connect 1 0 3 0;
#X connect 1 0 4 0;
#X connect 2 0 1 0;
#X connect 2 0 8 0;
#X connect 4 0 8 0;
#X connect 5 0 4 1;
#X connect 6 0 0 0;
#X connect 7 0 5 0;
#X connect 9 0 1 1;
#X restore 31 102 pd delayLine;
#N canvas 0 50 450 300 distortion 0;
#X obj 147 32 inlet~;
#X obj 152 238 outlet~;
#X obj 176 161 expr~ tanh($v1);
#X floatatom 234 87 5 0 0 0 - - -;
#X obj 176 137 *~;
#X text 275 72 Distortion Amount;
#X obj 243 34 inlet;
#X connect 0 0 4 0;
#X connect 2 0 1 0;
#X connect 3 0 4 1;
#X connect 4 0 2 0;
#X connect 6 0 3 0;
#X restore 31 157 pd distortion;
#X obj 71 51 receive bassDelayFB;
#X obj 112 77 receive bassDelayTime;
#X obj 117 131 receive bassDistortion;
#X obj 92 185 receive bassReverb;
#X text 283 34 Must set new name for delwrite;
#X text 277 57 For each instance of delayLine;
#X obj 66 273 r LoadScreenVol;
#X connect 1 0 7 0;
#X connect 2 0 0 0;
#X connect 3 0 4 1;
#X connect 5 0 3 0;
#X connect 6 0 2 0;
#X connect 7 0 8 0;
#X connect 8 0 6 0;
#X connect 9 0 7 1;
#X connect 10 0 7 2;
#X connect 11 0 8 1;
#X connect 12 0 6 1;
#X connect 15 0 2 1;
#X restore 52 353 pd FX;
#X obj 180 276 r seq;
#X obj 357 275 r seq;
#X obj 32 269 r seq;
#X obj 82 275 r bassVol;
#X obj 265 309 bng 15 250 50 0 empty empty empty 17 7 0 10 -262144
-1 -1;
#X obj 441 311 bng 15 250 50 0 empty empty empty 17 7 0 10 -262144
-1 -1;
#X obj 114 309 bng 15 250 50 0 empty empty empty 17 7 0 10 -262144
-1 -1;
#X obj 14 9 cnv 15 500 150 empty empty Main_controls 20 20 0 20 -232576
-66577 0;
#X obj 48 96 hsl 128 15 0 1 0 1 LoadScreenVol LoadScreenVol Global_Volume
-2 -8 0 10 -262144 -1 -1 9600 1;
#N canvas 566 37 624 485 counter 0;
#X obj 189 112 tgl 15 0 empty empty empty 17 7 0 10 -262144 -1 -1 0
1;
#X obj 173 225 int;
#X obj 210 227 + 1;
#X obj 196 138 metro;
#X obj 206 164 loadbang;
#X obj 173 277 + 3;
#X msg 194 194 0;
#X obj 103 133 t b b;
#X obj 173 251 mod 160;
#X obj 99 19 inlet;
#X obj 173 303 outlet;
#X obj 306 177 inlet;
#X obj 265 21 inlet;
#X obj 97 76 int;
#X obj 97 102 sel 0;
#X msg 108 166 1;
#X obj 99 45 route start stop;
#X msg 161 74 0;
#X text 16 77 Ignore dup;
#X text 50 98 start;
#X obj 264 110 expr 1000 - $f1;
#X obj 286 72 s V2DelayTime;
#X obj 283 45 / 3;
#X connect 0 0 3 0;
#X connect 0 0 13 1;
#X connect 1 0 2 0;
#X connect 1 0 8 0;
#X connect 2 0 1 1;
#X connect 3 0 1 0;
#X connect 4 0 6 0;
#X connect 5 0 10 0;
#X connect 6 0 1 1;
#X connect 7 0 15 0;
#X connect 7 1 6 0;
#X connect 8 0 5 0;
#X connect 9 0 16 0;
#X connect 11 0 1 1;
#X connect 12 0 20 0;
#X connect 12 0 22 0;
#X connect 13 0 14 0;
#X connect 14 0 7 0;
#X connect 15 0 0 0;
#X connect 16 0 13 0;
#X connect 16 1 17 0;
#X connect 17 0 0 0;
#X connect 20 0 3 1;
#X connect 22 0 21 0;
#X restore 325 106 pd counter;
#X msg 240 65 start;
#X obj 358 53 hsl 128 15 0 900 0 1 empty empty Speed -2 -8 0 10 -262144
-1 -1 7500 1;
#X msg 385 78 0;
#X msg 425 79 80;
#X obj 219 417 dac~;
#X obj 325 132 s seq;
#X msg 304 67 stop;
#N canvas 0 50 569 416 FX 0;
#X obj 30 303 outlet~;
#X obj 31 25 inlet~;
#X obj 30 272 *~;
#X obj 286 274 vline~;
#X obj 240 249 *~;
#X msg 285 248 1 50 \, 0.5 150 300 \, 0 150 5000;
#N canvas 0 23 740 505 reverb 0;
#X obj 162 49 inlet~;
#X obj 144 364 outlet~;
#X floatatom 444 156 0 0 120 0 - - -;
#X text 485 156 level \, dB;
#X floatatom 472 173 0 0 100 0 - - -;
#X text 513 173 liveness \, 0-100;
#X floatatom 507 197 4 0 5000 0 - - -;
#X floatatom 542 220 0 0 100 0 - - -;
#X text 555 195 crossover frequency \, Hz.;
#X text 578 222 HF damping \, percent;
#X obj 235 233 rev3~ 100 90 3000 20;
#X obj 247 331 *~;
#X floatatom 317 299 5 0 0 0 - - -;
#X obj 26 288 *~;
#X floatatom 66 261 5 0 0 0 - - -;
#X text 355 299 wet reverb signal;
#X text 103 264 "dry" signal;
#X floatatom 410 59 5 0 0 0 - - -;
#X obj 250 87 expr 1 - $f1;
#X obj 438 31 inlet;
#X connect 0 0 13 0;
#X connect 0 0 10 0;
#X connect 2 0 10 2;
#X connect 4 0 10 3;
#X connect 6 0 10 4;
#X connect 7 0 10 5;
#X connect 10 0 11 0;
#X connect 10 1 11 0;
#X connect 10 2 11 0;
#X connect 10 3 11 0;
#X connect 11 0 1 0;
#X connect 12 0 11 1;
#X connect 13 0 1 0;
#X connect 14 0 13 1;
#X connect 17 0 12 0;
#X connect 17 0 18 0;
#X connect 18 0 14 0;
#X connect 19 0 17 0;
#X restore 32 215 pd reverb;
#N canvas 52 386 661 298 delayLine 0;
#X floatatom 323 92 5 0 0 0 - - -;
#X obj 308 151 +~;
#X obj 107 28 inlet~;
#X obj 352 262 outlet~;
#X obj 155 256 *~;
#X floatatom 170 219 5 0 0 0 - - -;
#X obj 350 45 inlet;
#X obj 36 147 delwrite~ V1del_line 2000;
#X obj 323 121 delread4~ V1del_line;
#X obj 195 184 inlet;
#X connect 0 0 8 0;
#X connect 1 0 3 0;
#X connect 1 0 4 0;
#X connect 2 0 1 0;
#X connect 2 0 7 0;
#X connect 4 0 7 0;
#X connect 5 0 4 1;
#X connect 6 0 0 0;
#X connect 8 0 1 1;
#X connect 9 0 5 0;
#X restore 31 102 pd delayLine;
#N canvas 0 50 450 300 distortion 0;
#X obj 147 32 inlet~;
#X obj 152 238 outlet~;
#X obj 176 161 expr~ tanh($v1);
#X floatatom 234 87 5 0 0 0 - - -;
#X obj 176 137 *~;
#X text 275 72 Distortion Amount;
#X obj 243 34 inlet;
#X connect 0 0 4 0;
#X connect 2 0 1 0;
#X connect 3 0 4 1;
#X connect 4 0 2 0;
#X connect 6 0 3 0;
#X restore 31 157 pd distortion;
#X obj 71 51 receive V1DelayFB;
#X obj 112 77 receive V1DelayTime;
#X obj 117 131 receive V1Distortion;
#X obj 92 185 receive V1Reverb;
#X obj 66 273 r LoadScreenVol;
#X connect 1 0 7 0;
#X connect 2 0 0 0;
#X connect 3 0 4 1;
#X connect 5 0 3 0;
#X connect 6 0 2 0;
#X connect 7 0 8 0;
#X connect 8 0 6 0;
#X connect 9 0 7 1;
#X connect 10 0 7 2;
#X connect 11 0 8 1;
#X connect 12 0 6 1;
#X connect 13 0 2 1;
#X restore 187 363 pd FX;
#N canvas 132 310 550 550 FX 0;
#X obj 30 303 outlet~;
#X obj 31 25 inlet~;
#X obj 30 272 *~;
#X obj 286 274 vline~;
#X obj 240 249 *~;
#X msg 285 248 1 50 \, 0.5 150 300 \, 0 150 5000;
#N canvas 0 23 740 505 reverb 0;
#X obj 162 49 inlet~;
#X obj 144 364 outlet~;
#X floatatom 444 156 0 0 120 0 - - -;
#X text 485 156 level \, dB;
#X floatatom 472 173 0 0 100 0 - - -;
#X text 513 173 liveness \, 0-100;
#X floatatom 507 197 4 0 5000 0 - - -;
#X floatatom 542 220 0 0 100 0 - - -;
#X text 555 195 crossover frequency \, Hz.;
#X text 578 222 HF damping \, percent;
#X obj 235 233 rev3~ 100 90 3000 20;
#X obj 247 331 *~;
#X floatatom 317 299 5 0 0 0 - - -;
#X obj 26 288 *~;
#X floatatom 66 261 5 0 0 0 - - -;
#X text 355 299 wet reverb signal;
#X text 103 264 "dry" signal;
#X floatatom 410 59 5 0 0 0 - - -;
#X obj 250 87 expr 1 - $f1;
#X obj 438 31 inlet;
#X connect 0 0 13 0;
#X connect 0 0 10 0;
#X connect 2 0 10 2;
#X connect 4 0 10 3;
#X connect 6 0 10 4;
#X connect 7 0 10 5;
#X connect 10 0 11 0;
#X connect 10 1 11 0;
#X connect 10 2 11 0;
#X connect 10 3 11 0;
#X connect 11 0 1 0;
#X connect 12 0 11 1;
#X connect 13 0 1 0;
#X connect 14 0 13 1;
#X connect 17 0 12 0;
#X connect 17 0 18 0;
#X connect 18 0 14 0;
#X connect 19 0 17 0;
#X restore 32 215 pd reverb;
#X obj 92 185 receive V2Reverb;
#N canvas 52 386 661 298 delayLine 0;
#X floatatom 323 92 5 0 0 0 - - -;
#X obj 308 151 +~;
#X obj 107 28 inlet~;
#X obj 352 262 outlet~;
#X obj 155 256 *~;
#X floatatom 170 219 5 0 0 0 - - -;
#X obj 350 45 inlet;
#X obj 195 184 inlet;
#X obj 36 147 delwrite~ V2del_line 2000;
#X obj 323 121 delread4~ V2del_line;
#X connect 0 0 9 0;
#X connect 1 0 3 0;
#X connect 1 0 4 0;
#X connect 2 0 1 0;
#X connect 2 0 8 0;
#X connect 4 0 8 0;
#X connect 5 0 4 1;
#X connect 6 0 0 0;
#X connect 7 0 5 0;
#X connect 9 0 1 1;
#X restore 31 102 pd delayLine;
#X obj 112 77 receive V2DelayTime;
#X obj 71 51 receive V2DelayFB;
#N canvas 0 50 450 300 distortion 0;
#X obj 147 32 inlet~;
#X obj 152 238 outlet~;
#X obj 176 161 expr~ tanh($v1);
#X floatatom 234 87 5 0 0 0 - - -;
#X obj 176 137 *~;
#X text 275 72 Distortion Amount;
#X obj 243 34 inlet;
#X connect 0 0 4 0;
#X connect 2 0 1 0;
#X connect 3 0 4 1;
#X connect 4 0 2 0;
#X connect 6 0 3 0;
#X restore 31 157 pd distortion;
#X obj 117 131 receive V2Distortion;
#X obj 66 273 r LoadScreenVol;
#X connect 1 0 8 0;
#X connect 2 0 0 0;
#X connect 3 0 4 1;
#X connect 5 0 3 0;
#X connect 6 0 2 0;
#X connect 7 0 6 1;
#X connect 8 0 11 0;
#X connect 9 0 8 2;
#X connect 10 0 8 1;
#X connect 11 0 6 0;
#X connect 12 0 11 1;
#X connect 13 0 2 1;
#X restore 317 353 pd FX;
#X obj 695 375 hsl 128 15 0 1 0 1 V2Reverb V2Reverb Reverb_Wet/Dry
-2 -8 0 10 -262144 -1 -1 9000 1;
#X obj 697 416 hsl 128 15 0 1 0 1 V2DelayFB V2DelayFB Delay_Feedback
-2 -8 0 10 -262144 -1 -1 8000 1;
#X obj 547 416 hsl 128 15 0 500 0 1 V2DelayTime V2DelayTime Delay_Time
-2 -8 0 10 -262144 -1 -1 4500 1;
#X obj 627 454 hsl 128 15 0.5 100 0 1 V2Distortion V2Distortion Distortion_Amount
-2 -8 0 10 -262144 -1 -1 4400 1;
#X obj 697 221 hsl 128 15 0 1 0 1 V1Reverb V1Reverb Reverb_Wet/Dry
-2 -8 0 10 -262144 -1 -1 1800 1;
#X obj 697 255 hsl 128 15 0 1 0 1 V1DelayFB V1DelayFB Delay_Feedback
-2 -8 0 10 -262144 -1 -1 900 1;
#X obj 548 254 hsl 128 15 0 100 0 1 V1DelayTime V1DelayTime Delay_Time
-2 -8 0 10 -262144 -1 -1 800 1;
#X obj 629 295 hsl 128 15 0.5 100 0 1 V1Distortion V1Distortion Distortion_Amount
-2 -8 0 10 -262144 -1 -1 200 1;
#X obj 698 61 hsl 128 15 0 1 0 1 bassReverb bassReverb Reverb_Wet/Dry
-2 -8 0 10 -262144 -1 -1 5300 1;
#X obj 698 95 hsl 128 15 0 1 0 1 bassDelayFB bassDelayFB Delay_Feedback
-2 -8 0 10 -262144 -1 -1 3900 1;
#X obj 549 94 hsl 128 15 0 100 0 1 bassDelayTime bassDelayTime Delay_Time
-2 -8 0 10 -262144 -1 -1 400 1;
#X obj 630 135 hsl 128 15 0.5 100 0 1 bassDistortion bassDistortion
Distortion_Amount -2 -8 0 10 -262144 -1 -1 800 1;
#X obj 246 277 r V1Vol;
#X obj 424 278 r V2Vol;
#X obj 198 34 r Atrig;
#X obj 274 33 r Btrig;
#X obj 226 93 inlet;
#X connect 10 0 31 0;
#X connect 10 1 18 0;
#X connect 11 0 13 0;
#X connect 11 1 20 0;
#X connect 12 0 32 0;
#X connect 12 1 19 0;
#X connect 13 0 28 0;
#X connect 13 0 28 1;
#X connect 14 0 10 0;
#X connect 15 0 12 0;
#X connect 16 0 11 0;
#X connect 17 0 11 1;
#X connect 23 0 29 0;
#X connect 24 0 23 0;
#X connect 25 0 23 1;
#X connect 26 0 23 2;
#X connect 27 0 23 2;
#X connect 30 0 23 0;
#X connect 31 0 28 0;
#X connect 31 0 28 1;
#X connect 32 0 28 1;
#X connect 32 0 28 0;
#X connect 45 0 10 1;
#X connect 46 0 12 1;
#X connect 47 0 24 0;
#X connect 48 0 30 0;
#X connect 49 0 23 0;
#X restore 513 136 pd LoadScreen;
#X msg 490 109 start;
#X msg 543 109 stop;
#X msg 475 187 start;
#X msg 519 187 stop;
#X msg 560 188 restart;
#X obj 561 166 loadbang;
#X obj 473 84 r startTrig;
#X obj 39 10 loadbang;
#X connect 6 0 10 0;
#X connect 8 0 9 0;
#X connect 10 0 13 0;
#X connect 11 0 10 0;
#X connect 17 0 16 0;
#X connect 18 0 16 0;
#X connect 19 0 15 0;
#X connect 20 0 15 0;
#X connect 21 0 15 0;
#X connect 22 0 21 0;
#X connect 23 0 17 0;
#X connect 24 0 8 0;
