#N canvas 235 23 1195 719 12;
#N canvas 0 22 450 278 (subpatch) 0;
#X array melody 16 float 3;
#A 0 0.75 0.742857 0.742857 0.771428 0.785713 0.77857 0.75 0.714287
0.671432 0.635719 0.585721 0.535724 0.521439 0.521439 0.542866 0.621434
;
#X coords 0 1 16 0 200 140 1 0 0;
#X restore 199 579 graph;
#X msg 986 134 \; pd dsp \$1;
#X obj 983 78 tgl 15 0 empty empty empty 17 7 0 10 -262144 -1 -1 0
1;
#X obj 323 124 tgl 15 0 empty empty empty 17 7 0 10 -262144 -1 -1 1
1;
#N canvas 0 22 450 278 (subpatch) 0;
#X array melody2 5 float 2;
#X coords 0 1 5 0 200 140 1 0 0;
#X restore 479 775 graph;
#N canvas 0 22 450 278 (subpatch) 0;
#X array melody3 16 float 2;
#X coords 0 1 16 0 200 140 1 0 0;
#X restore 571 607 graph;
#X obj 743 259 nbx 4 14 0.1 1000 1 1 empty empty attack 0 -8 0 10 -262144
-1 -1 29.4273 256;
#X obj 797 259 nbx 4 14 10 10000 1 1 empty empty decay 0 -8 0 10 -262144
-1 -1 500 256;
#X obj 744 345 vline~;
#X msg 744 317 1 \$1 \, 0 \$2 \$1;
#X obj 744 287 pack f f;
#X floatatom 344 268 5 0 0 0 - - -;
#X floatatom 331 356 5 0 0 0 - - -;
#X obj 316 376 + 1;
#X obj 316 424 int;
#X obj 302 479 mtof;
#X floatatom 321 506 5 0 0 0 - - -;
#X obj 325 230 mod 5;
#X obj 474 267 nbx 4 14 0.1 1000 1 1 empty empty attack 0 -8 0 10 -262144
-1 -1 17.7828 256;
#X obj 528 267 nbx 4 14 10 10000 1 1 empty empty decay 0 -8 0 10 -262144
-1 -1 276.316 256;
#X obj 475 353 vline~;
#X msg 475 325 1 \$1 \, 0 \$2 \$1;
#X obj 475 295 pack f f;
#X obj 594 116 tgl 15 0 empty empty empty 17 7 0 10 -262144 -1 -1 0
1;
#X obj 59 121 tgl 15 0 empty empty empty 17 7 0 10 -262144 -1 -1 0
1;
#X obj 330 92 bng 15 250 50 0 empty empty empty 17 7 0 10 -262144 -1
-1;
#X floatatom 429 46 5 0 0 0 - - -;
#X obj 362 206 + 1;
#X obj 621 198 + 1;
#X obj 289 48 sel 97 115 100 61;
#X obj 325 206 int;
#X obj 584 198 int;
#X floatatom 607 255 5 0 0 0 - - -;
#X floatatom 625 303 5 0 0 0 - - -;
#X obj 607 325 + 1;
#X obj 607 373 int;
#X obj 593 428 mtof;
#X floatatom 612 455 5 0 0 0 - - -;
#X obj 607 278 tabread melody3;
#X obj 791 442 phasor~;
#X obj 833 737 *~;
#X obj 893 477 phasor~;
#X obj 892 438 * -1;
#X obj 829 619 +~;
#X msg 911 384 0;
#X obj 941 337 bng 15 250 50 0 empty empty empty 17 7 0 10 -262144
-1 -1;
#X obj 898 503 *~ 2;
#X obj 818 511 *~ 2;
#X obj 818 538 -~ 1;
#X obj 897 531 -~ 1;
#X obj 820 570 clip~ 0 1;
#X obj 897 562 clip~ 0 1;
#X obj 883 606 vsl 15 128 0 1 0 0 empty empty empty 0 -9 0 10 -262144
-1 -1 7300 1;
#X obj 824 774 dac~ 2 3;
#X obj 316 400 * 20;
#X obj 421 483 phasor~;
#X obj 439 696 *~;
#X obj 479 510 phasor~;
#X obj 478 471 * -1;
#X obj 438 540 +~;
#X obj 438 568 -~ 1;
#X msg 474 436 0;
#X msg 510 440 0.5;
#X obj 497 405 bng 15 250 50 0 empty empty empty 17 7 0 10 -262144
-1 -1;
#X obj 490 552 vsl 15 128 0 1 0 0 empty empty empty 0 -9 0 10 -262144
-1 -1 5400 1;
#X obj 421 507 *~;
#X obj 430 741 dac~ 0 1;
#X obj 316 329 tabread melody2;
#X obj 322 144 metro 200;
#X obj 607 349 * 35;
#X obj 791 97 sin;
#X obj 791 73 f;
#X obj 823 97 + 2;
#X obj 817 126 * 200;
#X obj 828 73 + 0.1;
#X text 754 42 Decay auto control;
#X obj 183 191 nbx 4 14 0.1 1000 1 1 empty empty attack 0 -8 0 10 -262144
-1 -1 29.4273 256;
#X obj 237 191 nbx 4 14 10 10000 1 1 empty empty decay 0 -8 0 10 -262144
-1 -1 276.158 256;
#X obj 184 277 vline~;
#X obj 184 219 pack f f;
#X obj 90 179 + 1;
#X obj 53 179 int;
#X floatatom 76 236 5 0 0 0 - - -;
#X floatatom 94 284 5 0 0 0 - - -;
#X obj 76 306 + 1;
#X obj 76 354 int;
#X obj 62 409 mtof;
#X floatatom 3 443 5 0 0 0 - - -;
#X obj 63 437 phasor~;
#X obj 101 695 *~;
#X obj 225 430 phasor~;
#X obj 224 391 * -1;
#X obj 97 577 +~;
#X msg 243 337 0;
#X obj 273 290 bng 15 250 50 0 empty empty empty 17 7 0 10 -262144
-1 -1;
#X obj 159 472 *~ 2;
#X obj 79 480 *~ 2;
#X obj 79 507 -~ 1;
#X obj 158 500 -~ 1;
#X obj 81 539 clip~ 0 1;
#X obj 158 531 clip~ 0 1;
#X obj 151 564 vsl 15 128 0 1 0 0 empty empty empty 0 -9 0 10 -262144
-1 -1 7400 1;
#X obj 76 330 * 35;
#X obj 92 732 dac~ 2 3;
#X obj 829 643 *~;
#X obj 97 601 *~;
#X obj 55 260 tabread melody;
#X obj 60 141 metro 600;
#X obj 595 139 metro 800;
#X obj 584 222 mod 16;
#X obj 53 209 mod 16;
#X msg 184 249 1 \$1 \, 0 \$1 \$2;
#X obj 365 18 key;
#X obj 39 23 osc~;
#X obj 36 50 phasor~;
#X connect 2 0 1 0;
#X connect 3 0 68 0;
#X connect 6 0 10 0;
#X connect 7 0 10 1;
#X connect 8 0 104 1;
#X connect 9 0 8 0;
#X connect 10 0 9 0;
#X connect 13 0 54 0;
#X connect 14 0 15 0;
#X connect 15 0 16 0;
#X connect 15 0 55 0;
#X connect 17 0 11 0;
#X connect 17 0 67 0;
#X connect 18 0 22 0;
#X connect 19 0 22 1;
#X connect 20 0 65 1;
#X connect 21 0 20 0;
#X connect 22 0 21 0;
#X connect 23 0 108 0;
#X connect 24 0 107 0;
#X connect 25 0 24 0;
#X connect 25 0 3 0;
#X connect 25 0 23 0;
#X connect 27 0 30 1;
#X connect 28 0 31 1;
#X connect 29 0 24 0;
#X connect 29 1 3 0;
#X connect 29 2 23 0;
#X connect 29 3 25 0;
#X connect 30 0 17 0;
#X connect 30 0 27 0;
#X connect 31 0 28 0;
#X connect 31 0 109 0;
#X connect 34 0 69 0;
#X connect 35 0 36 0;
#X connect 36 0 37 0;
#X connect 36 0 39 0;
#X connect 36 0 42 0;
#X connect 38 0 33 0;
#X connect 38 0 34 0;
#X connect 39 0 47 0;
#X connect 40 0 53 0;
#X connect 40 0 53 1;
#X connect 41 0 46 0;
#X connect 42 0 41 0;
#X connect 43 0 104 0;
#X connect 44 0 39 1;
#X connect 44 0 41 1;
#X connect 45 0 44 0;
#X connect 46 0 49 0;
#X connect 47 0 48 0;
#X connect 48 0 50 0;
#X connect 49 0 51 0;
#X connect 50 0 43 0;
#X connect 51 0 43 1;
#X connect 52 0 40 1;
#X connect 54 0 14 0;
#X connect 55 0 65 0;
#X connect 56 0 66 0;
#X connect 56 0 66 1;
#X connect 57 0 59 1;
#X connect 58 0 57 0;
#X connect 59 0 60 0;
#X connect 60 0 56 0;
#X connect 61 0 55 1;
#X connect 62 0 57 1;
#X connect 63 0 61 0;
#X connect 63 0 62 0;
#X connect 64 0 56 1;
#X connect 65 0 59 0;
#X connect 67 0 12 0;
#X connect 67 0 13 0;
#X connect 68 0 18 0;
#X connect 68 0 19 0;
#X connect 68 0 30 0;
#X connect 69 0 35 0;
#X connect 70 0 72 0;
#X connect 71 0 70 0;
#X connect 71 0 74 0;
#X connect 72 0 73 0;
#X connect 74 0 71 1;
#X connect 76 0 79 0;
#X connect 77 0 79 1;
#X connect 78 0 105 1;
#X connect 79 0 111 0;
#X connect 80 0 81 1;
#X connect 81 0 80 0;
#X connect 81 0 110 0;
#X connect 84 0 102 0;
#X connect 85 0 86 0;
#X connect 86 0 87 0;
#X connect 86 0 88 0;
#X connect 86 0 91 0;
#X connect 88 0 96 0;
#X connect 89 0 103 0;
#X connect 89 0 103 1;
#X connect 90 0 95 0;
#X connect 91 0 90 0;
#X connect 92 0 105 0;
#X connect 93 0 88 1;
#X connect 93 0 90 1;
#X connect 94 0 93 0;
#X connect 95 0 98 0;
#X connect 96 0 97 0;
#X connect 97 0 99 0;
#X connect 98 0 100 0;
#X connect 99 0 92 0;
#X connect 100 0 92 1;
#X connect 101 0 89 1;
#X connect 102 0 85 0;
#X connect 104 0 40 0;
#X connect 105 0 89 0;
#X connect 106 0 83 0;
#X connect 106 0 84 0;
#X connect 107 0 81 0;
#X connect 107 0 76 0;
#X connect 107 0 77 0;
#X connect 108 0 6 0;
#X connect 108 0 7 0;
#X connect 108 0 31 0;
#X connect 109 0 32 0;
#X connect 109 0 38 0;
#X connect 110 0 82 0;
#X connect 110 0 106 0;
#X connect 111 0 78 0;
#X connect 112 0 29 0;
#X connect 112 0 26 0;
