#N canvas 697 39 837 639 10;
#X obj 331 34 tgl 15 0 empty empty empty 17 7 0 10 -261234 -1 -1 0
1;
#X obj 16 104 cnv 15 500 500 empty empty empty 20 12 0 14 -262130 -66577
0;
#X obj 46 148 hsl 150 20 50 500 0 0 empty empty BASE_FREQUENCY -10
-20 0 20 -262144 -1 -1 5900 1;
#X obj 43 169 s base_freq;
#X obj 286 287 vsl 15 128 0 1 0 1 empty empty empty 0 -9 0 10 -262144
-1 -1 7800 0;
#X obj 338 148 hsl 150 20 0 1 0 0 empty empty VOLUME 35 -20 0 20 -262144
-1 -1 4500 1;
#X obj 336 168 s m_vol;
#X obj 281 580 s vol_1;
#X obj 16 169 cnv 15 500 60 empty empty Overtones 160 40 0 30 -33289
-262130 0;
#X obj 518 104 cnv 15 200 500 empty empty empty 20 12 0 14 -204786
-66577 0;
#X obj 354 238 cnv 15 80 30 empty empty Volume 5 15 0 20 -33289 -262130
0;
#X obj 257 230 cnv 15 20 374 empty empty empty 20 12 0 14 -33289 -66577
0;
#X obj 309 287 vsl 15 128 0 1 0 1 empty empty empty 0 -9 0 10 -262144
-1 -1 6600 0;
#X obj 332 287 vsl 15 128 0 1 0 1 empty empty empty 0 -9 0 10 -262144
-1 -1 2100 0;
#X obj 355 287 vsl 15 128 0 1 0 1 empty empty empty 0 -9 0 10 -262144
-1 -1 4500 0;
#X obj 378 287 vsl 15 128 0 1 0 1 empty empty empty 0 -9 0 10 -262144
-1 -1 9200 0;
#X obj 401 287 vsl 15 128 0 1 0 1 empty empty empty 0 -9 0 10 -262144
-1 -1 4600 0;
#X obj 424 287 vsl 15 128 0 1 0 1 empty empty empty 0 -9 0 10 -262144
-1 -1 4100 0;
#X obj 447 287 vsl 15 128 0 1 0 1 empty empty empty 0 -9 0 10 -262144
-1 -1 2600 0;
#X obj 470 286 vsl 15 128 0 1 0 1 empty empty empty 0 -9 0 10 -262144
-1 -1 2400 0;
#X obj 493 286 vsl 15 128 0 1 0 1 empty empty empty 0 -9 0 10 -262144
-1 -1 2000 0;
#X obj 292 558 s vol_2;
#X obj 305 538 s vol_3;
#X obj 322 518 s vol_4;
#X obj 368 579 s vol_5;
#X obj 379 557 s vol_6;
#X obj 392 537 s vol_7;
#X obj 409 517 s vol_8;
#X obj 428 496 s vol_9;
#X obj 452 474 s vol_10;
#X obj 16 169 cnv 15 500 20 empty empty empty 20 12 0 14 -262130 -66577
0;
#X text 234 122 Toggle base;
#X text 243 136 note with;
#X text 240 149 space bar;
#X obj 533 541 key;
#X obj 532 563 s kpress;
#X text 576 112 Instructions;
#X text 576 122 ------------;
#X text 523 136 Begin base note with space key;
#X obj 86 238 cnv 15 90 30 empty empty Partial 5 15 0 20 -33289 -262130
0;
#X obj 25 288 vsl 15 128 0 1 0 1 empty empty empty 0 -9 0 10 -262144
-1 -1 3100 0;
#X obj 48 288 vsl 15 128 0 1 0 1 empty empty empty 0 -9 0 10 -262144
-1 -1 3900 0;
#X obj 71 288 vsl 15 128 0 1 0 1 empty empty empty 0 -9 0 10 -262144
-1 -1 2200 0;
#X obj 94 288 vsl 15 128 0 1 0 1 empty empty empty 0 -9 0 10 -262144
-1 -1 3200 0;
#X obj 117 288 vsl 15 128 0 1 0 1 empty empty empty 0 -9 0 10 -262144
-1 -1 5100 0;
#X obj 140 288 vsl 15 128 0 1 0 1 empty empty empty 0 -9 0 10 -262144
-1 -1 4900 0;
#X obj 163 288 vsl 15 128 0 1 0 1 empty empty empty 0 -9 0 10 -262144
-1 -1 5900 0;
#X obj 186 288 vsl 15 128 0 1 0 1 empty empty empty 0 -9 0 10 -262144
-1 -1 10900 0;
#X obj 209 287 vsl 15 128 0 1 0 1 empty empty empty 0 -9 0 10 -262144
-1 -1 9700 0;
#X obj 232 287 vsl 15 128 0 1 0 1 empty empty empty 0 -9 0 10 -262144
-1 -1 7200 0;
#X obj 20 581 s part_1;
#X obj 31 559 s part_2;
#X obj 44 539 s part_3;
#X obj 61 519 s part_4;
#X obj 107 580 s part_5;
#X obj 118 558 s part_6;
#X obj 131 538 s part_7;
#X obj 148 518 s part_8;
#X obj 167 497 s part_9;
#X obj 191 475 s part_10;
#X obj 638 552 s p_lim;
#X obj 638 512 nbx 5 14 -1e+037 1e+037 0 1 empty empty empty 0 -8 0
10 -262144 -1 -1 15 256;
#X obj 16 419 cnv 15 500 185 empty empty empty 20 12 0 14 -1 -66577
0;
#X obj 524 222 cnv 15 190 100 empty empty empty 20 12 0 14 -233017
-66577 0;
#X obj 529 261 cnv 15 15 15 empty empty a 5 8 0 10 -261234 -66577 0
;
#X obj 547 261 cnv 15 15 15 empty empty s 5 8 0 10 -261234 -66577 0
;
#X obj 566 261 cnv 15 15 15 empty empty d 5 8 0 10 -261234 -66577 0
;
#X obj 585 261 cnv 15 15 15 empty empty f 5 8 0 10 -261234 -66577 0
;
#X obj 576 279 cnv 15 15 15 empty empty c 5 8 0 10 -204786 -66577 0
;
#X obj 635 260 cnv 15 15 15 empty empty h 5 8 0 10 -262130 -66577 0
;
#X obj 653 260 cnv 15 15 15 empty empty j 5 8 0 10 -262130 -66577 0
;
#X obj 672 260 cnv 15 15 15 empty empty k 5 8 0 10 -262130 -66577 0
;
#X obj 691 260 cnv 15 15 15 empty empty l 5 8 0 10 -262130 -66577 0
;
#X obj 645 279 cnv 15 15 15 empty empty n 5 8 0 10 -204786 -66577 0
;
#X text 538 241 voice 1-4;
#X text 642 241 voice 5-8;
#X text 561 296 voice 9;
#X text 624 297 voice 10;
#X text 521 170 Hold shift+(key) to toggle drone;
#X text 516 153 overtones triggered by keys below;
#X obj 524 203 cnv 15 190 30 empty empty Key/Voice_Map 40 15 0 14 -1
-262130 0;
#N canvas 130 23 734 798 voices 0;
#X obj 297 99 int;
#X obj 447 101 r m_vol;
#X obj 431 143 *;
#N canvas 24 238 692 522 harm_1 0;
#X msg 267 203 1 50 \, 0.5 50 100 \, 0 100 200;
#X obj 298 239 vline~;
#X obj 472 221 line~;
#X obj 403 137 tgl 15 0 empty empty empty 17 7 0 10 -262144 -1 -1 0
1;
#X msg 471 175 \$1 150;
#X obj 110 176 inlet;
#X obj 346 468 dac~;
#X obj 123 283 osc~;
#X obj 346 429 *~;
#X obj 342 341 *~;
#X obj 16 201 r base_freq;
#X obj 95 233 *;
#X obj 361 404 inlet;
#X obj 92 199 bng 15 250 50 0 empty empty empty 17 7 0 10 -262144 -1
-1;
#X obj 328 64 r kpress;
#X obj 332 158 outlet;
#X text 303 175 Debug noteplay;
#X obj 331 15 inlet;
#X obj 282 95 ==;
#X obj 332 36 unpack f f;
#X obj 403 92 ==;
#X obj 284 56 bng 15 250 50 0 empty empty empty 17 7 0 10 -262144 -1
-1;
#X obj 385 68 bng 15 250 50 0 empty empty empty 17 7 0 10 -262144 -1
-1;
#X obj 282 116 sel 1;
#X obj 403 113 sel 1;
#X obj 334 129 metro 50;
#X obj 175 263 osc~;
#X floatatom 174 237 5 0 0 0 - - -;
#X obj 177 288 *~;
#X floatatom 215 269 5 0 0 0 - - -;
#X obj 123 304 *~;
#X connect 0 0 1 0;
#X connect 1 0 9 1;
#X connect 2 0 9 1;
#X connect 3 0 4 0;
#X connect 3 0 25 0;
#X connect 4 0 2 0;
#X connect 5 0 11 1;
#X connect 5 0 13 0;
#X connect 7 0 30 0;
#X connect 8 0 6 1;
#X connect 8 0 6 0;
#X connect 9 0 8 0;
#X connect 10 0 11 0;
#X connect 11 0 7 0;
#X connect 12 0 8 1;
#X connect 13 0 11 0;
#X connect 14 0 20 0;
#X connect 14 0 18 0;
#X connect 17 0 19 0;
#X connect 18 0 23 0;
#X connect 19 0 18 1;
#X connect 19 0 21 0;
#X connect 19 1 20 1;
#X connect 19 1 22 0;
#X connect 20 0 24 0;
#X connect 21 0 18 0;
#X connect 22 0 20 0;
#X connect 23 0 0 0;
#X connect 23 0 15 0;
#X connect 24 0 3 0;
#X connect 25 0 15 0;
#X connect 26 0 28 0;
#X connect 27 0 26 0;
#X connect 28 0 30 1;
#X connect 29 0 28 1;
#X connect 30 0 9 0;
#X restore 298 144 pd harm_1;
#X obj 294 53 r part_1;
#X obj 394 100 r vol_1;
#X obj 298 165 s b_1;
#X obj 297 79 expr ($f1 * $f2) + 1;
#X obj 389 58 r p_lim;
#X obj 354 56 bng 15 250 50 0 empty empty empty 17 7 0 10 -262144 -1
-1;
#X obj 431 122 bng 15 250 50 0 empty empty empty 17 7 0 10 -262144
-1 -1;
#X obj 252 129 s po_1;
#X msg 321 119 97 65;
#X obj 301 239 int;
#X obj 456 241 r m_vol;
#X obj 440 283 *;
#X obj 301 219 expr ($f1 * $f2) + 1;
#X obj 393 198 r p_lim;
#X obj 358 196 bng 15 250 50 0 empty empty empty 17 7 0 10 -262144
-1 -1;
#X obj 440 262 bng 15 250 50 0 empty empty empty 17 7 0 10 -262144
-1 -1;
#N canvas 700 185 692 522 harm_2 0;
#X msg 267 203 1 50 \, 0.5 50 100 \, 0 100 200;
#X obj 298 239 vline~;
#X obj 472 221 line~;
#X obj 403 137 tgl 15 0 empty empty empty 17 7 0 10 -262144 -1 -1 0
1;
#X msg 468 181 \$1 150;
#X obj 110 176 inlet;
#X obj 346 468 dac~;
#X obj 123 283 osc~;
#X obj 346 429 *~;
#X obj 342 341 *~;
#X obj 16 201 r base_freq;
#X obj 95 233 *;
#X obj 361 404 inlet;
#X obj 92 199 bng 15 250 50 0 empty empty empty 17 7 0 10 -262144 -1
-1;
#X obj 328 64 r kpress;
#X obj 332 158 outlet;
#X text 303 175 Debug noteplay;
#X obj 331 15 inlet;
#X obj 282 95 ==;
#X obj 332 36 unpack f f;
#X obj 403 92 ==;
#X obj 284 56 bng 15 250 50 0 empty empty empty 17 7 0 10 -262144 -1
-1;
#X obj 385 68 bng 15 250 50 0 empty empty empty 17 7 0 10 -262144 -1
-1;
#X obj 282 116 sel 1;
#X obj 403 113 sel 1;
#X obj 334 129 metro 50;
#X obj 175 263 osc~;
#X floatatom 174 237 5 0 0 0 - - -;
#X obj 177 288 *~;
#X floatatom 215 269 5 0 0 0 - - -;
#X obj 123 304 *~;
#X connect 0 0 1 0;
#X connect 1 0 9 1;
#X connect 2 0 9 1;
#X connect 3 0 4 0;
#X connect 3 0 25 0;
#X connect 4 0 2 0;
#X connect 5 0 11 1;
#X connect 5 0 13 0;
#X connect 7 0 30 0;
#X connect 8 0 6 1;
#X connect 8 0 6 0;
#X connect 9 0 8 0;
#X connect 10 0 11 0;
#X connect 11 0 7 0;
#X connect 12 0 8 1;
#X connect 13 0 11 0;
#X connect 14 0 20 0;
#X connect 14 0 18 0;
#X connect 17 0 19 0;
#X connect 18 0 23 0;
#X connect 19 0 18 1;
#X connect 19 0 21 0;
#X connect 19 1 20 1;
#X connect 19 1 22 0;
#X connect 20 0 24 0;
#X connect 21 0 18 0;
#X connect 22 0 20 0;
#X connect 23 0 0 0;
#X connect 23 0 15 0;
#X connect 24 0 3 0;
#X connect 25 0 15 0;
#X connect 26 0 28 0;
#X connect 27 0 26 0;
#X connect 28 0 30 1;
#X connect 29 0 28 1;
#X connect 30 0 9 0;
#X restore 302 284 pd harm_2;
#X msg 325 259 115 83;
#X obj 298 193 r part_2;
#X obj 302 305 s b_2;
#X obj 256 269 s po_2;
#X obj 403 240 r vol_2;
#X obj 299 381 int;
#X obj 448 389 r m_vol;
#X obj 432 431 *;
#X obj 299 361 expr ($f1 * $f2) + 1;
#X obj 391 340 r p_lim;
#X obj 356 338 bng 15 250 50 0 empty empty empty 17 7 0 10 -262144
-1 -1;
#X obj 432 410 bng 15 250 50 0 empty empty empty 17 7 0 10 -262144
-1 -1;
#X obj 303 521 int;
#X obj 452 529 r m_vol;
#X obj 436 571 *;
#X obj 303 501 expr ($f1 * $f2) + 1;
#X obj 395 480 r p_lim;
#X obj 360 478 bng 15 250 50 0 empty empty empty 17 7 0 10 -262144
-1 -1;
#X obj 436 550 bng 15 250 50 0 empty empty empty 17 7 0 10 -262144
-1 -1;
#X obj 296 335 r part_3;
#X obj 395 388 r vol_3;
#N canvas 594 221 692 522 harm_3 0;
#X msg 264 198 1 50 \, 0.5 50 100 \, 0 100 200;
#X obj 295 234 vline~;
#X obj 472 221 line~;
#X obj 403 137 tgl 15 0 empty empty empty 17 7 0 10 -262144 -1 -1 0
1;
#X msg 471 175 \$1 150;
#X obj 165 138 inlet;
#X obj 384 431 dac~;
#X obj 384 392 *~;
#X obj 380 304 *~;
#X obj 49 147 r base_freq;
#X obj 120 185 *;
#X obj 399 367 inlet;
#X obj 132 154 bng 15 250 50 0 empty empty empty 17 7 0 10 -262144
-1 -1;
#X obj 328 64 r kpress;
#X obj 332 158 outlet;
#X text 303 175 Debug noteplay;
#X obj 331 15 inlet;
#X obj 282 95 ==;
#X obj 332 36 unpack f f;
#X obj 403 92 ==;
#X obj 284 56 bng 15 250 50 0 empty empty empty 17 7 0 10 -262144 -1
-1;
#X obj 385 68 bng 15 250 50 0 empty empty empty 17 7 0 10 -262144 -1
-1;
#X obj 282 116 sel 1;
#X obj 403 113 sel 1;
#X obj 334 129 metro 50;
#X obj 120 215 osc~;
#X obj 172 195 osc~;
#X floatatom 171 169 5 0 0 0 - - -;
#X obj 174 220 *~;
#X floatatom 212 201 5 0 0 0 - - -;
#X obj 120 236 *~;
#X connect 0 0 1 0;
#X connect 1 0 8 1;
#X connect 2 0 8 1;
#X connect 3 0 4 0;
#X connect 3 0 24 0;
#X connect 4 0 2 0;
#X connect 5 0 10 1;
#X connect 5 0 12 0;
#X connect 7 0 6 1;
#X connect 7 0 6 0;
#X connect 8 0 7 0;
#X connect 9 0 10 0;
#X connect 10 0 25 0;
#X connect 11 0 7 1;
#X connect 12 0 10 0;
#X connect 13 0 19 0;
#X connect 13 0 17 0;
#X connect 16 0 18 0;
#X connect 17 0 22 0;
#X connect 18 0 17 1;
#X connect 18 0 20 0;
#X connect 18 1 19 1;
#X connect 18 1 21 0;
#X connect 19 0 23 0;
#X connect 20 0 17 0;
#X connect 21 0 19 0;
#X connect 22 0 0 0;
#X connect 22 0 14 0;
#X connect 23 0 3 0;
#X connect 24 0 14 0;
#X connect 25 0 30 0;
#X connect 26 0 28 0;
#X connect 27 0 26 0;
#X connect 28 0 30 1;
#X connect 29 0 28 1;
#X connect 30 0 8 0;
#X restore 300 426 pd harm_3;
#X obj 300 447 s b_3;
#X obj 254 411 s po_3;
#X obj 300 475 r part_4;
#X obj 399 528 r vol_4;
#N canvas 25 151 692 522 harm_4 0;
#X msg 209 199 1 50 \, 0.5 50 100 \, 0 100 200;
#X obj 240 235 vline~;
#X obj 472 221 line~;
#X obj 403 137 tgl 15 0 empty empty empty 17 7 0 10 -262144 -1 -1 0
1;
#X msg 471 175 \$1 150;
#X obj 140 186 inlet;
#X obj 384 431 dac~;
#X obj 152 264 osc~;
#X obj 384 392 *~;
#X obj 380 304 *~;
#X obj 24 195 r base_freq;
#X obj 95 233 *;
#X obj 399 367 inlet;
#X obj 107 202 bng 15 250 50 0 empty empty empty 17 7 0 10 -262144
-1 -1;
#X obj 328 64 r kpress;
#X obj 332 158 outlet;
#X text 303 175 Debug noteplay;
#X obj 331 15 inlet;
#X obj 282 95 ==;
#X obj 332 36 unpack f f;
#X obj 403 92 ==;
#X obj 284 56 bng 15 250 50 0 empty empty empty 17 7 0 10 -262144 -1
-1;
#X obj 385 68 bng 15 250 50 0 empty empty empty 17 7 0 10 -262144 -1
-1;
#X obj 282 116 sel 1;
#X obj 403 113 sel 1;
#X obj 334 129 metro 50;
#X connect 0 0 1 0;
#X connect 1 0 9 1;
#X connect 2 0 9 1;
#X connect 3 0 4 0;
#X connect 3 0 25 0;
#X connect 4 0 2 0;
#X connect 5 0 11 1;
#X connect 5 0 13 0;
#X connect 7 0 9 0;
#X connect 8 0 6 1;
#X connect 8 0 6 0;
#X connect 9 0 8 0;
#X connect 10 0 11 0;
#X connect 11 0 7 0;
#X connect 12 0 8 1;
#X connect 13 0 11 0;
#X connect 14 0 20 0;
#X connect 14 0 18 0;
#X connect 17 0 19 0;
#X connect 18 0 23 0;
#X connect 19 0 18 1;
#X connect 19 0 21 0;
#X connect 19 1 20 1;
#X connect 19 1 22 0;
#X connect 20 0 24 0;
#X connect 21 0 18 0;
#X connect 22 0 20 0;
#X connect 23 0 0 0;
#X connect 23 0 15 0;
#X connect 24 0 3 0;
#X connect 25 0 15 0;
#X restore 304 566 pd harm_4;
#X obj 304 587 s b_4;
#X obj 258 551 s po_4;
#X obj 305 666 int;
#X obj 454 674 r m_vol;
#X obj 438 716 *;
#X obj 305 646 expr ($f1 * $f2) + 1;
#X obj 397 625 r p_lim;
#X obj 362 623 bng 15 250 50 0 empty empty empty 17 7 0 10 -262144
-1 -1;
#X obj 438 695 bng 15 250 50 0 empty empty empty 17 7 0 10 -262144
-1 -1;
#X obj 302 620 r part_5;
#X obj 260 696 s po_5;
#N canvas 25 151 692 522 harm_5 0;
#X msg 209 199 1 50 \, 0.5 50 100 \, 0 100 200;
#X obj 240 235 vline~;
#X obj 472 221 line~;
#X obj 403 137 tgl 15 0 empty empty empty 17 7 0 10 -262144 -1 -1 0
1;
#X msg 471 175 \$1 150;
#X obj 140 186 inlet;
#X obj 384 431 dac~;
#X obj 152 264 osc~;
#X obj 384 392 *~;
#X obj 380 304 *~;
#X obj 24 195 r base_freq;
#X obj 95 233 *;
#X obj 399 367 inlet;
#X obj 107 202 bng 15 250 50 0 empty empty empty 17 7 0 10 -262144
-1 -1;
#X obj 328 64 r kpress;
#X obj 332 158 outlet;
#X text 303 175 Debug noteplay;
#X obj 331 15 inlet;
#X obj 282 95 ==;
#X obj 332 36 unpack f f;
#X obj 403 92 ==;
#X obj 284 56 bng 15 250 50 0 empty empty empty 17 7 0 10 -262144 -1
-1;
#X obj 385 68 bng 15 250 50 0 empty empty empty 17 7 0 10 -262144 -1
-1;
#X obj 282 116 sel 1;
#X obj 403 113 sel 1;
#X obj 334 129 metro 50;
#X connect 0 0 1 0;
#X connect 1 0 9 1;
#X connect 2 0 9 1;
#X connect 3 0 4 0;
#X connect 3 0 25 0;
#X connect 4 0 2 0;
#X connect 5 0 11 1;
#X connect 5 0 13 0;
#X connect 7 0 9 0;
#X connect 8 0 6 1;
#X connect 8 0 6 0;
#X connect 9 0 8 0;
#X connect 10 0 11 0;
#X connect 11 0 7 0;
#X connect 12 0 8 1;
#X connect 13 0 11 0;
#X connect 14 0 20 0;
#X connect 14 0 18 0;
#X connect 17 0 19 0;
#X connect 18 0 23 0;
#X connect 19 0 18 1;
#X connect 19 0 21 0;
#X connect 19 1 20 1;
#X connect 19 1 22 0;
#X connect 20 0 24 0;
#X connect 21 0 18 0;
#X connect 22 0 20 0;
#X connect 23 0 0 0;
#X connect 23 0 15 0;
#X connect 24 0 3 0;
#X connect 25 0 15 0;
#X restore 306 711 pd harm_5;
#X obj 306 732 s b_5;
#X obj 401 673 r vol_5;
#X obj 538 98 int;
#X obj 687 106 r m_vol;
#X obj 671 148 *;
#X obj 538 78 expr ($f1 * $f2) + 1;
#X obj 630 57 r p_lim;
#X obj 595 55 bng 15 250 50 0 empty empty empty 17 7 0 10 -262144 -1
-1;
#X obj 671 127 bng 15 250 50 0 empty empty empty 17 7 0 10 -262144
-1 -1;
#X obj 542 238 int;
#X obj 691 246 r m_vol;
#X obj 675 288 *;
#X obj 542 218 expr ($f1 * $f2) + 1;
#X obj 634 197 r p_lim;
#X obj 599 195 bng 15 250 50 0 empty empty empty 17 7 0 10 -262144
-1 -1;
#X obj 675 267 bng 15 250 50 0 empty empty empty 17 7 0 10 -262144
-1 -1;
#X obj 540 380 int;
#X obj 689 388 r m_vol;
#X obj 673 430 *;
#X obj 540 360 expr ($f1 * $f2) + 1;
#X obj 632 339 r p_lim;
#X obj 597 337 bng 15 250 50 0 empty empty empty 17 7 0 10 -262144
-1 -1;
#X obj 673 409 bng 15 250 50 0 empty empty empty 17 7 0 10 -262144
-1 -1;
#X obj 544 520 int;
#X obj 693 528 r m_vol;
#X obj 677 570 *;
#X obj 544 500 expr ($f1 * $f2) + 1;
#X obj 636 479 r p_lim;
#X obj 601 477 bng 15 250 50 0 empty empty empty 17 7 0 10 -262144
-1 -1;
#X obj 677 549 bng 15 250 50 0 empty empty empty 17 7 0 10 -262144
-1 -1;
#X obj 546 665 int;
#X obj 695 673 r m_vol;
#X obj 679 715 *;
#X obj 546 645 expr ($f1 * $f2) + 1;
#X obj 638 624 r p_lim;
#X obj 603 622 bng 15 250 50 0 empty empty empty 17 7 0 10 -262144
-1 -1;
#X obj 679 694 bng 15 250 50 0 empty empty empty 17 7 0 10 -262144
-1 -1;
#X obj 535 52 r part_6;
#X obj 543 619 r part_10;
#X obj 642 672 r vol_10;
#N canvas 25 151 692 522 harm_10 0;
#X msg 209 199 1 50 \, 0.5 50 100 \, 0 100 200;
#X obj 240 235 vline~;
#X obj 472 221 line~;
#X obj 403 137 tgl 15 0 empty empty empty 17 7 0 10 -262144 -1 -1 0
1;
#X msg 471 175 \$1 150;
#X obj 140 186 inlet;
#X obj 384 431 dac~;
#X obj 152 264 osc~;
#X obj 384 392 *~;
#X obj 380 304 *~;
#X obj 24 195 r base_freq;
#X obj 95 233 *;
#X obj 399 367 inlet;
#X obj 107 202 bng 15 250 50 0 empty empty empty 17 7 0 10 -262144
-1 -1;
#X obj 328 64 r kpress;
#X obj 332 158 outlet;
#X text 303 175 Debug noteplay;
#X obj 331 15 inlet;
#X obj 282 95 ==;
#X obj 332 36 unpack f f;
#X obj 403 92 ==;
#X obj 284 56 bng 15 250 50 0 empty empty empty 17 7 0 10 -262144 -1
-1;
#X obj 385 68 bng 15 250 50 0 empty empty empty 17 7 0 10 -262144 -1
-1;
#X obj 282 116 sel 1;
#X obj 403 113 sel 1;
#X obj 334 129 metro 50;
#X connect 0 0 1 0;
#X connect 1 0 9 1;
#X connect 2 0 9 1;
#X connect 3 0 4 0;
#X connect 3 0 15 0;
#X connect 3 0 25 0;
#X connect 4 0 2 0;
#X connect 5 0 11 1;
#X connect 5 0 13 0;
#X connect 7 0 9 0;
#X connect 8 0 6 1;
#X connect 8 0 6 0;
#X connect 9 0 8 0;
#X connect 10 0 11 0;
#X connect 11 0 7 0;
#X connect 12 0 8 1;
#X connect 13 0 11 0;
#X connect 14 0 20 0;
#X connect 14 0 18 0;
#X connect 17 0 19 0;
#X connect 18 0 23 0;
#X connect 19 0 18 1;
#X connect 19 0 21 0;
#X connect 19 1 20 1;
#X connect 19 1 22 0;
#X connect 20 0 24 0;
#X connect 21 0 18 0;
#X connect 22 0 20 0;
#X connect 23 0 0 0;
#X connect 23 0 15 0;
#X connect 24 0 3 0;
#X connect 25 0 15 0;
#X restore 547 710 pd harm_10;
#X obj 547 731 s b_10;
#X obj 501 695 s po_10;
#X obj 499 550 s po_9;
#X obj 545 586 s b_9;
#N canvas 25 151 692 522 harm_9 0;
#X msg 209 199 1 50 \, 0.5 50 100 \, 0 100 200;
#X obj 240 235 vline~;
#X obj 472 221 line~;
#X obj 403 137 tgl 15 0 empty empty empty 17 7 0 10 -262144 -1 -1 0
1;
#X msg 471 175 \$1 150;
#X obj 140 186 inlet;
#X obj 384 431 dac~;
#X obj 152 264 osc~;
#X obj 384 392 *~;
#X obj 380 304 *~;
#X obj 24 195 r base_freq;
#X obj 95 233 *;
#X obj 399 367 inlet;
#X obj 107 202 bng 15 250 50 0 empty empty empty 17 7 0 10 -262144
-1 -1;
#X obj 328 64 r kpress;
#X obj 332 158 outlet;
#X text 303 175 Debug noteplay;
#X obj 331 15 inlet;
#X obj 282 95 ==;
#X obj 332 36 unpack f f;
#X obj 403 92 ==;
#X obj 284 56 bng 15 250 50 0 empty empty empty 17 7 0 10 -262144 -1
-1;
#X obj 385 68 bng 15 250 50 0 empty empty empty 17 7 0 10 -262144 -1
-1;
#X obj 282 116 sel 1;
#X obj 403 113 sel 1;
#X obj 334 129 metro 50;
#X connect 0 0 1 0;
#X connect 1 0 9 1;
#X connect 2 0 9 1;
#X connect 3 0 4 0;
#X connect 3 0 25 0;
#X connect 4 0 2 0;
#X connect 5 0 11 1;
#X connect 5 0 13 0;
#X connect 7 0 9 0;
#X connect 8 0 6 1;
#X connect 8 0 6 0;
#X connect 9 0 8 0;
#X connect 10 0 11 0;
#X connect 11 0 7 0;
#X connect 12 0 8 1;
#X connect 13 0 11 0;
#X connect 14 0 20 0;
#X connect 14 0 18 0;
#X connect 17 0 19 0;
#X connect 18 0 23 0;
#X connect 19 0 18 1;
#X connect 19 0 21 0;
#X connect 19 1 20 1;
#X connect 19 1 22 0;
#X connect 20 0 24 0;
#X connect 21 0 18 0;
#X connect 22 0 20 0;
#X connect 23 0 0 0;
#X connect 23 0 15 0;
#X connect 24 0 3 0;
#X connect 25 0 15 0;
#X restore 545 565 pd harm_9;
#X obj 640 527 r vol_9;
#X obj 541 474 r part_9;
#X obj 541 446 s b_8;
#X obj 495 410 s po_8;
#X obj 636 387 r vol_8;
#X obj 537 334 r part_8;
#X obj 539 192 r part_7;
#X obj 497 268 s po_7;
#X obj 543 304 s b_7;
#N canvas 25 151 692 522 harm_7 0;
#X msg 209 199 1 50 \, 0.5 50 100 \, 0 100 200;
#X obj 240 235 vline~;
#X obj 472 221 line~;
#X obj 403 137 tgl 15 0 empty empty empty 17 7 0 10 -262144 -1 -1 0
1;
#X msg 471 175 \$1 150;
#X obj 140 186 inlet;
#X obj 384 431 dac~;
#X obj 152 264 osc~;
#X obj 384 392 *~;
#X obj 380 304 *~;
#X obj 24 195 r base_freq;
#X obj 95 233 *;
#X obj 399 367 inlet;
#X obj 107 202 bng 15 250 50 0 empty empty empty 17 7 0 10 -262144
-1 -1;
#X obj 328 64 r kpress;
#X obj 332 158 outlet;
#X text 303 175 Debug noteplay;
#X obj 331 15 inlet;
#X obj 282 95 ==;
#X obj 332 36 unpack f f;
#X obj 403 92 ==;
#X obj 284 56 bng 15 250 50 0 empty empty empty 17 7 0 10 -262144 -1
-1;
#X obj 385 68 bng 15 250 50 0 empty empty empty 17 7 0 10 -262144 -1
-1;
#X obj 282 116 sel 1;
#X obj 403 113 sel 1;
#X obj 334 129 metro 50;
#X connect 0 0 1 0;
#X connect 1 0 9 1;
#X connect 2 0 9 1;
#X connect 3 0 4 0;
#X connect 3 0 25 0;
#X connect 4 0 2 0;
#X connect 5 0 11 1;
#X connect 5 0 13 0;
#X connect 7 0 9 0;
#X connect 8 0 6 1;
#X connect 8 0 6 0;
#X connect 9 0 8 0;
#X connect 10 0 11 0;
#X connect 11 0 7 0;
#X connect 12 0 8 1;
#X connect 13 0 11 0;
#X connect 14 0 20 0;
#X connect 14 0 18 0;
#X connect 17 0 19 0;
#X connect 18 0 23 0;
#X connect 19 0 18 1;
#X connect 19 0 21 0;
#X connect 19 1 20 1;
#X connect 19 1 22 0;
#X connect 20 0 24 0;
#X connect 21 0 18 0;
#X connect 22 0 20 0;
#X connect 23 0 0 0;
#X connect 23 0 15 0;
#X connect 24 0 3 0;
#X connect 25 0 15 0;
#X restore 543 283 pd harm_7;
#X obj 638 245 r vol_7;
#X obj 539 164 s b_6;
#X obj 493 128 s po_6;
#X obj 634 105 r vol_6;
#N canvas 25 151 692 522 harm_8 0;
#X msg 209 199 1 50 \, 0.5 50 100 \, 0 100 200;
#X obj 240 235 vline~;
#X obj 472 221 line~;
#X obj 403 137 tgl 15 0 empty empty empty 17 7 0 10 -262144 -1 -1 0
1;
#X msg 471 175 \$1 150;
#X obj 140 186 inlet;
#X obj 384 431 dac~;
#X obj 152 264 osc~;
#X obj 384 392 *~;
#X obj 380 304 *~;
#X obj 24 195 r base_freq;
#X obj 95 233 *;
#X obj 399 367 inlet;
#X obj 107 202 bng 15 250 50 0 empty empty empty 17 7 0 10 -262144
-1 -1;
#X obj 328 64 r kpress;
#X obj 332 158 outlet;
#X text 303 175 Debug noteplay;
#X obj 331 15 inlet;
#X obj 282 95 ==;
#X obj 332 36 unpack f f;
#X obj 403 92 ==;
#X obj 284 56 bng 15 250 50 0 empty empty empty 17 7 0 10 -262144 -1
-1;
#X obj 385 68 bng 15 250 50 0 empty empty empty 17 7 0 10 -262144 -1
-1;
#X obj 282 116 sel 1;
#X obj 403 113 sel 1;
#X obj 334 129 metro 50;
#X connect 0 0 1 0;
#X connect 1 0 9 1;
#X connect 2 0 9 1;
#X connect 3 0 4 0;
#X connect 3 0 25 0;
#X connect 4 0 2 0;
#X connect 5 0 11 1;
#X connect 5 0 13 0;
#X connect 7 0 9 0;
#X connect 8 0 6 1;
#X connect 8 0 6 0;
#X connect 9 0 8 0;
#X connect 10 0 11 0;
#X connect 11 0 7 0;
#X connect 12 0 8 1;
#X connect 13 0 11 0;
#X connect 14 0 20 0;
#X connect 14 0 18 0;
#X connect 17 0 19 0;
#X connect 18 0 23 0;
#X connect 19 0 18 1;
#X connect 19 0 21 0;
#X connect 19 1 20 1;
#X connect 19 1 22 0;
#X connect 20 0 24 0;
#X connect 21 0 18 0;
#X connect 22 0 20 0;
#X connect 23 0 0 0;
#X connect 23 0 15 0;
#X connect 24 0 3 0;
#X connect 25 0 15 0;
#X restore 541 425 pd harm_8;
#X msg 323 401 100 68;
#X msg 327 541 102 70;
#X msg 329 686 104 72;
#X msg 562 118 106 74;
#X msg 566 258 107 75;
#X msg 564 400 108 76;
#X msg 568 540 99 67;
#X msg 570 685 110 78;
#N canvas 25 151 692 522 harm_6 0;
#X msg 209 199 1 50 \, 0.5 50 100 \, 0 100 200;
#X obj 240 235 vline~;
#X obj 472 221 line~;
#X obj 403 137 tgl 15 0 empty empty empty 17 7 0 10 -262144 -1 -1 0
1;
#X msg 471 175 \$1 150;
#X obj 140 186 inlet;
#X obj 384 431 dac~;
#X obj 152 264 osc~;
#X obj 384 392 *~;
#X obj 380 304 *~;
#X obj 24 195 r base_freq;
#X obj 95 233 *;
#X obj 399 367 inlet;
#X obj 107 202 bng 15 250 50 0 empty empty empty 17 7 0 10 -262144
-1 -1;
#X obj 328 64 r kpress;
#X obj 332 158 outlet;
#X text 303 175 Debug noteplay;
#X obj 331 15 inlet;
#X obj 282 95 ==;
#X obj 332 36 unpack f f;
#X obj 403 92 ==;
#X obj 284 56 bng 15 250 50 0 empty empty empty 17 7 0 10 -262144 -1
-1;
#X obj 385 68 bng 15 250 50 0 empty empty empty 17 7 0 10 -262144 -1
-1;
#X obj 282 116 sel 1;
#X obj 403 113 sel 1;
#X obj 334 126 metro 50;
#X connect 0 0 1 0;
#X connect 1 0 9 1;
#X connect 2 0 9 1;
#X connect 3 0 4 0;
#X connect 3 0 25 0;
#X connect 4 0 2 0;
#X connect 5 0 11 1;
#X connect 5 0 13 0;
#X connect 7 0 9 0;
#X connect 8 0 6 1;
#X connect 8 0 6 0;
#X connect 9 0 8 0;
#X connect 10 0 11 0;
#X connect 11 0 7 0;
#X connect 12 0 8 1;
#X connect 13 0 11 0;
#X connect 14 0 20 0;
#X connect 14 0 18 0;
#X connect 17 0 19 0;
#X connect 18 0 23 0;
#X connect 19 0 18 1;
#X connect 19 0 21 0;
#X connect 19 1 20 1;
#X connect 19 1 22 0;
#X connect 20 0 24 0;
#X connect 21 0 18 0;
#X connect 22 0 20 0;
#X connect 23 0 0 0;
#X connect 23 0 15 0;
#X connect 24 0 3 0;
#X connect 25 0 15 0;
#X restore 539 143 pd harm_6;
#X text 481 11 Overtones;
#N canvas 34 138 496 610 base_osc 0;
#X obj 289 362 dac~;
#X obj 291 215 osc~;
#X obj 289 323 *~;
#X text 277 45 slider for base freq;
#X obj 290 273 *~;
#X obj 346 247 line~;
#X msg 343 221 \$1 150;
#X obj 341 193 r audio_t;
#X obj 276 76 inlet;
#X obj 66 84 sel 32;
#X obj 65 129 s audio_t;
#X obj 66 107 tgl 15 0 empty empty empty 17 7 0 10 -262144 -1 -1 0
1;
#X obj 323 294 inlet;
#X obj 66 57 r kpress;
#X connect 1 0 4 0;
#X connect 2 0 0 1;
#X connect 2 0 0 0;
#X connect 4 0 2 0;
#X connect 5 0 4 1;
#X connect 6 0 5 0;
#X connect 7 0 6 0;
#X connect 8 0 1 0;
#X connect 9 0 11 0;
#X connect 11 0 10 0;
#X connect 12 0 2 1;
#X connect 13 0 9 0;
#X coords 0 610 1 609 85 60 0;
#X restore 79 343 pd base_osc;
#X obj 142 322 r m_vol;
#X obj 79 300 r base_freq;
#X text 82 271 Main voice;
#X obj 326 99 loadbang;
#X obj 331 238 loadbang;
#X obj 333 378 loadbang;
#X obj 339 520 loadbang;
#X obj 337 665 loadbang;
#X obj 563 98 loadbang;
#X obj 568 240 loadbang;
#X obj 570 377 loadbang;
#X obj 576 519 loadbang;
#X obj 575 664 loadbang;
#X connect 0 0 3 0;
#X connect 0 0 11 0;
#X connect 1 0 2 1;
#X connect 1 0 10 0;
#X connect 2 0 3 2;
#X connect 3 0 6 0;
#X connect 4 0 7 0;
#X connect 5 0 2 0;
#X connect 7 0 0 0;
#X connect 8 0 9 0;
#X connect 8 0 7 1;
#X connect 9 0 7 0;
#X connect 10 0 2 0;
#X connect 12 0 3 1;
#X connect 13 0 24 0;
#X connect 13 0 20 0;
#X connect 14 0 15 1;
#X connect 14 0 19 0;
#X connect 15 0 20 2;
#X connect 16 0 13 0;
#X connect 17 0 16 1;
#X connect 17 0 18 0;
#X connect 18 0 16 0;
#X connect 19 0 15 0;
#X connect 20 0 23 0;
#X connect 21 0 20 1;
#X connect 22 0 16 0;
#X connect 25 0 15 0;
#X connect 26 0 42 0;
#X connect 26 0 44 0;
#X connect 27 0 28 1;
#X connect 27 0 32 0;
#X connect 28 0 42 2;
#X connect 29 0 26 0;
#X connect 30 0 29 1;
#X connect 30 0 31 0;
#X connect 31 0 29 0;
#X connect 32 0 28 0;
#X connect 33 0 47 0;
#X connect 33 0 49 0;
#X connect 34 0 35 1;
#X connect 34 0 39 0;
#X connect 35 0 47 2;
#X connect 36 0 33 0;
#X connect 37 0 36 1;
#X connect 37 0 38 0;
#X connect 38 0 36 0;
#X connect 39 0 35 0;
#X connect 40 0 29 0;
#X connect 41 0 28 0;
#X connect 42 0 43 0;
#X connect 45 0 36 0;
#X connect 46 0 35 0;
#X connect 47 0 48 0;
#X connect 50 0 59 0;
#X connect 50 0 58 0;
#X connect 51 0 52 1;
#X connect 51 0 56 0;
#X connect 52 0 59 2;
#X connect 53 0 50 0;
#X connect 54 0 53 1;
#X connect 54 0 55 0;
#X connect 55 0 53 0;
#X connect 56 0 52 0;
#X connect 57 0 53 0;
#X connect 59 0 60 0;
#X connect 61 0 52 0;
#X connect 62 0 129 0;
#X connect 62 0 118 0;
#X connect 63 0 64 1;
#X connect 63 0 68 0;
#X connect 64 0 129 2;
#X connect 65 0 62 0;
#X connect 66 0 65 1;
#X connect 66 0 67 0;
#X connect 67 0 65 0;
#X connect 68 0 64 0;
#X connect 69 0 115 0;
#X connect 69 0 113 0;
#X connect 70 0 71 1;
#X connect 70 0 75 0;
#X connect 71 0 115 2;
#X connect 72 0 69 0;
#X connect 73 0 72 1;
#X connect 73 0 74 0;
#X connect 74 0 72 0;
#X connect 75 0 71 0;
#X connect 76 0 120 0;
#X connect 76 0 109 0;
#X connect 77 0 78 1;
#X connect 77 0 82 0;
#X connect 78 0 120 2;
#X connect 79 0 76 0;
#X connect 80 0 79 1;
#X connect 80 0 81 0;
#X connect 81 0 79 0;
#X connect 82 0 78 0;
#X connect 83 0 105 0;
#X connect 83 0 103 0;
#X connect 84 0 85 1;
#X connect 84 0 89 0;
#X connect 85 0 105 2;
#X connect 86 0 83 0;
#X connect 87 0 86 1;
#X connect 87 0 88 0;
#X connect 88 0 86 0;
#X connect 89 0 85 0;
#X connect 90 0 100 0;
#X connect 90 0 102 0;
#X connect 91 0 92 1;
#X connect 91 0 96 0;
#X connect 92 0 100 2;
#X connect 93 0 90 0;
#X connect 94 0 93 1;
#X connect 94 0 95 0;
#X connect 95 0 93 0;
#X connect 96 0 92 0;
#X connect 97 0 65 0;
#X connect 98 0 93 0;
#X connect 99 0 92 0;
#X connect 100 0 101 0;
#X connect 105 0 104 0;
#X connect 106 0 85 0;
#X connect 107 0 86 0;
#X connect 110 0 78 0;
#X connect 111 0 79 0;
#X connect 112 0 72 0;
#X connect 115 0 114 0;
#X connect 116 0 71 0;
#X connect 119 0 64 0;
#X connect 120 0 108 0;
#X connect 121 0 42 1;
#X connect 122 0 47 1;
#X connect 123 0 59 1;
#X connect 124 0 129 1;
#X connect 125 0 115 1;
#X connect 126 0 120 1;
#X connect 127 0 105 1;
#X connect 128 0 100 1;
#X connect 129 0 117 0;
#X connect 132 0 131 1;
#X connect 133 0 131 0;
#X connect 135 0 12 0;
#X connect 136 0 21 0;
#X connect 137 0 121 0;
#X connect 138 0 122 0;
#X connect 139 0 123 0;
#X connect 140 0 124 0;
#X connect 141 0 125 0;
#X connect 142 0 126 0;
#X connect 143 0 127 0;
#X connect 144 0 128 0;
#X restore 530 510 pd voices;
#X msg 331 54 \; pd dsp \$1;
#X text 520 582 Send keycode;
#X obj 638 530 - 1;
#X text 523 487 voice structs;
#X obj 17 439 r b_1;
#X obj 25 421 bng 15 250 50 0 empty empty empty 17 7 0 10 -1 -204800
-1;
#X obj 48 420 bng 15 250 50 0 empty empty empty 17 7 0 10 -1 -204800
-1;
#X obj 40 438 r b_2;
#X obj 71 420 bng 15 250 50 0 empty empty empty 17 7 0 10 -1 -204800
-1;
#X obj 93 420 bng 15 250 50 0 empty empty empty 17 7 0 10 -1 -204800
-1;
#X obj 63 438 r b_3;
#X obj 85 438 r b_4;
#X obj 117 420 bng 15 250 50 0 empty empty empty 17 7 0 10 -1 -204800
-1;
#X obj 140 420 bng 15 250 50 0 empty empty empty 17 7 0 10 -1 -204800
-1;
#X obj 163 420 bng 15 250 50 0 empty empty empty 17 7 0 10 -1 -204800
-1;
#X obj 186 420 bng 15 250 50 0 empty empty empty 17 7 0 10 -1 -204800
-1;
#X obj 109 438 r b_5;
#X obj 132 438 r b_6;
#X obj 155 438 r b_7;
#X obj 178 438 r b_8;
#X obj 208 420 bng 15 250 50 0 empty empty empty 17 7 0 10 -1 -204800
-1;
#X obj 232 420 bng 15 250 50 0 empty empty empty 17 7 0 10 -1 -204800
-1;
#X obj 200 438 r b_9;
#X obj 224 438 r b_10;
#X text 617 573 Set upper limit;
#X text 621 585 on nth partial;
#X obj 278 439 r b_1;
#X obj 286 421 bng 15 250 50 0 empty empty empty 17 7 0 10 -1 -204800
-1;
#X obj 309 420 bng 15 250 50 0 empty empty empty 17 7 0 10 -1 -204800
-1;
#X obj 301 438 r b_2;
#X obj 332 420 bng 15 250 50 0 empty empty empty 17 7 0 10 -1 -204800
-1;
#X obj 354 420 bng 15 250 50 0 empty empty empty 17 7 0 10 -1 -204800
-1;
#X obj 324 438 r b_3;
#X obj 346 438 r b_4;
#X obj 378 420 bng 15 250 50 0 empty empty empty 17 7 0 10 -1 -204800
-1;
#X obj 401 420 bng 15 250 50 0 empty empty empty 17 7 0 10 -1 -204800
-1;
#X obj 424 420 bng 15 250 50 0 empty empty empty 17 7 0 10 -1 -204800
-1;
#X obj 447 420 bng 15 250 50 0 empty empty empty 17 7 0 10 -1 -204800
-1;
#X obj 370 438 r b_5;
#X obj 393 438 r b_6;
#X obj 416 438 r b_7;
#X obj 439 438 r b_8;
#X obj 469 420 bng 15 250 50 0 empty empty empty 17 7 0 10 -1 -204800
-1;
#X obj 493 420 bng 15 250 50 0 empty empty empty 17 7 0 10 -1 -204800
-1;
#X obj 461 438 r b_9;
#X obj 475 438 r b_10;
#X connect 0 0 82 0;
#X connect 2 0 3 0;
#X connect 4 0 7 0;
#X connect 5 0 6 0;
#X connect 12 0 21 0;
#X connect 13 0 22 0;
#X connect 14 0 23 0;
#X connect 15 0 24 0;
#X connect 16 0 25 0;
#X connect 17 0 26 0;
#X connect 18 0 27 0;
#X connect 19 0 28 0;
#X connect 20 0 29 0;
#X connect 34 0 35 0;
#X connect 40 0 50 0;
#X connect 41 0 51 0;
#X connect 42 0 52 0;
#X connect 43 0 53 0;
#X connect 44 0 54 0;
#X connect 45 0 55 0;
#X connect 46 0 56 0;
#X connect 47 0 57 0;
#X connect 48 0 58 0;
#X connect 49 0 59 0;
#X connect 61 0 84 0;
#X connect 84 0 60 0;
#X connect 86 0 87 0;
#X connect 89 0 88 0;
#X connect 92 0 90 0;
#X connect 93 0 91 0;
#X connect 98 0 94 0;
#X connect 99 0 95 0;
#X connect 100 0 96 0;
#X connect 101 0 97 0;
#X connect 104 0 102 0;
#X connect 105 0 103 0;
#X connect 108 0 109 0;
#X connect 111 0 110 0;
#X connect 114 0 112 0;
#X connect 115 0 113 0;
#X connect 120 0 116 0;
#X connect 121 0 117 0;
#X connect 122 0 118 0;
#X connect 123 0 119 0;
#X connect 126 0 124 0;
#X connect 127 0 125 0;
