#N canvas 256 23 1248 762 12;
#X obj 340 295 cnv 15 890 441 empty empty empty 20 12 0 14 -232576
-66577 0;
#X obj 147 -6 cnv 15 450 290 empty empty empty 20 12 0 14 -204786 -66577
0;
#X obj 478 212 tgl 15 0 empty empty empty 17 7 0 10 -262144 -1 -1 1
1;
#X obj 195 216 tgl 15 0 empty empty empty -50 -15 0 10 -261234 -1 -1
1 1;
#X obj 609 -5 cnv 15 620 290 empty empty empty 20 12 0 14 -204800 -66577
0;
#X obj 9 129 cnv 15 25 25 empty empty Audio_Routing 30 12 0 14 -204786
-66577 0;
#X obj 9 163 cnv 15 25 25 empty empty OSC_Bangs 30 12 0 14 -204800
-66577 0;
#N canvas 207 23 1233 720 ode_itor_2 0;
#X obj 111 330 unpack f f f;
#X obj 512 302 unpack f f f;
#X obj 864 337 unpack f f f;
#X obj 39 356 expr $f1 + (0.001*($f4*($f2-$f1)));
#X obj 395 362 expr $f2 + (0.001*(($f1*($f4-$f3))-$f2));
#X obj 784 363 expr $f3 + (0.001*(($f1*$f2)-($f4*$f3)));
#X floatatom 292 342 5 0 0 0 - - -;
#X text 82 275 dx=sigma(Y-X);
#X text 519 248 dy=X(rho-Z)-Y;
#X text 907 274 dz=XY-bZ;
#X floatatom 699 352 5 0 0 0 - - -;
#X floatatom 1084 360 5 0 0 0 - - -;
#X obj 38 390 send x2;
#X obj 362 394 send y2;
#X obj 784 387 send z2;
#X obj 110 303 receive iter_xyz2;
#X obj 514 274 receive iter_xyz2;
#X obj 864 309 receive iter_xyz2;
#X obj 500 78 float;
#X obj 561 76 float;
#X obj 633 79 float;
#X obj 547 102 pack f f f;
#X obj 627 52 r lp;
#X obj 546 51 r lp;
#X obj 469 52 r lp;
#X obj 507 53 r x2;
#X obj 583 53 r y2;
#X obj 663 54 r z2;
#X obj 547 128 s iter_xyz2;
#X text 441 20 Pack all at once to prevent stack overflow;
#X obj 673 317 r bfreq_2;
#X obj 275 315 r atk_2;
#X obj 1062 331 r sus_2;
#X obj 666 566 line~;
#X msg 665 541 \$1 150;
#X obj 510 521 osc~;
#X obj 511 495 *~ 1;
#X obj 514 614 *~;
#X obj 665 512 inlet;
#X obj 575 608 inlet;
#X obj 514 585 *~;
#X obj 548 512 inlet;
#X obj 602 639 r fx_2;
#X obj 548 559 *;
#X obj 578 535 r max_vol;
#X obj 558 537 bng 15 250 50 0 empty empty empty 17 7 0 10 -262144
-1 -1;
#N canvas 25 23 665 688 a_out_2 0;
#X obj 284 614 dac~;
#X obj 419 343 sig~;
#X obj 504 341 sig~;
#X obj 190 387 freeverb~;
#X msg 196 344 wet \$1;
#X msg 257 343 dry \$1;
#X msg 317 342 roomsize \$1;
#X obj 15 53 inlet~;
#X obj 234 259 inlet;
#X obj 234 283 unpack f f f f f;
#X text 232 231 receive fx spec;
#X text 16 21 receive freq_out;
#X text 106 389 add reverb;
#X text 259 456 add delay;
#X obj 14 253 *~;
#X obj 85 215 vline~;
#X msg 121 188 1 50 \, 0 \$2 \$3;
#X obj 155 141 / 2;
#X obj 127 90 inlet;
#X obj 88 92 int;
#X obj 88 116 sel 1;
#X msg 86 168 1;
#X obj 87 68 r bang_2;
#X obj 189 115 r dec_2;
#X obj 221 410 delwrite~ del_r2 4000;
#X obj 226 433 delwrite~ del_l2 4000;
#X obj 421 369 vd~ del_l2;
#X obj 505 369 vd~ del_r2;
#X obj 123 165 pack f f f;
#X text 248 361 receive fx spec;
#X text 547 324 add delay;
#X text 187 72 Process key-press;
#X obj 245 643 cnv 15 125 20 empty empty empty 20 12 0 14 -4032 -66577
0;
#X text 262 644 Final Output;
#X connect 1 0 26 0;
#X connect 2 0 27 0;
#X connect 3 0 0 0;
#X connect 3 0 0 1;
#X connect 3 0 24 0;
#X connect 3 0 25 0;
#X connect 4 0 3 0;
#X connect 5 0 3 0;
#X connect 6 0 3 0;
#X connect 7 0 14 0;
#X connect 8 0 9 0;
#X connect 9 0 4 0;
#X connect 9 1 5 0;
#X connect 9 2 6 0;
#X connect 9 3 1 0;
#X connect 9 4 2 0;
#X connect 14 0 3 0;
#X connect 15 0 14 1;
#X connect 16 0 15 0;
#X connect 17 0 28 1;
#X connect 18 0 19 1;
#X connect 18 0 20 0;
#X connect 19 0 20 0;
#X connect 20 0 21 0;
#X connect 20 1 28 0;
#X connect 21 0 15 0;
#X connect 22 0 19 0;
#X connect 23 0 17 0;
#X connect 23 0 28 2;
#X connect 26 0 0 0;
#X connect 27 0 0 1;
#X connect 28 0 16 0;
#X restore 520 667 pd a_out_2;
#X obj 510 472 r iter_xyz2;
#X text 516 198 Iterate Lorenz System;
#X text 486 434 Calculate clean osc sig;
#X obj 431 695 cnv 15 300 20 empty empty empty 20 12 0 14 -4032 -66577
0;
#X text 448 696 Send osc to fx processing and output;
#X connect 0 0 3 0;
#X connect 0 1 3 1;
#X connect 0 2 3 2;
#X connect 1 0 4 0;
#X connect 1 1 4 1;
#X connect 1 2 4 2;
#X connect 2 0 5 0;
#X connect 2 1 5 1;
#X connect 2 2 5 2;
#X connect 3 0 12 0;
#X connect 4 0 13 0;
#X connect 5 0 14 0;
#X connect 15 0 0 0;
#X connect 16 0 1 0;
#X connect 17 0 2 0;
#X connect 18 0 21 0;
#X connect 19 0 21 1;
#X connect 20 0 21 2;
#X connect 21 0 28 0;
#X connect 22 0 20 0;
#X connect 23 0 19 0;
#X connect 24 0 18 0;
#X connect 25 0 18 1;
#X connect 26 0 19 1;
#X connect 27 0 20 1;
#X connect 30 0 10 0;
#X connect 30 0 4 3;
#X connect 31 0 6 0;
#X connect 31 0 3 3;
#X connect 32 0 11 0;
#X connect 32 0 5 3;
#X connect 33 0 37 1;
#X connect 34 0 33 0;
#X connect 35 0 40 0;
#X connect 36 0 35 0;
#X connect 37 0 46 0;
#X connect 38 0 34 0;
#X connect 39 0 46 1;
#X connect 40 0 37 0;
#X connect 41 0 43 0;
#X connect 42 0 46 2;
#X connect 43 0 40 1;
#X connect 44 0 43 1;
#X connect 44 0 45 0;
#X connect 45 0 43 0;
#X connect 47 0 36 0;
#X restore 760 523 pd ode_itor_2;
#N canvas 28 58 1259 714 ode_itor_3 0;
#X obj 109 320 unpack f f f;
#X obj 510 292 unpack f f f;
#X obj 862 327 unpack f f f;
#X obj 37 346 expr $f1 + (0.001*($f4*($f2-$f1)));
#X obj 393 352 expr $f2 + (0.001*(($f1*($f4-$f3))-$f2));
#X obj 782 353 expr $f3 + (0.001*(($f1*$f2)-($f4*$f3)));
#X floatatom 290 332 5 0 0 0 - - -;
#X text 80 265 dx=sigma(Y-X);
#X text 517 238 dy=X(rho-Z)-Y;
#X text 905 264 dz=XY-bZ;
#X floatatom 697 342 5 0 0 0 - - -;
#X floatatom 1082 350 5 0 0 0 - - -;
#X obj 482 89 float;
#X obj 543 87 float;
#X obj 615 90 float;
#X obj 529 113 pack f f f;
#X obj 609 63 r lp;
#X obj 528 62 r lp;
#X obj 447 63 r lp;
#X text 423 31 Pack all at once to prevent stack overflow;
#X obj 668 552 line~;
#X msg 667 527 \$1 150;
#X obj 512 507 osc~;
#X obj 513 481 *~ 1;
#X obj 516 600 *~;
#X obj 667 498 inlet;
#X obj 577 594 inlet;
#X obj 516 571 *~;
#X obj 550 498 inlet;
#X obj 550 545 *;
#X obj 580 521 r max_vol;
#X obj 560 523 bng 15 250 50 0 empty empty empty 17 7 0 10 -262144
-1 -1;
#X obj 273 305 r atk_3;
#X obj 108 293 receive iter_xyz3;
#X obj 36 380 send x3;
#X obj 512 264 receive iter_xyz3;
#X obj 671 307 r bfreq_3;
#X obj 360 384 send y3;
#X obj 862 299 receive iter_xyz3;
#X obj 1060 321 r sus_3;
#X obj 489 64 r x3;
#X obj 565 64 r y3;
#X obj 645 65 r z3;
#X obj 529 139 s iter_xyz3;
#X obj 512 458 r iter_xyz3;
#X obj 604 625 r fx_3;
#X obj 782 377 send z3;
#N canvas 23 24 1417 812 a_out_3 0;
#X obj 301 629 dac~;
#X obj 436 358 sig~;
#X obj 521 356 sig~;
#X obj 207 402 freeverb~;
#X msg 213 359 wet \$1;
#X msg 274 358 dry \$1;
#X msg 334 357 roomsize \$1;
#X obj 15 53 inlet~;
#X obj 251 274 inlet;
#X obj 251 298 unpack f f f f f;
#X text 249 246 receive fx spec;
#X text 16 21 receive freq_out;
#X text 123 404 add reverb;
#X text 276 471 add delay;
#X obj 14 253 *~;
#X obj 91 223 vline~;
#X msg 127 196 1 50 \, 0 \$2 \$3;
#X obj 161 140 / 2;
#X obj 133 98 inlet;
#X obj 94 100 int;
#X obj 94 124 sel 1;
#X msg 92 176 1;
#X obj 93 76 r bang_3;
#X obj 204 115 r dec_3;
#X obj 238 425 delwrite~ del_r3 4000;
#X obj 243 448 delwrite~ del_l3 4000;
#X obj 438 384 vd~ del_l3;
#X obj 522 384 vd~ del_r3;
#X obj 129 173 pack f f f;
#X text 547 324 add delay;
#X text 181 74 Process key-press;
#X obj 254 660 cnv 15 125 20 empty empty empty 20 12 0 14 -4032 -66577
0;
#X text 271 661 Final Output;
#X connect 1 0 26 0;
#X connect 2 0 27 0;
#X connect 3 0 0 0;
#X connect 3 0 0 1;
#X connect 3 0 24 0;
#X connect 3 0 25 0;
#X connect 4 0 3 0;
#X connect 5 0 3 0;
#X connect 6 0 3 0;
#X connect 7 0 14 0;
#X connect 8 0 9 0;
#X connect 9 0 4 0;
#X connect 9 1 5 0;
#X connect 9 2 6 0;
#X connect 9 3 1 0;
#X connect 9 4 2 0;
#X connect 14 0 3 0;
#X connect 15 0 14 1;
#X connect 16 0 15 0;
#X connect 17 0 28 1;
#X connect 18 0 19 1;
#X connect 18 0 20 0;
#X connect 19 0 20 0;
#X connect 20 0 21 0;
#X connect 20 1 28 0;
#X connect 21 0 15 0;
#X connect 22 0 19 0;
#X connect 23 0 17 0;
#X connect 23 0 28 2;
#X connect 26 0 0 0;
#X connect 27 0 0 1;
#X connect 28 0 16 0;
#X restore 522 653 pd a_out_3;
#X text 491 202 Iterate Lorenz System;
#X text 497 424 Calculate clean osc sig;
#X obj 421 684 cnv 15 300 20 empty empty empty 20 12 0 14 -4032 -66577
0;
#X text 438 685 Send osc to fx processing and output;
#X connect 0 0 3 0;
#X connect 0 1 3 1;
#X connect 0 2 3 2;
#X connect 1 0 4 0;
#X connect 1 1 4 1;
#X connect 1 2 4 2;
#X connect 2 0 5 0;
#X connect 2 1 5 1;
#X connect 2 2 5 2;
#X connect 3 0 34 0;
#X connect 4 0 37 0;
#X connect 5 0 46 0;
#X connect 12 0 15 0;
#X connect 13 0 15 1;
#X connect 14 0 15 2;
#X connect 15 0 43 0;
#X connect 16 0 14 0;
#X connect 17 0 13 0;
#X connect 18 0 12 0;
#X connect 20 0 24 1;
#X connect 21 0 20 0;
#X connect 22 0 27 0;
#X connect 23 0 22 0;
#X connect 24 0 47 0;
#X connect 25 0 21 0;
#X connect 26 0 47 1;
#X connect 27 0 24 0;
#X connect 28 0 29 0;
#X connect 29 0 27 1;
#X connect 30 0 29 1;
#X connect 30 0 31 0;
#X connect 31 0 29 0;
#X connect 32 0 6 0;
#X connect 32 0 3 3;
#X connect 33 0 0 0;
#X connect 35 0 1 0;
#X connect 36 0 10 0;
#X connect 36 0 4 3;
#X connect 38 0 2 0;
#X connect 39 0 11 0;
#X connect 39 0 5 3;
#X connect 40 0 12 1;
#X connect 41 0 13 1;
#X connect 42 0 14 1;
#X connect 44 0 23 0;
#X connect 45 0 47 2;
#X restore 1058 518 pd ode_itor_3;
#X obj 517 376 hsl 50 15 0.5 80 0 1 empty empty empty 55 7 0 10 -262144
-1 -1 400 1;
#X obj 373 486 hsl 50 15 0 150 0 1 empty empty empty 55 7 0 10 -262144
-1 -1 2500 1;
#X obj 371 376 hsl 50 15 0 30 0 1 empty empty empty 55 7 0 10 -262144
-1 -1 4000 1;
#X obj 9 296 cnv 15 320 170 empty empty empty 20 12 0 14 -261682 -66577
0;
#X obj 477 258 s lp;
#X obj 478 233 metro 1;
#X obj 9 195 cnv 15 25 25 empty empty ODE_itor/ctl 30 12 0 14 -232576
-66577 0;
#X obj 10 228 cnv 15 25 25 empty empty Triggers 30 12 0 14 -261682
-66577 0;
#X text 23 30 -------------;
#X text 23 47 frequency ctl;
#X text 18 63 by Lorenz ODEs;
#X msg 195 238 \; pd dsp \$1;
#X obj 690 130 bng 15 250 50 0 empty empty empty 17 7 0 10 -1 -262130
-1;
#X msg 649 202 0.01;
#X msg 692 201 -10;
#X msg 726 201 0.1;
#X obj 901 48 r init;
#X obj 739 168 s bang_1;
#X obj 736 238 send z;
#X obj 684 237 send y;
#X obj 627 236 send x;
#X obj 364 633 hsl 30 20 0 1 0 1 empty empty WET 5 -10 0 10 -262144
-1 -1 1100 1;
#X obj 403 633 hsl 30 20 0 1 0 1 empty empty DRY 5 -10 0 10 -262144
-1 -1 2900 1;
#X obj 442 633 hsl 30 20 0 1 0 1 empty empty DEPTH 0 -10 0 10 -262144
-1 -1 2300 1;
#X obj 509 633 hsl 30 20 0 4000 0 1 empty empty LEFT 3 -10 0 10 -262144
-1 -1 200 1;
#X obj 547 633 hsl 30 20 0 4000 0 1 empty empty RIGHT 0 -10 0 10 -262144
-1 -1 200 1;
#X obj 411 682 pack f f f f f;
#X obj 410 709 s fx_1;
#X obj 360 466 cnv 15 75 15 empty empty BEATFREQ 6 9 0 14 -262130 -66577
0;
#X obj 419 303 cnv 15 100 20 empty empty ATTRACTOR_1 7 11 0 14 -262130
-66577 0;
#X obj 703 305 cnv 15 100 20 empty empty ATTRACTOR_2 7 11 0 14 -262130
-66577 0;
#X obj 1003 305 cnv 15 100 20 empty empty ATTRACTOR_3 7 11 0 14 -262130
-66577 0;
#X obj 609 302 cnv 15 20 427 empty empty empty 20 12 0 14 -204800 -66577
0;
#X obj 894 301 cnv 15 20 427 empty empty empty 20 12 0 14 -204800 -66577
0;
#X obj 468 660 bng 15 250 50 0 empty empty empty 17 7 0 10 -1 -262130
-1;
#X obj 706 709 s fx_2;
#X obj 389 597 cnv 15 65 15 empty empty REVERB 9 9 0 14 -262130 -66577
0;
#X obj 511 597 cnv 15 60 15 empty empty DELAY 10 9 0 14 -262130 -66577
0;
#X obj 677 594 cnv 15 65 15 empty empty REVERB 9 9 0 14 -262130 -66577
0;
#X obj 804 592 cnv 15 60 15 empty empty DELAY 10 9 0 14 -262130 -66577
0;
#X obj 660 95 r trig_1;
#X obj 162 176 cnv 8 420 8 empty empty empty 20 12 0 14 -204800 -66577
0;
#X text 16 99 By Pablo Gaeta;
#X obj 245 400 loadbang;
#X obj 247 426 s init;
#X obj 515 396 nbx 5 14 -1e+037 1e+037 0 0 empty empty empty 0 -8 0
10 -262144 -1 -1 6.9898 256;
#X obj 369 506 nbx 5 14 -1e+037 1e+037 0 0 empty empty empty 0 -8 0
10 -262144 -1 -1 76.5306 256;
#X obj 368 397 nbx 5 14 -1e+037 1e+037 0 0 empty empty empty 0 -8 0
10 -262144 -1 -1 24.4898 256;
#X obj 12 502 cnv 15 320 230 empty empty empty 20 12 0 14 -204800 -66577
0;
#X obj 19 710 textfile;
#X msg 35 678 clear;
#X msg 21 651 add \$1 \$2 \$3;
#X msg 88 682 write scatter-plot/pd_3d_data.txt;
#X obj 24 510 r iter_xyz;
#X obj 119 510 r iter_xyz2;
#X obj 22 542 unpack f f f;
#X obj 119 539 unpack f f f;
#X obj 223 542 unpack f f f;
#X obj 106 572 +;
#X obj 106 596 +;
#X obj 138 575 +;
#X obj 138 599 +;
#X obj 178 575 +;
#X obj 178 599 +;
#X obj 107 619 pack f f f;
#X obj 222 510 r iter_xyz3;
#X obj 442 376 hsl 50 15 25 1000 0 1 empty empty empty -2 -8 0 10 -262144
-1 -1 2100 1;
#X obj 439 397 nbx 5 14 -1e+037 1e+037 0 0 empty empty empty 0 -8 0
10 -262144 -1 -1 442.857 256;
#X obj 368 416 s atk_1;
#X obj 439 416 s dec_1;
#X obj 515 415 s sus_1;
#X obj 369 525 s bfreq_1;
#X obj 562 502 tgl 15 1 empty empty On/Off -8 -10 0 10 -262130 -4160
-1 1 1;
#X obj 519 501 tgl 15 0 empty empty Drone -7 -10 0 10 -262130 -4160
-1 0 1;
#X obj 80 368 key;
#X obj 59 405 sel 97 115 100;
#X obj 17 433 s trig_1;
#X obj 81 432 s trig_2;
#X obj 147 431 s trig_3;
#X text 56 353 CATCH KEYPRESS;
#X obj 477 464 vsl 15 50 0 1 0 1 empty empty Volume -10 -9 0 10 -262144
-1 -1 1400 1;
#X obj 327 226 hsl 100 15 0 0.1 0 0 empty empty empty -2 -8 0 10 -262144
-1 -1 1200 1;
#X obj 324 245 s max_vol;
#X obj 806 376 hsl 50 15 0.5 80 0 1 empty empty empty 55 7 0 10 -262144
-1 -1 600 1;
#X obj 660 376 hsl 50 15 0 30 0 1 empty empty empty 55 7 0 10 -262144
-1 -1 3300 1;
#X obj 795 356 cnv 15 70 15 empty empty 'SUSTAIN' 0 9 0 14 -262130
-66577 0;
#X obj 654 356 cnv 15 60 15 empty empty 'ATTACK' -1 9 0 14 -262130
-66577 0;
#X obj 804 396 nbx 5 14 -1e+037 1e+037 0 0 empty empty empty 0 -8 0
10 -262144 -1 -1 10.2347 256;
#X obj 657 397 nbx 5 14 -1e+037 1e+037 0 0 empty empty empty 0 -8 0
10 -262144 -1 -1 20.2041 256;
#X obj 731 376 hsl 50 15 25 1000 0 1 empty empty empty -2 -8 0 10 -262144
-1 -1 1500 1;
#X obj 727 356 cnv 15 55 15 empty empty 'DECAY' -1 9 0 14 -262130 -66577
0;
#X obj 728 397 nbx 5 14 -1e+037 1e+037 0 0 empty empty empty 0 -8 0
10 -262144 -1 -1 323.469 256;
#X obj 670 484 hsl 50 15 0 150 0 1 empty empty empty 55 7 0 10 -262144
-1 -1 4800 1;
#X obj 657 464 cnv 15 75 15 empty empty BEATFREQ 6 9 0 14 -262130 -66577
0;
#X obj 666 504 nbx 5 14 -1e+037 1e+037 0 0 empty empty empty 0 -8 0
10 -262144 -1 -1 146.939 256;
#X obj 657 416 s atk_2;
#X obj 728 416 s dec_2;
#X obj 804 415 s sus_2;
#X obj 666 523 s bfreq_2;
#X obj 847 497 tgl 15 1 empty empty On/Off -8 -10 0 10 -262130 -4160
-1 1 1;
#X obj 804 498 tgl 15 0 empty empty Drone -7 -10 0 10 -262130 -4160
-1 0 1;
#X obj 760 465 vsl 15 50 0 1 0 1 empty empty Volume -10 -9 0 10 -262144
-1 -1 1700 1;
#X obj 506 356 cnv 15 70 15 empty empty 'SUSTAIN' 0 9 0 14 -262130
-66577 0;
#X obj 365 356 cnv 15 60 15 empty empty 'ATTACK' -1 9 0 14 -262130
-66577 0;
#X obj 438 356 cnv 15 55 15 empty empty 'DECAY' -1 9 0 14 -262130 -66577
0;
#X obj 976 592 cnv 15 65 15 empty empty REVERB 9 9 0 14 -262130 -66577
0;
#X obj 1103 590 cnv 15 60 15 empty empty DELAY 10 9 0 14 -262130 -66577
0;
#X obj 891 137 bng 15 250 50 0 empty empty empty 17 7 0 10 -1 -262130
-1;
#X msg 829 214 0.01;
#X msg 880 212 -10;
#X msg 938 210 0.1;
#X obj 815 238 send x2;
#X obj 875 236 send y2;
#X obj 934 237 send z2;
#X obj 941 169 s bang_2;
#X obj 914 107 r trig_2;
#X obj 1098 137 bng 15 250 50 0 empty empty empty 17 7 0 10 -1 -262130
-1;
#X msg 1042 213 0.01;
#X msg 1092 213 -10;
#X msg 1145 212 0.1;
#X obj 1148 170 s bang_3;
#X obj 1145 236 send z3;
#X obj 1087 237 send y3;
#X obj 1028 237 send x3;
#X obj 1121 101 r trig_3;
#X obj 1005 707 s fx_3;
#X obj 1104 371 hsl 50 15 0.5 80 0 1 empty empty empty 55 7 0 10 -262144
-1 -1 300 1;
#X obj 958 371 hsl 50 15 0 30 0 1 empty empty empty 55 7 0 10 -262144
-1 -1 3600 1;
#X obj 1093 351 cnv 15 70 15 empty empty 'SUSTAIN' 0 9 0 14 -262130
-66577 0;
#X obj 952 351 cnv 15 60 15 empty empty 'ATTACK' -1 9 0 14 -262130
-66577 0;
#X obj 1102 391 nbx 5 14 -1e+037 1e+037 0 0 empty empty empty 0 -8
0 10 -262144 -1 -1 5.36735 256;
#X obj 955 392 nbx 5 14 -1e+037 1e+037 0 0 empty empty empty 0 -8 0
10 -262144 -1 -1 22.0408 256;
#X obj 1029 371 hsl 50 15 25 1000 0 1 empty empty empty -2 -8 0 10
-262144 -1 -1 2700 1;
#X obj 1025 351 cnv 15 55 15 empty empty 'DECAY' -1 9 0 14 -262130
-66577 0;
#X obj 1026 392 nbx 5 14 -1e+037 1e+037 0 0 empty empty empty 0 -8
0 10 -262144 -1 -1 562.245 256;
#X obj 968 479 hsl 50 15 0 150 0 1 empty empty empty 55 7 0 10 -262144
-1 -1 2600 1;
#X obj 955 459 cnv 15 75 15 empty empty BEATFREQ 6 9 0 14 -262130 -66577
0;
#X obj 964 499 nbx 5 14 -1e+037 1e+037 0 0 empty empty empty 0 -8 0
10 -262144 -1 -1 79.5918 256;
#X obj 1145 494 tgl 15 1 empty empty On/Off -8 -10 0 10 -262130 -4160
-1 1 1;
#X obj 1102 495 tgl 15 1 empty empty Drone -7 -10 0 10 -262130 -4160
-1 1 1;
#X obj 1058 460 vsl 15 50 0 1 0 1 empty empty Volume -10 -9 0 10 -262144
-1 -1 2200 1;
#X obj 955 411 s atk_3;
#X obj 1026 411 s dec_3;
#X obj 1102 410 s sus_3;
#X obj 964 518 s bfreq_3;
#X obj 640 125 cnv 15 20 20 empty empty A 7 10 0 14 -262130 -66577
0;
#X obj 857 127 cnv 15 20 20 empty empty S 7 10 0 14 -262130 -66577
0;
#X obj 1059 137 cnv 15 20 20 empty empty D 7 10 0 14 -262130 -66577
0;
#X text 16 -3 3 voice chaotic;
#X text 31 15 drone/synth;
#X obj 537 327 bng 15 250 50 0 empty empty empty 17 7 0 10 -1 -262130
-1;
#X obj 537 304 r trig_1;
#X obj 825 326 bng 15 250 50 0 empty empty empty 17 7 0 10 -1 -262130
-1;
#X obj 1132 327 bng 15 250 50 0 empty empty empty 17 7 0 10 -1 -262130
-1;
#X obj 1132 304 r trig_3;
#X obj 825 303 r trig_2;
#N canvas 151 23 1170 714 ode_itor_1 0;
#X obj 123 313 unpack f f f;
#X obj 524 285 unpack f f f;
#X obj 876 320 unpack f f f;
#X obj 51 339 expr $f1 + (0.001*($f4*($f2-$f1)));
#X obj 407 345 expr $f2 + (0.001*(($f1*($f4-$f3))-$f2));
#X obj 796 346 expr $f3 + (0.001*(($f1*$f2)-($f4*$f3)));
#X floatatom 302 326 5 0 0 0 - - -;
#X text 94 258 dx=sigma(Y-X);
#X text 545 232 dy=X(rho-Z)-Y;
#X text 904 265 dz=XY-bZ;
#X floatatom 711 335 5 0 0 0 - - -;
#X floatatom 1096 343 5 0 0 0 - - -;
#X obj 122 286 receive iter_xyz;
#X obj 526 257 receive iter_xyz;
#X obj 876 292 receive iter_xyz;
#X obj 50 373 send x;
#X obj 374 377 send y;
#X obj 796 370 send z;
#X obj 510 70 float;
#X obj 582 69 float;
#X obj 643 75 float;
#X obj 569 100 pack f f f;
#X obj 505 45 r lp;
#X obj 577 44 r lp;
#X obj 647 51 r lp;
#X obj 613 46 r y;
#X obj 541 47 r x;
#X obj 684 53 r z;
#X obj 576 130 s iter_xyz;
#X text 459 12 Pack all at once to prevent stack overflow;
#X obj 535 445 r iter_xyz;
#X obj 689 542 line~;
#X msg 688 517 \$1 150;
#X obj 535 494 osc~;
#N canvas 617 23 698 743 a_out_1 0;
#X obj 268 633 dac~;
#X obj 403 362 sig~;
#X obj 488 360 sig~;
#X obj 174 406 freeverb~;
#X msg 180 363 wet \$1;
#X msg 241 362 dry \$1;
#X msg 301 361 roomsize \$1;
#X obj 15 53 inlet~;
#X obj 218 278 inlet;
#X obj 218 302 unpack f f f f f;
#X text 216 250 receive fx spec;
#X text 16 21 receive freq_out;
#X text 90 408 add reverb;
#X text 246 479 add delay;
#X obj 405 388 vd~ del_l1;
#X obj 208 433 delwrite~ del_r1 4000;
#X obj 213 456 delwrite~ del_l1 4000;
#X obj 489 388 vd~ del_r1;
#X obj 17 265 *~;
#X obj 67 231 vline~;
#X obj 70 78 r bang_1;
#X msg 103 204 1 50 \, 0 \$2 \$3;
#X obj 137 157 / 2;
#X obj 171 131 r dec_1;
#X obj 104 102 inlet;
#X obj 70 104 int;
#X obj 70 132 sel 1;
#X msg 68 184 1;
#X obj 105 181 pack f f f;
#X text 527 354 add delay;
#X text 159 108 Process key-press;
#X obj 223 661 cnv 15 125 20 empty empty empty 20 12 0 14 -4032 -66577
0;
#X text 240 662 Final Output;
#X connect 1 0 14 0;
#X connect 2 0 17 0;
#X connect 3 0 0 0;
#X connect 3 0 16 0;
#X connect 3 0 0 1;
#X connect 3 0 15 0;
#X connect 4 0 3 0;
#X connect 5 0 3 0;
#X connect 6 0 3 0;
#X connect 7 0 18 0;
#X connect 8 0 9 0;
#X connect 9 0 4 0;
#X connect 9 1 5 0;
#X connect 9 2 6 0;
#X connect 9 3 1 0;
#X connect 9 4 2 0;
#X connect 14 0 0 0;
#X connect 17 0 0 1;
#X connect 18 0 3 0;
#X connect 19 0 18 1;
#X connect 20 0 25 0;
#X connect 21 0 19 0;
#X connect 22 0 28 1;
#X connect 23 0 22 0;
#X connect 23 0 28 2;
#X connect 24 0 25 1;
#X connect 24 0 26 0;
#X connect 25 0 26 0;
#X connect 26 0 27 0;
#X connect 26 1 28 0;
#X connect 27 0 19 0;
#X connect 28 0 21 0;
#X restore 545 640 pd a_out_1;
#X obj 638 616 r fx_1;
#X obj 536 468 *~ 1;
#X obj 539 587 *~;
#X obj 285 299 r atk_1;
#X obj 685 300 r bfreq_1;
#X obj 1074 314 r sus_1;
#X obj 688 464 inlet;
#X obj 622 583 inlet;
#X obj 539 558 *~;
#X obj 575 486 inlet;
#X obj 575 533 *;
#X obj 605 509 r max_vol;
#X obj 585 511 bng 15 250 50 0 empty empty empty 17 7 0 10 -262144
-1 -1;
#X text 531 199 Iterate Lorenz System;
#X text 504 413 Calculate clean osc sig;
#X obj 434 671 cnv 15 300 20 empty empty empty 20 12 0 14 -4032 -66577
0;
#X text 451 672 Send osc to fx processing and output;
#X connect 0 0 3 0;
#X connect 0 1 3 1;
#X connect 0 2 3 2;
#X connect 1 0 4 0;
#X connect 1 1 4 1;
#X connect 1 2 4 2;
#X connect 2 0 5 0;
#X connect 2 1 5 1;
#X connect 2 2 5 2;
#X connect 3 0 15 0;
#X connect 4 0 16 0;
#X connect 5 0 17 0;
#X connect 12 0 0 0;
#X connect 13 0 1 0;
#X connect 14 0 2 0;
#X connect 18 0 21 0;
#X connect 19 0 21 1;
#X connect 20 0 21 2;
#X connect 21 0 28 0;
#X connect 22 0 18 0;
#X connect 23 0 19 0;
#X connect 24 0 20 0;
#X connect 25 0 19 1;
#X connect 26 0 18 1;
#X connect 27 0 20 1;
#X connect 30 0 36 0;
#X connect 31 0 37 1;
#X connect 32 0 31 0;
#X connect 33 0 43 0;
#X connect 35 0 34 2;
#X connect 36 0 33 0;
#X connect 37 0 34 0;
#X connect 38 0 6 0;
#X connect 38 0 3 3;
#X connect 39 0 10 0;
#X connect 39 0 4 3;
#X connect 40 0 11 0;
#X connect 40 0 5 3;
#X connect 41 0 32 0;
#X connect 42 0 34 1;
#X connect 43 0 37 0;
#X connect 44 0 45 0;
#X connect 45 0 43 1;
#X connect 46 0 45 1;
#X connect 46 0 47 0;
#X connect 47 0 45 0;
#X restore 477 525 pd ode_itor_1;
#X obj 313 4 cnv 15 130 25 empty empty INSTRUCTIONS 17 12 0 14 -262130
-66577 0;
#X obj 791 3 cnv 15 290 25 empty empty LORENZ_ATTRACTOR_INIT_TRIGGERS
17 12 0 14 -262130 -66577 0;
#X obj 85 310 cnv 15 170 25 empty empty REGISTER_TRIGGERS 17 12 0 14
-262130 -66577 0;
#X text 206 353 LOAD INIT POINTS;
#X text 14 475 Save graph data for plotly graphing in python;
#X obj 10 260 cnv 15 25 25 empty empty Graphing 30 12 0 14 -262130
-66577 0;
#X text 18 79 --------------;
#X text 315 202 Global Vol;
#X text 452 190 ode iteration;
#X obj 155 41 cnv 15 360 20 empty empty empty 20 12 0 14 -261234 -66577
0;
#X text 157 42 1 FIRST: the 'freeverb~' library must be imported;
#X obj 659 633 hsl 30 20 0 1 0 1 empty empty WET 5 -10 0 10 -262144
-1 -1 0 1;
#X obj 698 633 hsl 30 20 0 1 0 1 empty empty DRY 5 -10 0 10 -262144
-1 -1 2900 1;
#X obj 737 633 hsl 30 20 0 1 0 1 empty empty DEPTH 0 -10 0 10 -262144
-1 -1 2300 1;
#X obj 804 633 hsl 30 20 0 4000 0 1 empty empty LEFT 3 -10 0 10 -262144
-1 -1 0 1;
#X obj 842 633 hsl 30 20 0 4000 0 1 empty empty RIGHT 0 -10 0 10 -262144
-1 -1 0 1;
#X obj 706 682 pack f f f f f;
#X obj 763 660 bng 15 250 50 0 empty empty empty 17 7 0 10 -1 -262130
-1;
#X obj 957 631 hsl 30 20 0 1 0 1 empty empty WET 5 -10 0 10 -262144
-1 -1 2000 1;
#X obj 996 631 hsl 30 20 0 1 0 1 empty empty DRY 5 -10 0 10 -262144
-1 -1 400 1;
#X obj 1035 631 hsl 30 20 0 1 0 1 empty empty DEPTH 0 -10 0 10 -262144
-1 -1 2300 1;
#X obj 1102 631 hsl 30 20 0 4000 0 1 empty empty LEFT 3 -10 0 10 -262144
-1 -1 1400 1;
#X obj 1140 631 hsl 30 20 0 4000 0 1 empty empty RIGHT 0 -10 0 10 -262144
-1 -1 1100 1;
#X obj 1004 680 pack f f f f f;
#X obj 1061 658 bng 15 250 50 0 empty empty empty 17 7 0 10 -1 -262130
-1;
#X obj 465 551 cnv 15 125 20 empty empty empty 20 12 0 14 -4032 -66577
0;
#X text 471 552 OSC Abstraction;
#X obj 748 549 cnv 15 125 20 empty empty empty 20 12 0 14 -4032 -66577
0;
#X text 754 550 OSC Abstraction;
#X obj 1048 544 cnv 15 125 20 empty empty empty 20 12 0 14 -4032 -66577
0;
#X text 1054 545 OSC Abstraction;
#X text 186 190 Audio Toggle;
#X obj 155 62 cnv 15 400 67 empty empty empty 20 12 0 14 -204800 -66577
0;
#X text 157 88 3 To trigger a hit press a \, s \, d keys or enable
drone;
#X text 157 65 2 Modify attractor parameters in PURPLE SECTION;
#X text 157 110 4 Enable 'ode iteration' to enable automated frequencies
;
#X obj 155 128 cnv 15 435 42 empty empty empty 20 12 0 14 -261234 -66577
0;
#X text 157 131 5 WARNING: Leaving drone on without re-triggering will
always, f 61;
#X text 234 148 converge to single pitch (unpleasant when high);
#X obj 139 380 print;
#X connect 2 0 14 0;
#X connect 3 0 20 0;
#X connect 9 0 54 0;
#X connect 10 0 55 0;
#X connect 11 0 56 0;
#X connect 14 0 13 0;
#X connect 21 0 22 0;
#X connect 21 0 23 0;
#X connect 21 0 24 0;
#X connect 21 0 26 0;
#X connect 22 0 29 0;
#X connect 23 0 28 0;
#X connect 24 0 27 0;
#X connect 25 0 116 0;
#X connect 25 0 125 0;
#X connect 25 0 21 0;
#X connect 30 0 35 0;
#X connect 31 0 43 0;
#X connect 31 0 35 1;
#X connect 32 0 43 0;
#X connect 32 0 35 2;
#X connect 33 0 43 0;
#X connect 33 0 35 3;
#X connect 34 0 43 0;
#X connect 34 0 35 4;
#X connect 35 0 36 0;
#X connect 43 0 35 0;
#X connect 49 0 21 0;
#X connect 52 0 53 0;
#X connect 54 0 79 0;
#X connect 55 0 80 0;
#X connect 56 0 77 0;
#X connect 59 0 58 0;
#X connect 60 0 58 0;
#X connect 61 0 58 0;
#X connect 64 0 67 0;
#X connect 64 1 69 0;
#X connect 64 2 71 0;
#X connect 65 0 67 1;
#X connect 65 1 69 1;
#X connect 65 2 71 1;
#X connect 66 0 68 1;
#X connect 66 1 70 1;
#X connect 66 2 72 1;
#X connect 67 0 68 0;
#X connect 68 0 73 0;
#X connect 69 0 70 0;
#X connect 70 0 73 1;
#X connect 71 0 72 0;
#X connect 72 0 73 2;
#X connect 73 0 60 0;
#X connect 75 0 76 0;
#X connect 76 0 78 0;
#X connect 81 0 165 2;
#X connect 82 0 165 1;
#X connect 83 0 84 0;
#X connect 83 0 205 0;
#X connect 84 0 85 0;
#X connect 84 1 86 0;
#X connect 84 2 87 0;
#X connect 89 0 165 0;
#X connect 90 0 91 0;
#X connect 92 0 96 0;
#X connect 93 0 97 0;
#X connect 96 0 106 0;
#X connect 97 0 104 0;
#X connect 98 0 100 0;
#X connect 100 0 105 0;
#X connect 101 0 103 0;
#X connect 103 0 107 0;
#X connect 108 0 7 2;
#X connect 109 0 7 1;
#X connect 110 0 7 0;
#X connect 116 0 117 0;
#X connect 116 0 118 0;
#X connect 116 0 119 0;
#X connect 116 0 123 0;
#X connect 117 0 120 0;
#X connect 118 0 121 0;
#X connect 119 0 122 0;
#X connect 124 0 116 0;
#X connect 125 0 126 0;
#X connect 125 0 127 0;
#X connect 125 0 128 0;
#X connect 125 0 129 0;
#X connect 126 0 132 0;
#X connect 127 0 131 0;
#X connect 128 0 130 0;
#X connect 133 0 125 0;
#X connect 135 0 139 0;
#X connect 136 0 140 0;
#X connect 139 0 152 0;
#X connect 140 0 150 0;
#X connect 141 0 143 0;
#X connect 143 0 151 0;
#X connect 144 0 146 0;
#X connect 146 0 153 0;
#X connect 147 0 8 2;
#X connect 148 0 8 1;
#X connect 149 0 8 0;
#X connect 160 0 159 0;
#X connect 163 0 162 0;
#X connect 164 0 161 0;
#X connect 177 0 182 0;
#X connect 178 0 183 0;
#X connect 178 0 182 1;
#X connect 179 0 183 0;
#X connect 179 0 182 2;
#X connect 180 0 183 0;
#X connect 180 0 182 3;
#X connect 181 0 183 0;
#X connect 181 0 182 4;
#X connect 182 0 44 0;
#X connect 183 0 182 0;
#X connect 184 0 189 0;
#X connect 185 0 190 0;
#X connect 185 0 189 1;
#X connect 186 0 190 0;
#X connect 186 0 189 2;
#X connect 187 0 190 0;
#X connect 187 0 189 3;
#X connect 188 0 190 0;
#X connect 188 0 189 4;
#X connect 189 0 134 0;
#X connect 190 0 189 0;
