#N canvas 337 120 778 445 12;
#X obj 423 40 noise~;
#X msg 28 43 \; pd dsp \$1;
#X obj 29 17 tgl 15 0 empty empty empty 17 7 0 10 -262144 -1 -1 1 1
;
#X obj 306 194 dac~;
#X obj 302 155 *~;
#X obj 505 29 vsl 15 70 0 1 0 0 empty empty empty 0 -9 0 10 -262144
-1 -1 0 1;
#X obj 598 196 vcf~;
#X obj 563 114 env~;
#X obj 313 90 osc~;
#X msg 309 60 440;
#X obj 314 20 tgl 15 0 empty empty empty 17 7 0 10 -262144 -1 -1 1
1;
#X obj 429 136 dac~;
#X obj 420 92 *~;
#X connect 0 0 12 0;
#X connect 2 0 1 0;
#X connect 4 0 3 0;
#X connect 4 0 3 1;
#X connect 5 0 12 1;
#X connect 5 0 4 1;
#X connect 8 0 4 0;
#X connect 9 0 8 0;
#X connect 10 0 9 0;
#X connect 12 0 11 0;
#X connect 12 0 11 1;
