#N canvas 537 219 812 453 12;
#X msg 19 53 \; pd dsp \$1;
#X obj 288 245 phasor~;
#X obj 282 395 dac~;
#X obj 298 301 *~;
#X obj 19 13 tgl 15 0 empty empty empty 17 7 0 10 -262144 -1 -1 1 1
;
#X obj 293 335 *~ 0.25;
#X obj 407 133 f;
#X obj 217 24 bng 15 250 50 0 empty empty empty 17 7 0 10 -262144 -1
-1;
#N canvas 463 296 450 300 vol_env 0;
#X obj 37 37 inlet;
#X obj 36 152 vline~;
#X obj 34 194 *~;
#X msg 40 101 0.5 \, 1 5 \, 0.5 60 5 \, 0 \$1 65;
#X obj 34 220 outlet~;
#X connect 0 0 3 0;
#X connect 1 0 2 0;
#X connect 1 0 2 1;
#X connect 2 0 4 0;
#X connect 3 0 1 0;
#X restore 501 234 pd vol_env;
#N canvas 597 245 450 388 pitch_env 0;
#X obj 37 37 inlet;
#X obj 43 107 vline~;
#X obj 39 139 *~;
#X obj 34 260 outlet~;
#X msg 40 74 1 \, 0.5 5 \, 0 \$1 5;
#X obj 39 168 *~ 80;
#X obj 39 227 mtof~;
#X obj 40 200 +~ 2;
#X connect 0 0 4 0;
#X connect 1 0 2 0;
#X connect 1 0 2 1;
#X connect 2 0 5 0;
#X connect 4 0 1 0;
#X connect 5 0 7 0;
#X connect 6 0 3 0;
#X connect 7 0 6 0;
#X restore 127 178 pd pitch_env;
#X obj 288 214 *~ 1;
#X text 248 21 press this button to activate;
#X msg 466 132 125;
#X msg 360 181 9;
#X obj 421 72 loadbang;
#X text 493 210 encapsulated file \, controls volume envelope;
#X text 38 146 encapsulated file \, controls pitch envelope;
#X connect 1 0 3 0;
#X connect 3 0 5 0;
#X connect 4 0 0 0;
#X connect 5 0 2 0;
#X connect 5 0 2 1;
#X connect 6 0 8 0;
#X connect 6 0 9 0;
#X connect 7 0 6 0;
#X connect 8 0 3 1;
#X connect 9 0 10 0;
#X connect 10 0 1 0;
#X connect 12 0 6 1;
#X connect 13 0 10 1;
#X connect 14 0 12 0;
#X connect 14 0 13 0;
#X connect 14 0 4 0;
