#N canvas 641 96 891 568 12;
#X obj 23 119 tgl 15 0 empty empty empty 17 7 0 10 -262144 -1 -1 1
1;
#X msg 23 145 \; pd dsp \$1;
#X obj 176 315 mtof;
#X obj 427 355 vsl 15 70 0 0.1 0 0 empty empty empty 0 -9 0 10 -262144
-1 -1 0 1;
#X obj 175 426 *~;
#X obj 162 465 dac~;
#X obj 138 211 select 0 1 2 3 4 5 6 7;
#X obj 138 140 f;
#X obj 168 140 + 1;
#X obj 176 353 sig~;
#X text 261 12 begin producing sound;
#X obj 166 392 phasor~;
#X msg 90 254 80;
#X msg 224 254 20, f 2;
#X msg 260 254 30;
#X msg 312 254 36;
#X obj 454 70 + 1;
#X obj 311 54 tgl 15 0 empty empty empty 17 7 0 10 -262144 -1 -1 0
1;
#X obj 406 70 f 0;
#X obj 229 19 bng 15 250 50 0 empty empty empty 17 7 0 10 -262144 -1
-1;
#X obj 138 174 % 8;
#X obj 342 86 % 8;
#X obj 332 134 select 7 0;
#X obj 379 294 f 0;
#X msg 45 255 85;
#X msg 133 254 54;
#X msg 178 256 42;
#X obj 192 75 metro 200;
#X obj 40 48 loadbang;
#X text 420 108 this whole systems makes sure the sound doesn't last
forever;
#X text 17 213 choosing notes;
#X obj 451 294 f 0.04;
#X connect 0 0 1 0;
#X connect 2 0 9 0;
#X connect 3 0 4 1;
#X connect 4 0 5 0;
#X connect 4 0 5 1;
#X connect 6 0 24 0;
#X connect 6 1 12 0;
#X connect 6 2 25 0;
#X connect 6 3 26 0;
#X connect 6 4 13 0;
#X connect 6 5 14 0;
#X connect 6 6 14 0;
#X connect 6 7 15 0;
#X connect 7 0 8 0;
#X connect 7 0 20 0;
#X connect 8 0 7 1;
#X connect 9 0 11 0;
#X connect 11 0 4 0;
#X connect 12 0 2 0;
#X connect 13 0 2 0;
#X connect 14 0 2 0;
#X connect 15 0 2 0;
#X connect 16 0 18 1;
#X connect 17 0 27 0;
#X connect 18 0 16 0;
#X connect 18 0 21 0;
#X connect 18 0 22 0;
#X connect 19 0 17 0;
#X connect 20 0 6 0;
#X connect 21 0 22 0;
#X connect 22 0 17 0;
#X connect 22 0 23 0;
#X connect 22 1 31 0;
#X connect 23 0 3 0;
#X connect 24 0 2 0;
#X connect 25 0 2 0;
#X connect 26 0 2 0;
#X connect 27 0 7 0;
#X connect 27 0 18 0;
#X connect 28 0 0 0;
#X connect 31 0 3 0;
