#N canvas 261 105 1025 445 12;
#X obj 294 255 noise~;
#X msg 23 270 \; pd dsp \$1;
#X obj 25 243 tgl 15 0 empty empty empty 17 7 0 10 -262144 -1 -1 1
1;
#X obj 426 393 dac~;
#X obj 448 331 bp~;
#X floatatom 494 256 5 0 0 0 - - -;
#X obj 499 208 line;
#X obj 408 104 bng 15 250 50 0 empty empty empty 17 7 0 10 -262144
-1 -1;
#X obj 392 16 bng 15 250 50 0 empty empty empty 17 7 0 10 -262144 -1
-1;
#X msg 536 321 3;
#X text 421 15 The button to press;
#X msg 597 311 2;
#X obj 708 99 + 1;
#X obj 632 53 tgl 15 0 empty empty empty 17 7 0 10 -262144 -1 -1 0
1;
#X obj 665 144 select 1;
#X obj 750 98 - 1;
#X obj 662 101 f 0;
#X obj 664 59 metro 160;
#X msg 377 146 550 150;
#X msg 658 186 0 150;
#X obj 227 195 line;
#X obj 270 223 osc~;
#X obj 579 241 loadbang;
#X obj 332 315 *~ 0.4;
#X obj 344 231 *~ 0.05;
#X obj 25 182 loadbang;
#X obj 282 68 + 1;
#X obj 206 22 tgl 15 0 empty empty empty 17 7 0 10 -262144 -1 -1 0
1;
#X obj 239 113 select 1;
#X obj 324 67 - 1;
#X obj 236 70 f 0;
#X msg 211 163 1850 150;
#X obj 234 41 metro 151;
#X msg 322 188 0 200;
#X text 618 32 sends signal for whoosh down noise;
#X text 29 73 sends signal for pitch down;
#X text 94 219 line shapes the pitch;
#X text 465 177 line shapes bandpass;
#X connect 0 0 23 0;
#X connect 2 0 1 0;
#X connect 4 0 3 0;
#X connect 4 0 3 1;
#X connect 5 0 4 1;
#X connect 6 0 5 0;
#X connect 7 0 18 0;
#X connect 7 0 31 0;
#X connect 8 0 7 0;
#X connect 8 0 13 0;
#X connect 8 0 27 0;
#X connect 9 0 4 2;
#X connect 11 0 6 2;
#X connect 12 0 16 1;
#X connect 13 0 17 0;
#X connect 14 0 13 0;
#X connect 14 0 15 0;
#X connect 14 0 19 0;
#X connect 15 0 16 1;
#X connect 16 0 12 0;
#X connect 16 0 14 0;
#X connect 17 0 16 0;
#X connect 18 0 6 0;
#X connect 19 0 6 0;
#X connect 20 0 21 0;
#X connect 21 0 24 0;
#X connect 22 0 11 0;
#X connect 22 0 9 0;
#X connect 23 0 4 0;
#X connect 24 0 3 0;
#X connect 24 0 3 1;
#X connect 25 0 2 0;
#X connect 26 0 30 1;
#X connect 27 0 32 0;
#X connect 28 0 27 0;
#X connect 28 0 29 0;
#X connect 28 0 33 0;
#X connect 29 0 30 1;
#X connect 30 0 26 0;
#X connect 30 0 28 0;
#X connect 31 0 20 0;
#X connect 32 0 30 0;
#X connect 33 0 20 0;
