#N canvas 340 315 700 453 12;
#X msg 33 195 \; pd dsp \$1;
#X obj 288 245 phasor~;
#X obj 282 395 dac~;
#X obj 298 301 *~;
#X obj 33 155 tgl 15 0 empty empty empty 17 7 0 10 -262144 -1 -1 1
1;
#X obj 407 133 f;
#X obj 218 24 bng 15 250 50 0 empty empty empty 17 7 0 10 -262144 -1
-1;
#N canvas 463 296 450 300 vol_env 0;
#X obj 37 37 inlet;
#X obj 36 152 vline~;
#X obj 34 194 *~;
#X obj 34 220 outlet~;
#X msg 41 102 0 \, 1 200 \, 0 \$1 65;
#X connect 0 0 4 0;
#X connect 1 0 2 0;
#X connect 1 0 2 1;
#X connect 2 0 3 0;
#X connect 4 0 1 0;
#X restore 416 179 pd vol_env;
#N canvas 609 200 450 388 pitch_env 0;
#X obj 37 37 inlet;
#X obj 43 107 vline~;
#X obj 39 139 *~;
#X obj 34 260 outlet~;
#X obj 39 227 mtof~;
#X obj 40 200 +~ 2;
#X obj 39 168 *~ 70;
#X msg 40 74 0.2 \, 0.4 300 \, 0.75 200;
#X connect 0 0 7 0;
#X connect 1 0 2 0;
#X connect 1 0 2 1;
#X connect 2 0 6 0;
#X connect 4 0 3 0;
#X connect 5 0 4 0;
#X connect 6 0 5 0;
#X connect 7 0 1 0;
#X restore 252 172 pd pitch_env;
#X obj 288 214 *~ 1;
#X text 248 21 press this button to activate;
#X obj 422 77 loadbang;
#X msg 459 125 400;
#X msg 363 178 8;
#X obj 355 303 inlet;
#X obj 293 334 *~;
#X connect 1 0 3 0;
#X connect 3 0 15 0;
#X connect 4 0 0 0;
#X connect 5 0 7 0;
#X connect 5 0 8 0;
#X connect 6 0 5 0;
#X connect 7 0 3 1;
#X connect 8 0 9 0;
#X connect 9 0 1 0;
#X connect 11 0 12 0;
#X connect 11 0 13 0;
#X connect 11 0 4 0;
#X connect 12 0 5 1;
#X connect 13 0 9 1;
#X connect 14 0 15 1;
#X connect 15 0 2 0;
#X connect 15 0 2 1;
